# This file uses centimeters as units for non-parametric coordinates.

mtllib door_1.mtl
g default
v 29.232195 85.824585 -16.570369
v 29.232195 251.975494 -16.570373
v 29.232195 85.824585 17.184041
v 29.232195 251.975494 17.184037
v 5.261803 251.975494 -2.731065
v 5.261803 251.975494 3.344729
v 5.261803 85.824585 -2.731061
v 5.261803 85.824585 3.344730
v 5.846447 274.294434 -3.068606
v 5.846447 274.294434 3.682276
v 5.846447 67.277916 -3.068610
v 5.846447 67.277916 3.682276
v -29.232195 85.824585 -16.570369
v -29.232195 251.975494 -16.570373
v -29.232195 85.824585 17.184041
v -29.232195 251.975494 17.184037
v -5.261803 251.975494 -2.731065
v -5.261803 251.975494 3.344729
v -5.261803 85.824585 -2.731061
v -5.261803 85.824585 3.344730
v -5.846447 274.294434 -3.068606
v -5.846447 274.294434 3.682276
v -5.846447 67.277916 -3.068610
v -5.846447 67.277916 3.682276
v 0.000000 85.824600 -33.447578
v 0.000000 251.975494 -33.447578
v 0.000000 85.824585 34.061247
v 0.000000 251.975494 34.061241
v 0.000000 251.975494 -5.768960
v 0.000000 251.975494 6.382628
v 0.000000 85.824585 -5.768956
v 0.000000 85.824585 6.382631
v 0.000000 274.294434 -6.444047
v 0.000000 274.294434 7.057718
v 0.000000 67.277924 -6.444047
v 0.000000 67.277916 7.057716
vt 0.005879 0.148640
vt 0.211451 0.148639
vt 0.211451 0.189197
vt 0.005879 0.189197
vt 0.211452 0.229754
vt 0.005879 0.229754
vt 0.211452 0.270311
vt 0.005879 0.270311
vt 0.912777 0.867618
vt 0.877328 0.847151
vt 0.906396 0.830368
vt 0.912777 0.834052
vt 0.935706 0.223419
vt 0.935706 0.264381
vt 0.906618 0.247587
vt 0.906618 0.240214
vt 0.877328 0.806217
vt 0.912777 0.785751
vt 0.912777 0.819316
vt 0.906396 0.823000
vt 0.436517 0.969329
vt 0.436250 0.962297
vt 0.467066 0.960734
vt 0.467363 0.968547
vt 0.900232 0.202939
vt 0.900232 0.236527
vt 0.900232 0.284861
vt 0.900232 0.251273
vt 0.193897 0.628255
vt 0.200788 0.624276
vt 0.200788 0.640191
vt 0.193897 0.636212
vt 0.436607 0.976365
vt 0.467463 0.976365
vt 0.435805 0.955274
vt 0.466571 0.952931
vt 0.200806 0.618353
vt 0.200806 0.602373
vt 0.207725 0.606368
vt 0.207725 0.614358
vt 0.948601 0.232928
vt 0.948709 0.225839
vt 0.974545 0.225839
vt 0.974424 0.233715
vt 0.947737 0.247078
vt 0.948277 0.240010
vt 0.974064 0.241584
vt 0.973464 0.249438
vt 0.005879 0.189197
vt 0.211451 0.189197
vt 0.005879 0.229754
vt 0.211452 0.229754
vt 0.906396 0.830368
vt 0.877328 0.847151
vt 0.935706 0.223419
vt 0.906618 0.240214
vt 0.906618 0.247587
vt 0.935706 0.264381
vt 0.877328 0.806217
vt 0.906396 0.823000
vt 0.436517 0.969329
vt 0.467363 0.968547
vt 0.467066 0.960734
vt 0.436250 0.962297
vt 0.193897 0.628255
vt 0.193897 0.636212
vt 0.207725 0.614358
vt 0.207725 0.606368
vt 0.948601 0.232928
vt 0.974424 0.233715
vt 0.974064 0.241584
vt 0.948277 0.240010
vn 0.500011 0.000000 -0.866019
vn 0.500011 0.000000 -0.866019
vn 0.500011 0.000000 -0.866019
vn 0.500011 0.000000 -0.866019
vn 1.000000 0.000000 0.000000
vn 1.000000 0.000000 0.000000
vn 1.000000 0.000000 0.000000
vn 1.000000 0.000000 0.000000
vn 0.500011 0.000000 0.866019
vn 0.500011 0.000000 0.866019
vn 0.500011 0.000000 0.866019
vn 0.500011 0.000000 0.866019
vn 0.000000 1.000000 0.000000
vn 0.000000 1.000000 0.000000
vn 0.000000 1.000000 0.000000
vn 0.000000 1.000000 0.000000
vn 0.000000 -1.000000 0.000000
vn 0.000000 -1.000000 0.000000
vn 0.000000 -1.000000 0.000000
vn 0.000000 -1.000000 0.000000
vn 0.000000 1.000000 0.000000
vn 0.000000 1.000000 0.000000
vn 0.000000 1.000000 0.000000
vn 0.000000 1.000000 0.000000
vn 0.999657 -0.026199 0.000000
vn 0.999657 -0.026199 0.000000
vn 0.999657 -0.026199 0.000000
vn 0.999657 -0.026199 0.000000
vn 0.000000 1.000000 0.000000
vn 0.000000 1.000000 0.000000
vn 0.000000 1.000000 0.000000
vn 0.000000 1.000000 0.000000
vn 0.000000 -1.000000 0.000000
vn 0.000000 -1.000000 0.000000
vn 0.000000 -1.000000 0.000000
vn 0.000000 -1.000000 0.000000
vn 0.000000 -1.000000 0.000000
vn 0.000000 -1.000000 0.000000
vn 0.000000 -1.000000 0.000000
vn 0.000000 -1.000000 0.000000
vn 0.000000 1.000000 0.000000
vn 0.000000 1.000000 0.000000
vn 0.000000 1.000000 0.000000
vn 0.000000 1.000000 0.000000
vn 0.499819 -0.026201 0.865733
vn 0.499819 -0.026201 0.865733
vn 0.499819 -0.026201 0.865733
vn 0.499819 -0.026201 0.865733
vn 0.499819 -0.026201 -0.865733
vn 0.499819 -0.026201 -0.865733
vn 0.499819 -0.026201 -0.865733
vn 0.499819 -0.026201 -0.865733
vn 0.000000 -1.000000 0.000000
vn 0.000000 -1.000000 0.000000
vn 0.000000 -1.000000 0.000000
vn 0.000000 -1.000000 0.000000
vn 0.499786 0.031499 0.865576
vn 0.499786 0.031499 0.865576
vn 0.499786 0.031499 0.865576
vn 0.499786 0.031499 0.865576
vn 0.499786 0.031499 -0.865576
vn 0.499786 0.031499 -0.865576
vn 0.499786 0.031499 -0.865576
vn 0.499786 0.031499 -0.865576
vn 0.999504 0.031500 0.000000
vn 0.999504 0.031500 0.000000
vn 0.999504 0.031500 0.000000
vn 0.999504 0.031500 0.000000
vn -0.500011 0.000000 -0.866019
vn -0.500011 0.000000 -0.866019
vn -0.500011 0.000000 -0.866019
vn -0.500011 0.000000 -0.866019
vn -1.000000 0.000000 0.000000
vn -1.000000 0.000000 0.000000
vn -1.000000 0.000000 0.000000
vn -1.000000 0.000000 0.000000
vn -0.500011 0.000000 0.866019
vn -0.500011 0.000000 0.866019
vn -0.500011 0.000000 0.866019
vn -0.500011 0.000000 0.866019
vn 0.000000 1.000000 0.000000
vn 0.000000 1.000000 0.000000
vn 0.000000 1.000000 0.000000
vn 0.000000 1.000000 0.000000
vn 0.000000 -1.000000 0.000000
vn 0.000000 -1.000000 0.000000
vn 0.000000 -1.000000 0.000000
vn 0.000000 -1.000000 0.000000
vn 0.000000 1.000000 0.000000
vn 0.000000 1.000000 0.000000
vn 0.000000 1.000000 0.000000
vn 0.000000 1.000000 0.000000
vn -0.999657 -0.026199 0.000000
vn -0.999657 -0.026199 0.000000
vn -0.999657 -0.026199 0.000000
vn -0.999657 -0.026199 0.000000
vn 0.000000 1.000000 0.000000
vn 0.000000 1.000000 0.000000
vn 0.000000 1.000000 0.000000
vn 0.000000 1.000000 0.000000
vn 0.000000 -1.000000 0.000000
vn 0.000000 -1.000000 0.000000
vn 0.000000 -1.000000 0.000000
vn 0.000000 -1.000000 0.000000
vn 0.000000 -1.000000 0.000000
vn 0.000000 -1.000000 0.000000
vn 0.000000 -1.000000 0.000000
vn 0.000000 -1.000000 0.000000
vn 0.000000 1.000000 0.000000
vn 0.000000 1.000000 0.000000
vn 0.000000 1.000000 0.000000
vn 0.000000 1.000000 0.000000
vn -0.499819 -0.026201 0.865733
vn -0.499819 -0.026201 0.865733
vn -0.499819 -0.026201 0.865733
vn -0.499819 -0.026201 0.865733
vn -0.499819 -0.026201 -0.865733
vn -0.499819 -0.026201 -0.865733
vn -0.499819 -0.026201 -0.865733
vn -0.499819 -0.026201 -0.865733
vn 0.000000 -1.000000 0.000000
vn 0.000000 -1.000000 0.000000
vn 0.000000 -1.000000 0.000000
vn 0.000000 -1.000000 0.000000
vn -0.499786 0.031499 0.865576
vn -0.499786 0.031499 0.865576
vn -0.499786 0.031499 0.865576
vn -0.499786 0.031499 0.865576
vn -0.499786 0.031499 -0.865576
vn -0.499786 0.031499 -0.865576
vn -0.499786 0.031499 -0.865576
vn -0.499786 0.031499 -0.865576
vn -0.999504 0.031500 0.000000
vn -0.999504 0.031500 0.000000
vn -0.999504 0.031500 0.000000
vn -0.999504 0.031500 0.000000
s off
g door:Mesh
usemtl door:default1
f 25/1/1 26/2/2 2/3/3 1/4/4
f 1/4/5 2/3/6 4/5/7 3/6/8
f 3/6/9 4/5/10 28/7/11 27/8/12
f 28/9/13 4/10/14 6/11/15 30/12/16
f 1/13/17 3/14/18 8/15/19 7/16/20
f 2/17/21 26/18/22 29/19/23 5/20/24
f 6/21/25 5/22/26 9/23/27 10/24/28
f 4/10/29 2/17/30 5/20/31 6/11/32
f 25/25/33 1/13/34 7/16/35 31/26/36
f 3/14/37 27/27/38 32/28/39 8/15/40
f 9/29/41 33/30/42 34/31/43 10/32/44
f 30/33/45 6/21/46 10/24/47 34/34/48
f 5/22/49 29/35/50 33/36/51 9/23/52
f 36/37/53 35/38/54 11/39/55 12/40/56
f 8/41/57 32/42/58 36/43/59 12/44/60
f 31/45/61 7/46/62 11/47/63 35/48/64
f 7/46/65 8/41/66 12/44/67 11/47/68
f 25/1/69 13/49/70 14/50/71 26/2/72
f 13/49/73 15/51/74 16/52/75 14/50/76
f 15/51/77 27/8/78 28/7/79 16/52/80
f 28/9/81 30/12/82 18/53/83 16/54/84
f 13/55/85 19/56/86 20/57/87 15/58/88
f 14/59/89 17/60/90 29/19/91 26/18/92
f 18/61/93 22/62/94 21/63/95 17/64/96
f 16/54/97 18/53/98 17/60/99 14/59/100
f 25/25/101 31/26/102 19/56/103 13/55/104
f 15/58/105 20/57/106 32/28/107 27/27/108
f 21/65/109 22/66/110 34/31/111 33/30/112
f 30/33/113 34/34/114 22/62/115 18/61/116
f 17/64/117 21/63/118 33/36/119 29/35/120
f 36/37/121 24/67/122 23/68/123 35/38/124
f 20/69/125 24/70/126 36/43/127 32/42/128
f 31/45/129 35/48/130 23/71/131 19/72/132
f 19/72/133 23/71/134 24/70/135 20/69/136
