# Blender v2.78 (sub 0) OBJ File: ''
# www.blender.org
mtllib memory_1.mtl
o eye_back_L
v -39.683998 -47.882118 -16.864038
v -53.349705 72.231316 -8.663309
v -176.062408 63.060467 -32.655788
v -93.140236 -51.225754 -26.108978
vt 0.4283 0.5779
vt 0.4283 0.7000
vt 0.5620 0.6331
vt 0.4554 0.5555
vn -0.1792 -0.0808 0.9805
usemtl Material.001
s 1
f 1/1/1 2/2/1 3/3/1 4/4/1
o eye_R
v 90.844849 -48.376404 -7.258677
v 163.047150 28.642765 -7.258664
v 78.356216 35.483818 -7.258663
v 4.176894 -0.319660 -7.258669
v 7.575368 -23.140226 -7.258673
vt 0.0862 0.8442
vt 0.1765 0.9157
vt 0.0862 0.9367
vt 0.0004 0.9100
vt 0.0004 0.8848
vn -0.0000 -0.0000 1.0000
usemtl Material.001
s 1
f 5/5/2 6/6/2 7/7/2 8/8/2 9/9/2
o eye_back_R
v 39.683998 -47.882118 -16.864038
v 93.140236 -51.225754 -26.108978
v 176.062408 63.060467 -32.655788
v 53.349705 72.231316 -8.663309
vt 0.4283 0.5779
vt 0.4554 0.5555
vt 0.5620 0.6331
vt 0.4283 0.7000
vn 0.1792 -0.0808 0.9805
usemtl Material.001
s 1
f 10/10/3 11/11/3 12/12/3 13/13/3
o eye_L
v -90.844849 -48.376404 -7.258677
v -7.575368 -23.140226 -7.258673
v -4.176894 -0.319660 -7.258669
v -78.356216 35.483818 -7.258663
v -163.047150 28.642765 -7.258664
vt 0.0907 0.7509
vt 0.1765 0.7915
vt 0.1765 0.8167
vt 0.0907 0.8434
vt 0.0004 0.8224
vn 0.0000 -0.0000 1.0000
usemtl Material.001
s 1
f 14/14/4 15/15/4 16/16/4 17/17/4 18/18/4
