# Blender v2.78 (sub 0) OBJ File: ''
# www.blender.org
mtllib listen_2.mtl
o ear_R
v -106.649643 -95.447006 -20.225384
v -212.362396 299.539764 104.181145
v -277.360260 159.140106 165.168182
v -131.414825 424.971039 -5.927124
v -310.563263 -5.629077 160.261597
v -324.865326 -159.104416 111.073151
v -253.156616 -160.848465 64.360458
v -352.560455 159.140121 34.917606
v -267.245209 299.539795 9.121364
v -364.912720 -5.629070 66.125511
v -329.465332 -159.104416 103.105728
vt 0.2768 0.1066
vt 0.0715 0.4637
vt 0.0061 0.3172
vt 0.1805 0.6015
vt 0.0061 0.1551
vt 0.0432 0.0069
vt 0.1253 0.0181
vt 0.9962 0.5014
vt 0.7255 0.7120
vt 0.7909 0.8585
vt 0.8999 0.9964
vt 0.7255 0.5499
vt 0.7626 0.4017
vt 0.0432 0.0069
vn 0.7157 -0.0282 0.6978
vn 0.7939 0.0211 0.6077
vn 0.6183 -0.1476 0.7720
vn 0.5546 -0.3004 0.7760
vn 0.5389 -0.1309 0.8321
vn -0.2465 -0.0282 -0.9687
vn -0.1293 0.0211 -0.9914
vn -0.3594 -0.1476 -0.9214
vn -0.3948 -0.3004 -0.8683
vn -0.4512 -0.1309 -0.8828
usemtl listen
s 1
f 1/1/1 2/2/1 3/3/1
f 2/2/2 1/1/2 4/4/2
f 3/3/3 5/5/3 1/1/3
f 1/1/4 5/5/4 6/6/4
f 1/1/5 6/6/5 7/7/5
f 1/8/6 8/9/6 9/10/6
f 9/10/7 4/11/7 1/8/7
f 8/9/8 1/8/8 10/12/8
f 1/8/9 11/13/9 10/12/9
f 1/1/10 7/7/10 11/14/10
