# Blender v2.78 (sub 0) OBJ File: ''
# www.blender.org
mtllib maskA_2.mtl
o eye_brow_L
v 78.327187 -42.257816 84.912971
v 135.356308 94.667328 113.367630
v 0.000000 79.943909 122.927795
vt 0.6514 0.6335
vt 0.7852 0.9576
vt 0.4695 0.9306
vn 0.0944 -0.2401 0.9662
usemtl Material.001
s 1
f 1/1/1 2/2/1 3/3/1
o eye_brow_R
v -78.327187 -42.257816 84.912971
v 0.000000 79.943909 122.927795
v -135.356308 94.667328 113.367630
vt 0.6514 0.6335
vt 0.4695 0.9306
vt 0.7852 0.9576
vn -0.0944 -0.2401 0.9662
usemtl Material.001
s 1
f 4/4/2 5/5/2 6/6/2
o face
v 0.000000 111.681541 126.057770
v 10.705980 81.697632 126.057770
v 67.247513 97.688568 126.057770
v 78.327187 -53.825493 101.269005
v 78.327187 -42.257828 126.057701
v 54.965221 -42.257828 126.057701
v 78.327187 123.893929 43.568974
v 0.000000 140.716141 51.572090
v 119.800621 46.320229 75.856453
v 127.686668 53.199841 27.229271
v 126.047554 -19.696930 77.190285
v 133.688995 -35.701313 27.629381
v 78.367531 -86.541992 55.070545
v 78.367531 -106.061966 42.792622
v 33.739105 -120.499596 42.792622
v 32.349678 -116.887093 55.552967
v 0.000000 -53.825493 101.269005
v 0.000000 -128.234055 42.792622
v 0.000000 -124.297371 56.800880
v 0.000000 -42.257839 148.235336
v -67.247513 97.688568 126.057770
v -10.705980 81.697632 126.057770
v -78.327187 -53.825493 101.269005
v -54.965221 -42.257828 126.057701
v -78.327187 -42.257828 126.057701
v -78.327187 123.893929 43.568974
v -127.686668 53.199841 27.229271
v -119.800621 46.320229 75.856453
v -133.688995 -35.701313 27.629381
v -126.047554 -19.696930 77.190285
v -78.367531 -106.061966 42.792622
v -78.367531 -86.541992 55.070545
v -33.739105 -120.499596 42.792622
v -32.349678 -116.887093 55.552967
vt 0.6440 0.5343
vt 0.6637 0.4794
vt 0.7485 0.4978
vt 0.8112 0.2598
vt 0.7869 0.2959
vt 0.7492 0.2808
vt 0.8542 0.6103
vt 0.7045 0.6817
vt 0.8770 0.4370
vt 0.9647 0.4691
vt 0.8913 0.3273
vt 0.9791 0.2954
vt 0.8782 0.1783
vt 0.8992 0.1393
vt 0.8379 0.0741
vt 0.8193 0.0915
vt 0.6869 0.1874
vt 0.7898 0.0276
vt 0.7715 0.0490
vt 0.6440 0.2660
vt 0.7485 0.4978
vt 0.6637 0.4794
vt 0.8112 0.2598
vt 0.7492 0.2808
vt 0.7869 0.2959
vt 0.8542 0.6103
vt 0.9647 0.4691
vt 0.8770 0.4370
vt 0.9791 0.2954
vt 0.8913 0.3273
vt 0.8992 0.1393
vt 0.8782 0.1783
vt 0.8379 0.0741
vt 0.8193 0.0915
vn 0.0000 0.0000 1.0000
vn 0.0000 -0.9062 0.4229
vn 0.2127 0.9169 0.3377
vn 0.8060 0.5357 0.2518
vn 0.9857 0.0796 0.1485
vn 0.7190 -0.5606 0.4109
vn 0.6586 -0.6138 0.4353
vn 0.3400 -0.6813 0.6483
vn 0.1625 -0.6540 0.7388
vn 0.2197 -0.9359 0.2753
vn 0.1530 -0.5274 0.8357
vn 0.3709 0.1324 0.9192
vn 0.6527 -0.6866 0.3204
vn 0.0536 -0.9452 0.3222
vn -0.2127 0.9169 0.3377
vn -0.8060 0.5357 0.2518
vn -0.9857 0.0796 0.1485
vn -0.7190 -0.5606 0.4109
vn -0.6586 -0.6138 0.4353
vn -0.3400 -0.6813 0.6483
vn -0.1625 -0.6540 0.7388
vn -0.2197 -0.9359 0.2753
vn -0.1530 -0.5274 0.8357
vn -0.3709 0.1324 0.9192
vn -0.6527 -0.6866 0.3204
vn -0.0536 -0.9452 0.3222
usemtl Material.001
s 1
f 7/7/3 8/8/3 9/9/3
f 10/10/4 11/11/4 12/12/4
f 7/7/5 9/9/5 13/13/5 14/14/5
f 13/13/6 9/9/6 15/15/6 16/16/6
f 16/16/7 15/15/7 17/17/7 18/18/7
f 18/18/8 17/17/8 19/19/8 20/20/8
f 19/19/9 17/17/9 10/10/9
f 21/21/10 20/20/10 19/19/10 22/22/10
f 23/23/11 22/22/11 19/19/11 10/10/11
f 24/24/12 21/21/12 22/22/12 25/25/12
f 25/25/13 22/22/13 23/23/13
f 26/26/14 12/12/14 8/8/14 7/7/14
f 17/17/15 11/11/15 10/10/15
f 12/12/16 26/26/16 23/23/16 10/10/16
f 7/7/3 27/27/3 28/28/3
f 29/29/4 30/30/4 31/31/4
f 7/7/17 14/14/17 32/32/17 27/27/17
f 32/32/18 33/33/18 34/34/18 27/27/18
f 33/33/19 35/35/19 36/36/19 34/34/19
f 35/35/20 37/37/20 38/38/20 36/36/20
f 38/38/21 29/29/21 36/36/21
f 39/39/22 40/40/22 38/38/22 37/37/22
f 23/23/23 29/29/23 38/38/23 40/40/23
f 24/24/24 25/25/24 40/40/24 39/39/24
f 25/25/25 23/23/25 40/40/25
f 26/26/26 7/7/26 28/28/26 30/30/26
f 36/36/27 29/29/27 31/31/27
f 30/30/28 29/29/28 23/23/28 26/26/28
