# Blender v2.78 (sub 0) OBJ File: ''
# www.blender.org
mtllib maskB.mtl
o headdress_d_L
v 44.659744 118.102051 -1.999991
v 44.659744 65.289421 -2.000012
v 59.733192 65.289421 -2.000017
v 59.733192 118.102051 -1.999995
vt 0.7449 0.9933
vt 0.7449 0.8828
vt 0.7764 0.8828
vt 0.7764 0.9933
vn 0.0000 -0.0000 1.0000
usemtl maskB
s 1
f 1/1/1 2/2/1 3/3/1 4/4/1
o head
v -83.336998 6.098303 52.371696
v -102.321999 6.098325 16.749805
v -102.321999 -5.745592 11.843889
v -83.336998 -30.934088 37.032360
v -83.336983 58.470032 0.000007
v -102.321991 22.848145 -0.000010
v -102.321999 17.942228 11.843900
v -83.336998 43.130699 37.032391
v -83.336967 6.098337 -52.371719
v -102.321991 6.098331 -16.749828
v -102.321991 17.942232 -11.843919
v -83.336983 43.130730 -37.032387
v -83.336983 -30.934061 -37.032406
v -102.321991 -5.745588 -11.843926
v -102.321991 -10.651489 -0.000019
v -83.336983 -46.273392 -0.000030
v 83.336998 6.098303 52.371696
v 83.336998 -30.934088 37.032360
v 102.321999 -5.745592 11.843889
v 102.321999 6.098325 16.749805
v 83.336983 58.470032 0.000007
v 83.336998 43.130699 37.032391
v 102.321999 17.942228 11.843900
v 102.321991 22.848145 -0.000010
v 83.336967 6.098337 -52.371719
v 83.336983 43.130730 -37.032387
v 102.321991 17.942232 -11.843919
v 102.321991 6.098331 -16.749828
v 83.336983 -30.934061 -37.032406
v 102.321991 -5.745588 -11.843926
v 83.336983 -46.273392 -0.000030
v 102.321991 -10.651489 -0.000019
vt 0.4725 0.4996
vt 0.5499 0.5306
vt 0.5687 0.5132
vt 0.5358 0.4364
vt 0.5355 0.6523
vt 0.5665 0.5747
vt 0.5489 0.5561
vt 0.4724 0.5891
vt 0.6884 0.5890
vt 0.6109 0.5580
vt 0.5921 0.5755
vt 0.6250 0.6524
vt 0.6883 0.4995
vt 0.6117 0.5324
vt 0.5943 0.5139
vt 0.6250 0.4364
vt 0.5654 0.3725
vt 0.5654 0.2831
vt 0.4879 0.3139
vt 0.4887 0.3395
vt 0.4125 0.4357
vt 0.5021 0.4358
vt 0.4711 0.3582
vt 0.4455 0.3590
vt 0.3497 0.2829
vt 0.3494 0.3723
vt 0.4268 0.3415
vt 0.4260 0.3160
vt 0.4127 0.2200
vt 0.4437 0.2975
vt 0.5021 0.2199
vt 0.4693 0.2965
vt 0.3488 0.0841
vt 0.3488 0.0003
vt 0.0003 0.0003
vt 0.0003 0.0841
vt 0.3488 0.6708
vt 0.3488 0.5870
vt 0.0003 0.5870
vt 0.0003 0.6708
vt 0.3488 0.5031
vt 0.0003 0.5031
vt 0.3488 0.4193
vt 0.0003 0.4193
vt 0.3488 0.3355
vt 0.0003 0.3355
vt 0.3488 0.2517
vt 0.0003 0.2517
vt 0.3488 0.1679
vt 0.0003 0.1679
vn -0.8662 -0.1912 0.4617
vn -0.8662 0.4617 0.1912
vn -0.8662 0.1912 -0.4617
vn -0.8662 -0.1912 -0.4617
vn -0.8662 -0.4617 0.1912
vn -0.8662 0.1912 0.4617
vn -0.8662 0.4617 -0.1912
vn -0.8662 -0.4617 -0.1912
vn -1.0000 0.0000 -0.0000
vn 0.8662 -0.1912 0.4617
vn 0.8662 0.4617 0.1912
vn 0.8662 0.1912 -0.4617
vn 0.8662 -0.1912 -0.4617
vn 0.8662 -0.4617 0.1912
vn 0.8662 0.1912 0.4617
vn 0.8662 0.4617 -0.1912
vn 0.8662 -0.4617 -0.1912
vn 1.0000 0.0000 -0.0000
vn 0.0000 -0.3827 -0.9239
vn 0.0000 0.3827 -0.9239
vn 0.0000 0.9239 -0.3827
vn 0.0000 0.9239 0.3827
vn 0.0000 0.3827 0.9239
vn 0.0000 -0.3827 0.9239
vn 0.0000 -0.9239 0.3827
vn 0.0000 -0.9239 -0.3827
usemtl maskB
s 1
f 5/5/2 6/6/2 7/7/2 8/8/2
f 9/9/3 10/10/3 11/11/3 12/12/3
f 13/13/4 14/14/4 15/15/4 16/16/4
f 17/17/5 18/18/5 14/14/5 13/13/5
f 8/8/6 7/7/6 19/19/6 20/20/6
f 12/12/7 11/11/7 6/6/7 5/5/7
f 16/16/8 15/15/8 10/10/8 9/9/8
f 20/20/9 19/19/9 18/18/9 17/17/9
f 15/15/10 14/14/10 18/18/10 19/19/10 7/7/10 6/6/10 11/11/10 10/10/10
f 21/21/11 22/22/11 23/23/11 24/24/11
f 25/25/12 26/26/12 27/27/12 28/28/12
f 29/29/13 30/30/13 31/31/13 32/32/13
f 33/33/14 29/29/14 32/32/14 34/34/14
f 22/22/15 35/35/15 36/36/15 23/23/15
f 26/26/16 21/21/16 24/24/16 27/27/16
f 30/30/17 25/25/17 28/28/17 31/31/17
f 35/35/18 33/33/18 34/34/18 36/36/18
f 31/31/19 28/28/19 27/27/19 24/24/19 23/23/19 36/36/19 34/34/19 32/32/19
f 17/37/20 13/38/20 29/39/20 33/40/20
f 13/41/21 16/42/21 30/43/21 29/44/21
f 16/42/22 9/45/22 25/46/22 30/43/22
f 9/45/23 12/47/23 26/48/23 25/46/23
f 12/47/24 5/49/24 21/50/24 26/48/24
f 5/49/25 8/51/25 22/52/25 21/50/25
f 8/51/26 20/53/26 35/54/26 22/52/26
f 20/53/27 17/37/27 33/40/27 35/54/27
o headdress_d_R
v -44.659744 118.102051 -1.999991
v -59.733192 118.102051 -1.999995
v -59.733192 65.289421 -2.000017
v -44.659744 65.289421 -2.000012
vt 0.7449 0.9933
vt 0.7764 0.9933
vt 0.7764 0.8828
vt 0.7449 0.8828
vn -0.0000 -0.0000 1.0000
usemtl maskB
s 1
f 37/55/28 38/56/28 39/57/28 40/58/28
o foot_R
v -128.604401 -63.334862 132.411133
v -119.254517 -59.900887 129.238953
v -128.604401 -56.466892 126.066788
v -137.954285 -60.029198 129.105453
v -128.604401 15.135986 -1.875355
v -137.954285 11.830293 -5.181041
v -137.954285 30.430958 -23.823618
v -128.604401 34.750034 -22.034594
v -119.254517 11.830293 -5.181038
v -119.254517 30.430958 -23.823618
v -137.954285 30.414610 -76.528053
v -128.604401 34.537548 -78.731804
v -119.254517 30.414610 -76.528061
v -137.954285 -35.247189 -120.378235
v -128.604401 -35.247189 -125.053177
v -119.254517 -35.247189 -120.378235
v -137.954285 -100.866562 -76.591560
v -128.604401 -104.480362 -79.557320
v -119.254517 -100.866562 -76.591568
v -137.954285 -131.015808 -3.804893
v -128.604401 -135.668243 -4.263118
v -119.254517 -131.015808 -3.804893
v -128.604401 -119.768784 75.668793
v -137.954285 -115.645889 73.465050
v -119.254517 -115.645889 73.465050
vt 0.0181 0.7003
vt 0.0126 0.6811
vt 0.0003 0.7005
vt 0.0130 0.7196
vt 0.9997 0.7018
vt 0.9994 0.7215
vt 0.9499 0.7207
vt 0.9496 0.7018
vt 0.9994 0.6822
vt 0.9499 0.6829
vt 0.8492 0.7228
vt 0.8489 0.7017
vt 0.8492 0.6806
vt 0.6803 0.7259
vt 0.6802 0.7015
vt 0.6803 0.6772
vt 0.5028 0.7241
vt 0.5030 0.7007
vt 0.5030 0.6785
vt 0.3339 0.7234
vt 0.3341 0.7006
vt 0.3342 0.6779
vt 0.1652 0.7005
vt 0.1650 0.7228
vt 0.1652 0.6772
vn -0.0099 0.6785 0.7345
vn 0.4340 -0.6419 -0.6322
vn -0.4340 -0.6419 -0.6322
vn 0.4115 -0.9114 0.0019
vn -0.4115 -0.9114 0.0019
vn 0.3938 -0.5094 0.7652
vn -0.3938 -0.5094 0.7652
vn 0.4084 0.5039 0.7611
vn -0.4084 0.5039 0.7611
vn 0.4316 0.8334 0.3452
vn -0.4316 0.8334 0.3452
vn -0.4316 -0.8847 0.1760
vn 0.4316 -0.8847 0.1760
vn -0.4395 -0.6361 0.6342
vn 0.4394 -0.6361 0.6342
usemtl maskB
s 1
f 41/59/29 42/60/29 43/61/29 44/62/29
f 45/63/30 46/64/30 47/65/30 48/66/30
f 49/67/31 45/63/31 48/66/31 50/68/31
f 48/66/32 47/65/32 51/69/32 52/70/32
f 50/68/33 48/66/33 52/70/33 53/71/33
f 52/70/34 51/69/34 54/72/34 55/73/34
f 53/71/35 52/70/35 55/73/35 56/74/35
f 55/73/36 54/72/36 57/75/36 58/76/36
f 56/74/37 55/73/37 58/76/37 59/77/37
f 58/76/38 57/75/38 60/78/38 61/79/38
f 59/77/39 58/76/39 61/79/39 62/80/39
f 61/79/40 63/81/40 64/82/40 60/78/40
f 62/80/41 65/83/41 63/81/41 61/79/41
f 63/81/42 41/59/42 44/62/42 64/82/42
f 65/83/43 42/60/43 41/59/43 63/81/43
o horn_L
v 135.027618 6.086042 9.077198
v 135.027618 -2.978897 0.012257
v 135.027618 17.496693 -20.463326
v 135.027618 26.561647 -11.398383
v 102.321999 6.098327 9.064928
v 102.321991 -2.966614 -0.000016
v 102.321991 15.163269 -0.000006
v 122.181175 15.169846 -0.006605
v 102.321991 6.098330 -9.064945
v 122.181175 6.104920 -9.071542
v 122.181175 17.496693 -20.463324
v 122.181175 26.561647 -11.398383
vt 0.3000 0.7330
vt 0.2732 0.7330
vt 0.2732 0.7935
vt 0.3000 0.7935
vt 0.0861 0.8403
vt 0.0861 0.8135
vt 0.0177 0.8135
vt 0.0177 0.8403
vt 0.0861 0.7599
vt 0.0861 0.7331
vt 0.0177 0.7330
vt 0.0446 0.7599
vt 0.0861 0.7867
vt 0.0446 0.7867
vt 0.4391 0.7556
vt 0.4659 0.7556
vt 0.4659 0.7288
vt 0.4391 0.7288
vt 0.2195 0.7598
vt 0.1926 0.7330
vt 0.1926 0.7935
vt 0.2195 0.7935
vt 0.2463 0.7598
vt 0.2463 0.7935
vn 1.0000 -0.0000 0.0000
vn -0.0005 -0.7071 0.7071
vn 0.0000 0.7071 0.7071
vn -0.0000 -0.7071 -0.7071
vn -0.0005 0.7071 -0.7071
vn -0.0000 0.7071 -0.7071
vn -1.0000 0.0000 0.0000
usemtl maskB
s 1
f 66/84/44 67/85/44 68/86/44 69/87/44
f 70/88/45 71/89/45 67/90/45 66/91/45
f 72/92/46 70/93/46 66/94/46 73/95/46
f 71/89/47 74/96/47 75/97/47 67/90/47
f 74/96/48 72/92/48 73/95/48 75/97/48
f 68/98/49 76/99/49 77/100/49 69/101/49
f 73/102/46 66/103/46 69/104/46 77/105/46
f 67/85/47 75/106/47 76/107/47 68/86/47
f 75/106/50 73/102/50 77/105/50 76/107/50
o headdress_b_R
v -10.160505 287.564270 -0.999940
v -59.021244 287.564270 -0.999948
v -59.021240 96.731094 -1.000006
v -10.160505 96.731094 -0.999997
vt 0.8885 0.6632
vt 0.9907 0.6632
vt 0.9907 0.2642
vt 0.8885 0.2642
vn -0.0000 -0.0000 1.0000
usemtl maskB
s 1
f 78/108/51 79/109/51 80/110/51 81/111/51
o inside_head
v 83.336983 -46.273392 -0.000008
v 83.336983 58.470032 0.000010
v -83.336983 58.470032 0.000010
v -83.336983 -46.273392 -0.000008
vt 0.3494 0.0003
vt 0.3494 0.2193
vt 0.6979 0.2193
vt 0.6979 0.0003
vn 0.0000 -0.0000 1.0000
usemtl maskB
s 1
f 82/112/52 83/113/52 84/114/52 85/115/52
o headdress_c_L
v 0.000000 153.199677 0.000038
v 0.000000 65.932564 -0.000002
v 33.915886 65.932564 -0.000011
v 33.915897 153.199677 0.000030
vt 0.7933 0.9933
vt 0.7933 0.8108
vt 0.8642 0.8108
vt 0.8642 0.9933
vn 0.0000 -0.0000 1.0000
usemtl maskB
s 1
f 86/116/53 87/117/53 88/118/53 89/119/53
o horn_R
v -135.027618 6.086042 9.077198
v -135.027618 26.561647 -11.398383
v -135.027618 17.496693 -20.463326
v -135.027618 -2.978897 0.012257
v -102.321999 6.098327 9.064928
v -102.321991 -2.966614 -0.000016
v -102.321991 15.163269 -0.000006
v -122.181175 15.169846 -0.006605
v -122.181175 6.104920 -9.071542
v -102.321991 6.098330 -9.064945
v -122.181175 26.561647 -11.398383
v -122.181175 17.496693 -20.463324
vt 0.3000 0.7330
vt 0.3000 0.7935
vt 0.2732 0.7935
vt 0.2732 0.7330
vt 0.0861 0.8403
vt 0.0177 0.8403
vt 0.0177 0.8135
vt 0.0861 0.8135
vt 0.0861 0.7599
vt 0.0446 0.7599
vt 0.0177 0.7330
vt 0.0861 0.7331
vt 0.0446 0.7867
vt 0.0861 0.7867
vt 0.4391 0.7556
vt 0.4391 0.7288
vt 0.4659 0.7288
vt 0.4659 0.7556
vt 0.2195 0.7598
vt 0.2195 0.7935
vt 0.1926 0.7935
vt 0.1926 0.7330
vt 0.2463 0.7935
vt 0.2463 0.7598
vn -1.0000 0.0000 0.0000
vn 0.0005 -0.7071 0.7071
vn -0.0000 0.7071 0.7071
vn 0.0000 -0.7071 -0.7071
vn 0.0005 0.7071 -0.7071
vn 0.0000 0.7071 -0.7071
vn 1.0000 0.0000 0.0000
usemtl maskB
s 1
f 90/120/54 91/121/54 92/122/54 93/123/54
f 94/124/55 90/125/55 93/126/55 95/127/55
f 96/128/56 97/129/56 90/130/56 94/131/56
f 95/127/57 93/126/57 98/132/57 99/133/57
f 99/133/58 98/132/58 97/129/58 96/128/58
f 92/134/59 91/135/59 100/136/59 101/137/59
f 97/138/56 100/139/56 91/140/56 90/141/56
f 93/123/57 92/122/57 101/142/57 98/143/57
f 98/143/60 101/142/60 100/139/60 97/138/60
o foot_L
v 128.604401 -63.334862 132.411133
v 137.954285 -60.029198 129.105453
v 128.604401 -56.466892 126.066788
v 119.254517 -59.900887 129.238953
v 128.604401 15.135986 -1.875355
v 128.604401 34.750034 -22.034594
v 137.954285 30.430958 -23.823618
v 137.954285 11.830293 -5.181041
v 119.254517 11.830293 -5.181038
v 119.254517 30.430958 -23.823618
v 128.604401 34.537548 -78.731804
v 137.954285 30.414610 -76.528053
v 119.254517 30.414610 -76.528061
v 128.604401 -35.247189 -125.053177
v 137.954285 -35.247189 -120.378235
v 119.254517 -35.247189 -120.378235
v 128.604401 -104.480362 -79.557320
v 137.954285 -100.866562 -76.591560
v 119.254517 -100.866562 -76.591568
v 128.604401 -135.668243 -4.263118
v 137.954285 -131.015808 -3.804893
v 119.254517 -131.015808 -3.804893
v 137.954285 -115.645889 73.465050
v 128.604401 -119.768784 75.668793
v 119.254517 -115.645889 73.465050
vt 0.0181 0.7003
vt 0.0130 0.7196
vt 0.0003 0.7005
vt 0.0126 0.6811
vt 0.9997 0.7018
vt 0.9496 0.7018
vt 0.9499 0.7207
vt 0.9994 0.7215
vt 0.9994 0.6822
vt 0.9499 0.6829
vt 0.8489 0.7017
vt 0.8492 0.7228
vt 0.8492 0.6806
vt 0.6802 0.7015
vt 0.6803 0.7259
vt 0.6803 0.6772
vt 0.5030 0.7007
vt 0.5028 0.7241
vt 0.5030 0.6785
vt 0.3341 0.7006
vt 0.3339 0.7234
vt 0.3342 0.6779
vt 0.1650 0.7228
vt 0.1652 0.7005
vt 0.1652 0.6772
vn 0.0099 0.6785 0.7345
vn -0.4340 -0.6419 -0.6322
vn 0.4340 -0.6419 -0.6322
vn -0.4115 -0.9114 0.0019
vn 0.4115 -0.9114 0.0019
vn -0.3938 -0.5094 0.7652
vn 0.3938 -0.5094 0.7652
vn -0.4084 0.5039 0.7611
vn 0.4084 0.5039 0.7611
vn -0.4316 0.8334 0.3452
vn 0.4316 0.8334 0.3452
vn 0.4316 -0.8847 0.1760
vn -0.4316 -0.8847 0.1760
vn 0.4395 -0.6361 0.6342
vn -0.4394 -0.6361 0.6342
usemtl maskB
s 1
f 102/144/61 103/145/61 104/146/61 105/147/61
f 106/148/62 107/149/62 108/150/62 109/151/62
f 110/152/63 111/153/63 107/149/63 106/148/63
f 107/149/64 112/154/64 113/155/64 108/150/64
f 111/153/65 114/156/65 112/154/65 107/149/65
f 112/154/66 115/157/66 116/158/66 113/155/66
f 114/156/67 117/159/67 115/157/67 112/154/67
f 115/157/68 118/160/68 119/161/68 116/158/68
f 117/159/69 120/162/69 118/160/69 115/157/69
f 118/160/70 121/163/70 122/164/70 119/161/70
f 120/162/71 123/165/71 121/163/71 118/160/71
f 121/163/72 122/164/72 124/166/72 125/167/72
f 123/165/73 121/163/73 125/167/73 126/168/73
f 125/167/74 124/166/74 103/145/74 102/144/74
f 126/168/75 125/167/75 102/144/75 105/147/75
o headdress_a_L
v 0.000000 318.802765 0.000065
v 0.000000 197.926178 0.000019
v 51.942787 197.926178 0.000010
v 51.942802 318.802765 0.000057
vt 0.8821 0.9933
vt 0.8821 0.7405
vt 0.9907 0.7405
vt 0.9907 0.9933
vn 0.0000 -0.0000 1.0000
usemtl maskB
s 1
f 127/169/76 128/170/76 129/171/76 130/172/76
o headdress_b_L
v 10.160505 287.564270 -0.999940
v 10.160505 96.731094 -0.999997
v 59.021240 96.731094 -1.000006
v 59.021244 287.564270 -0.999948
vt 0.8885 0.6632
vt 0.8885 0.2642
vt 0.9907 0.2642
vt 0.9907 0.6632
vn 0.0000 -0.0000 1.0000
usemtl maskB
s 1
f 131/173/77 132/174/77 133/175/77 134/176/77
o headdress_c_R
v 0.000000 153.199677 0.000038
v -33.915897 153.199677 0.000030
v -33.915886 65.932564 -0.000011
v 0.000000 65.932564 -0.000002
vt 0.7933 0.9933
vt 0.8642 0.9933
vt 0.8642 0.8108
vt 0.7933 0.8108
vn -0.0000 -0.0000 1.0000
usemtl maskB
s 1
f 135/177/78 136/178/78 137/179/78 138/180/78
o headdress_a_R
v 0.000000 318.802765 0.000065
v -51.942802 318.802765 0.000057
v -51.942787 197.926178 0.000010
v 0.000000 197.926178 0.000019
vt 0.8821 0.9933
vt 0.9907 0.9933
vt 0.9907 0.7405
vt 0.8821 0.7405
vn -0.0000 -0.0000 1.0000
usemtl maskB
s 1
f 139/181/79 140/182/79 141/183/79 142/184/79
o spiral_tube
v -50.655407 91.061790 0.000017
v -41.305523 86.386848 0.000016
v -41.305523 62.870888 -56.772552
v -50.655407 66.176590 -60.078236
v -60.005291 86.386848 0.000016
v -60.005291 62.870888 -56.772552
v 50.655407 -53.979923 -60.078270
v 50.655415 -78.865143 -0.000004
v 41.305523 -74.190216 -0.000003
v 41.305523 -50.674232 -56.772572
v 60.005291 -50.674232 -56.772572
v 60.005291 -74.190216 -0.000009
v -50.655407 -78.865143 -0.000004
v -41.305523 -74.190216 -0.000003
v -41.305523 -50.674248 56.772545
v -50.655407 -53.979946 60.078228
v -60.005291 -74.190216 -0.000003
v -60.005291 -50.674248 56.772545
v -41.305523 6.098284 80.288521
v -50.655407 6.098283 84.963463
v -60.005291 6.098284 80.288521
v -41.305523 62.870872 56.772575
v -50.655407 66.176552 60.078259
v -60.005291 62.870872 56.772575
v 35.849964 66.176590 -60.078236
v 45.199852 62.870903 -56.772552
v 9.269664 6.098341 -80.288528
v -0.080222 6.098342 -84.963470
v 26.500078 62.870903 -56.772552
v -9.430108 6.098341 -80.288528
v -26.489573 -50.674232 -56.772583
v -35.839455 -53.979923 -60.078270
v -45.189335 -50.674232 -56.772583
v 50.655415 -53.979946 60.078228
v 41.305531 -50.674248 56.772545
v 60.005291 -50.674248 56.772545
v 50.655415 6.098283 84.963463
v 41.305527 6.098284 80.288521
v 60.005302 6.098284 80.288521
v 50.655415 66.176552 60.078259
v 41.305531 62.870872 56.772575
v 60.005291 62.870872 56.772575
v 50.655415 91.061790 0.000017
v 41.305531 86.386848 0.000016
v 60.005291 86.386848 0.000016
vt 0.7975 0.5143
vt 0.8186 0.5143
vt 0.8209 0.6469
vt 0.7988 0.6511
vt 0.7753 0.5142
vt 0.7742 0.6470
vt 0.8563 0.0003
vt 0.8550 0.1371
vt 0.8327 0.1372
vt 0.8317 0.0044
vt 0.8784 0.0045
vt 0.8761 0.1371
vt 0.7964 0.0003
vt 0.8209 0.0044
vt 0.8199 0.1372
vt 0.7976 0.1371
vt 0.7742 0.0045
vt 0.7766 0.1371
vt 0.8195 0.2630
vt 0.7978 0.2629
vt 0.7762 0.2627
vt 0.8190 0.3887
vt 0.7974 0.3885
vt 0.7757 0.3884
vt 0.7184 0.4312
vt 0.6984 0.4389
vt 0.7107 0.2946
vt 0.7306 0.2866
vt 0.7384 0.4228
vt 0.7506 0.2785
vt 0.7226 0.1505
vt 0.7426 0.1421
vt 0.7626 0.1344
vt 0.6984 0.0176
vt 0.7195 0.0047
vt 0.7415 0.0003
vt 0.8548 0.2629
vt 0.8332 0.2630
vt 0.8765 0.2627
vt 0.8553 0.3885
vt 0.8337 0.3887
vt 0.8770 0.3884
vt 0.8551 0.5143
vt 0.8340 0.5143
vt 0.8774 0.5142
vt 0.8539 0.6511
vt 0.8317 0.6469
vt 0.8784 0.6470
vt 0.7416 0.5685
vt 0.7196 0.5730
vt 0.7626 0.5557
vn 0.4194 0.8387 -0.3474
vn -0.4194 0.8387 -0.3474
vn -0.4194 -0.8387 -0.3474
vn 0.4194 -0.8387 -0.3474
vn 0.4194 -0.8387 0.3474
vn -0.4194 -0.8387 0.3474
vn 0.4194 -0.3474 0.8387
vn -0.4194 -0.3474 0.8387
vn 0.4194 0.3474 0.8387
vn -0.4194 0.3474 0.8387
vn 0.4194 0.8387 0.3474
vn -0.4194 0.8387 0.3474
vn 0.4079 0.1238 -0.9046
vn -0.4079 0.5521 -0.7272
vn 0.4080 -0.5512 -0.7278
vn -0.4080 -0.1249 -0.9044
vn 0.4173 -0.8721 -0.2554
vn -0.4173 -0.7973 -0.4361
vn 0.4174 0.7973 -0.4360
vn -0.4174 0.8721 -0.2555
usemtl maskB
s 1
f 143/185/80 144/186/80 145/187/80 146/188/80
f 147/189/81 143/185/81 146/188/81 148/190/81
f 149/191/82 150/192/82 151/193/82 152/194/82
f 153/195/83 154/196/83 150/192/83 149/191/83
f 155/197/84 156/198/84 157/199/84 158/200/84
f 159/201/85 155/197/85 158/200/85 160/202/85
f 158/200/86 157/199/86 161/203/86 162/204/86
f 160/202/87 158/200/87 162/204/87 163/205/87
f 162/204/88 161/203/88 164/206/88 165/207/88
f 163/205/89 162/204/89 165/207/89 166/208/89
f 165/207/90 164/206/90 144/186/90 143/185/90
f 166/208/91 165/207/91 143/185/91 147/189/91
f 167/209/92 168/210/92 169/211/92 170/212/92
f 171/213/93 167/209/93 170/212/93 172/214/93
f 170/212/94 169/211/94 173/215/94 174/216/94
f 172/214/95 170/212/95 174/216/95 175/217/95
f 174/216/96 173/215/96 156/218/96 155/219/96
f 175/217/97 174/216/97 155/219/97 159/220/97
f 150/192/85 176/221/85 177/222/85 151/193/85
f 154/196/84 178/223/84 176/221/84 150/192/84
f 176/221/87 179/224/87 180/225/87 177/222/87
f 178/223/86 181/226/86 179/224/86 176/221/86
f 179/224/89 182/227/89 183/228/89 180/225/89
f 181/226/88 184/229/88 182/227/88 179/224/88
f 182/227/91 185/230/91 186/231/91 183/228/91
f 184/229/90 187/232/90 185/230/90 182/227/90
f 185/233/98 187/234/98 168/210/98 167/209/98
f 171/213/99 186/235/99 185/233/99 167/209/99
o Cube
v 1.000000 -1.000000 -1.000000
v 1.000000 -1.000000 1.000000
v -1.000000 -1.000000 1.000000
v -1.000000 -1.000000 -1.000000
v 1.000000 1.000000 -0.999999
v 0.999999 1.000000 1.000001
v -1.000000 1.000000 1.000000
v -1.000000 1.000000 -1.000000
vn 0.0000 -1.0000 0.0000
vn 0.0000 1.0000 0.0000
vn 1.0000 0.0000 0.0000
vn -0.0000 -0.0000 1.0000
vn -1.0000 -0.0000 -0.0000
vn 0.0000 0.0000 -1.0000
usemtl Material
s off
f 188//100 189//100 190//100 191//100
f 192//101 195//101 194//101 193//101
f 188//102 192//102 193//102 189//102
f 189//103 193//103 194//103 190//103
f 190//104 194//104 195//104 191//104
f 192//105 188//105 191//105 195//105
