# Blender v2.78 (sub 0) OBJ File: ''
# www.blender.org
mtllib maskB_1.mtl
o head
v -83.336998 6.098294 52.371696
v -102.321999 6.098322 16.749807
v -102.321999 -5.745594 11.843888
v -83.336998 -30.934093 37.032356
v -83.336983 58.470032 0.000017
v -102.321991 22.848145 -0.000006
v -102.321999 17.942226 11.843903
v -83.336998 43.130692 37.032398
v -83.336967 6.098346 -52.371719
v -102.321991 6.098334 -16.749826
v -102.321991 17.942234 -11.843916
v -83.336983 43.130737 -37.032379
v -83.336983 -30.934055 -37.032410
v -102.321991 -5.745586 -11.843927
v -102.321991 -10.651489 -0.000021
v -83.336983 -46.273392 -0.000038
v 83.336998 6.098294 52.371696
v 83.336998 -30.934093 37.032356
v 102.321999 -5.745594 11.843888
v 102.321999 6.098322 16.749807
v 83.336983 58.470032 0.000017
v 83.336998 43.130692 37.032398
v 102.321999 17.942226 11.843903
v 102.321991 22.848145 -0.000006
v 83.336967 6.098346 -52.371719
v 83.336983 43.130737 -37.032379
v 102.321991 17.942234 -11.843916
v 102.321991 6.098334 -16.749826
v 83.336983 -30.934055 -37.032410
v 102.321991 -5.745586 -11.843927
v 83.336983 -46.273392 -0.000038
v 102.321991 -10.651489 -0.000021
vt 0.4725 0.4996
vt 0.5499 0.5306
vt 0.5687 0.5132
vt 0.5358 0.4364
vt 0.5355 0.6523
vt 0.5665 0.5747
vt 0.5489 0.5561
vt 0.4724 0.5891
vt 0.6884 0.5890
vt 0.6109 0.5580
vt 0.5921 0.5755
vt 0.6250 0.6524
vt 0.6883 0.4995
vt 0.6117 0.5324
vt 0.5943 0.5139
vt 0.6250 0.4364
vt 0.5654 0.3725
vt 0.5654 0.2831
vt 0.4879 0.3139
vt 0.4887 0.3395
vt 0.4125 0.4357
vt 0.5021 0.4358
vt 0.4711 0.3582
vt 0.4455 0.3590
vt 0.3497 0.2829
vt 0.3494 0.3723
vt 0.4268 0.3415
vt 0.4260 0.3160
vt 0.4127 0.2200
vt 0.4437 0.2975
vt 0.5021 0.2199
vt 0.4693 0.2965
vt 0.3488 0.0841
vt 0.3488 0.0003
vt 0.0003 0.0003
vt 0.0003 0.0841
vt 0.3488 0.6708
vt 0.3488 0.5870
vt 0.0003 0.5870
vt 0.0003 0.6708
vt 0.3488 0.5031
vt 0.0003 0.5031
vt 0.3488 0.4193
vt 0.0003 0.4193
vt 0.3488 0.3355
vt 0.0003 0.3355
vt 0.3488 0.2517
vt 0.0003 0.2517
vt 0.3488 0.1679
vt 0.0003 0.1679
vn -0.8662 -0.1912 0.4617
vn -0.8662 0.4617 0.1912
vn -0.8662 0.1912 -0.4617
vn -0.8662 -0.1912 -0.4617
vn -0.8662 -0.4617 0.1912
vn -0.8662 0.1912 0.4617
vn -0.8662 0.4617 -0.1912
vn -0.8662 -0.4617 -0.1912
vn -1.0000 0.0000 -0.0000
vn 0.8662 -0.1912 0.4617
vn 0.8662 0.4617 0.1912
vn 0.8662 0.1912 -0.4617
vn 0.8662 -0.1912 -0.4617
vn 0.8662 -0.4617 0.1912
vn 0.8662 0.1912 0.4617
vn 0.8662 0.4617 -0.1912
vn 0.8662 -0.4617 -0.1912
vn 1.0000 0.0000 -0.0000
vn 0.0000 -0.3827 -0.9239
vn 0.0000 0.3827 -0.9239
vn 0.0000 0.9239 -0.3827
vn 0.0000 0.9239 0.3827
vn 0.0000 0.3827 0.9239
vn 0.0000 -0.3827 0.9239
vn 0.0000 -0.9239 0.3827
vn 0.0000 -0.9239 -0.3827
usemtl maskB
s 1
f 1/1/1 2/2/1 3/3/1 4/4/1
f 5/5/2 6/6/2 7/7/2 8/8/2
f 9/9/3 10/10/3 11/11/3 12/12/3
f 13/13/4 14/14/4 10/10/4 9/9/4
f 4/4/5 3/3/5 15/15/5 16/16/5
f 8/8/6 7/7/6 2/2/6 1/1/6
f 12/12/7 11/11/7 6/6/7 5/5/7
f 16/16/8 15/15/8 14/14/8 13/13/8
f 11/11/9 10/10/9 14/14/9 15/15/9 3/3/9 2/2/9 7/7/9 6/6/9
f 17/17/10 18/18/10 19/19/10 20/20/10
f 21/21/11 22/22/11 23/23/11 24/24/11
f 25/25/12 26/26/12 27/27/12 28/28/12
f 29/29/13 25/25/13 28/28/13 30/30/13
f 18/18/14 31/31/14 32/32/14 19/19/14
f 22/22/15 17/17/15 20/20/15 23/23/15
f 26/26/16 21/21/16 24/24/16 27/27/16
f 31/31/17 29/29/17 30/30/17 32/32/17
f 27/27/18 24/24/18 23/23/18 20/20/18 19/19/18 32/32/18 30/30/18 28/28/18
f 13/33/19 9/34/19 25/35/19 29/36/19
f 9/37/20 12/38/20 26/39/20 25/40/20
f 12/38/21 5/41/21 21/42/21 26/39/21
f 5/41/22 8/43/22 22/44/22 21/42/22
f 8/43/23 1/45/23 17/46/23 22/44/23
f 1/45/24 4/47/24 18/48/24 17/46/24
f 4/47/25 16/49/25 31/50/25 18/48/25
f 16/49/26 13/33/26 29/36/26 31/50/26
