# This file uses centimeters as units for non-parametric coordinates.

mtllib dream_3.mtl
g default
v -0.000033 -115.840157 127.632759
v 93.199120 -22.641062 127.632759
v 42.363239 -22.641045 127.632790
v -0.000015 -65.004265 127.632782
v 0.000033 70.558083 127.632790
v 0.000015 19.722208 127.632774
v -93.199120 -22.640997 127.632759
v -42.363232 -22.641014 127.632790
vt 0.147300 0.726700
vt 0.279600 0.859000
vt 0.207400 0.859000
vt 0.147300 0.798800
vt 0.147300 0.991200
vt 0.147300 0.919100
vt 0.015000 0.859000
vt 0.087200 0.859000
vn 0.000000 -0.000000 1.000000
vn 0.000000 -0.000000 1.000000
vn 0.000000 -0.000000 1.000000
vn 0.000000 -0.000000 1.000000
vn 0.000000 -0.000000 1.000000
vn 0.000000 -0.000000 1.000000
vn 0.000000 -0.000000 1.000000
vn 0.000000 -0.000000 1.000000
vn 0.000000 -0.000000 1.000000
vn 0.000000 -0.000000 1.000000
vn 0.000000 -0.000000 1.000000
vn 0.000000 -0.000000 1.000000
vn 0.000000 -0.000000 1.000000
vn 0.000000 -0.000000 1.000000
vn 0.000000 -0.000000 1.000000
vn 0.000000 -0.000000 1.000000
vn 0.000000 -0.000000 1.000000
vn 0.000000 -0.000000 1.000000
vn 0.000000 -0.000000 1.000000
vn 0.000000 -0.000000 1.000000
s off
g dream_3:Mesh
usemtl dream_3:Material_001
f 1/1/1 2/2/2 3/3/3 4/4/4
f 2/2/5 5/5/6 6/6/7 3/3/8
f 7/7/9 1/1/10 4/4/11 8/8/12
f 5/5/13 7/7/14 8/8/15 6/6/16
f 4/4/17 3/3/18 6/6/19 8/8/20
