# Blender v2.78 (sub 0) OBJ File: ''
# www.blender.org
mtllib dream_4.mtl
o head_cover
v 0.000000 144.129395 5.975845
v 41.764439 152.423294 -27.334295
v 35.205719 176.688629 -29.231676
v -35.205719 176.688629 -29.231676
v -41.764439 152.423294 -27.334295
v 33.919418 188.992645 -44.491196
v 0.000000 188.992645 -44.491196
v 0.000000 144.129395 5.975845
v -33.919418 188.992645 -44.491196
v 0.000000 46.777622 110.600853
v 112.239853 27.633228 62.602394
v 87.999786 93.184013 35.524094
v 0.000000 87.502342 86.478561
v 41.764439 152.423294 -27.334295
v 0.000000 144.129395 5.975845
v -87.999786 93.184013 35.524094
v -112.239853 27.633228 62.602394
v -41.764439 152.423294 -27.334295
vt 0.1798 0.6399
vt 0.2443 0.6805
vt 0.2251 0.7104
vt 0.1344 0.7104
vt 0.1153 0.6805
vt 0.4503 0.4687
vt 0.4062 0.4686
vt 0.4062 0.3808
vt 0.4520 0.4432
vt 0.3620 0.4687
vt 0.3604 0.4432
vt 0.1798 0.4579
vt 0.3351 0.4314
vt 0.3029 0.5554
vt 0.1798 0.5145
vt 0.2443 0.6805
vt 0.1798 0.6399
vt 0.0567 0.5554
vt 0.0245 0.4314
vt 0.1153 0.6805
vn 0.5816 0.2185 0.7836
vn -0.5816 0.2185 0.7836
vn -0.0209 0.7542 0.6564
vn 0.0209 0.7542 0.6564
vn 0.4163 0.4699 0.7784
vn 0.2723 0.7894 0.5502
vn -0.4163 0.4699 0.7784
vn -0.2723 0.7894 0.5502
usemtl Material.001
s 1
f 1/1/1 2/2/1 3/3/1
f 1/1/2 4/4/2 5/5/2
f 6/6/3 7/7/3 8/8/3 3/9/3
f 9/10/4 4/11/4 8/8/4 7/7/4
f 10/12/5 11/13/5 12/14/5 13/15/5
f 13/15/6 12/14/6 14/16/6 15/17/6
f 10/12/7 13/15/7 16/18/7 17/19/7
f 13/15/8 15/17/8 18/20/8 16/18/8
