# Blender v2.78 (sub 0) OBJ File: ''
# www.blender.org
mtllib dream_1.mtl
o horn_L
v 83.380493 -14.175389 -83.356491
v 83.380493 67.568787 -83.356483
v 83.380493 76.697350 -104.063400
v 83.380493 5.159611 -104.063416
v 131.904587 57.398060 -108.169960
v 133.167007 -8.817703 -104.382721
v 120.001289 47.201828 -88.779976
v 152.701828 16.071524 -39.006420
v 201.265350 14.255919 -70.271881
v 121.263702 -27.456205 -84.992744
v 191.057678 -39.059345 27.532999
v 243.373932 -69.679367 31.501255
v 202.898087 -43.786121 -67.747047
v 153.122635 -50.039322 -36.481606
v 195.265747 -84.368477 25.849771
v 186.286255 -114.380348 87.436661
v 181.125092 -87.850952 91.322662
v 243.115372 -107.097473 31.984755
v 210.006668 -110.633980 102.632141
v 117.745247 -131.325317 155.010437
v 134.671753 -144.725327 166.710007
v 215.109329 -134.836197 98.737305
v 49.498394 -144.474014 160.194550
v 53.857357 -148.265350 167.854492
v 135.074387 -158.476959 166.058014
v 117.863747 -149.056961 155.187042
v 53.857357 -158.918655 167.854492
v 49.498394 -154.221237 160.194550
vt 0.7049 0.9052
vt 0.7576 0.9655
vt 0.7482 0.9856
vt 0.7021 0.9329
vt 0.6680 0.0081
vt 0.7476 0.0302
vt 0.7112 0.0706
vt 0.6402 0.0641
vt 0.7331 0.0832
vt 0.7280 0.1572
vt 0.6674 0.1433
vt 0.9305 0.3702
vt 0.9955 0.4040
vt 0.9970 0.4454
vt 0.9255 0.4093
vt 0.6534 0.9189
vt 0.6673 0.8937
vt 0.7648 0.0486
vt 0.6893 0.2627
vt 0.6219 0.2787
vt 0.6064 0.1582
vt 0.9339 0.3093
vt 0.9919 0.3382
vt 0.5867 0.8672
vt 0.6379 0.8402
vt 0.9739 0.2474
vt 0.9336 0.2283
vt 0.9365 0.1606
vt 0.9620 0.1690
vt 0.5838 0.2984
vt 0.5521 0.7499
vt 0.6011 0.7680
vt 0.6327 0.3768
vt 0.6780 0.3627
vt 0.7075 0.4762
vt 0.6808 0.4834
vt 0.5835 0.6807
vt 0.6134 0.7014
vt 0.6055 0.3896
vt 0.7648 0.5366
vt 0.7544 0.5416
vt 0.6699 0.4950
vt 0.9573 0.0625
vt 0.9721 0.0717
vt 0.6642 0.6134
vt 0.6811 0.6274
vt 0.7438 0.6114
vt 0.7542 0.6118
vt 0.7576 0.6205
vt 0.7481 0.6202
vt 0.7470 0.5517
vt 0.9889 0.0030
vt 0.9970 0.0081
vn -1.0000 0.0000 0.0000
vn -0.0544 -0.0279 -0.9981
vn 0.2494 0.8625 0.4404
vn 0.1055 0.0249 0.9941
vn -0.2250 -0.6732 -0.7044
vn 0.4123 0.7668 0.4920
vn 0.3831 0.7937 0.4726
vn 0.4569 -0.0345 -0.8888
vn -0.8320 0.0149 0.5546
vn -0.0659 -0.8614 -0.5036
vn -0.9703 -0.1099 -0.2154
vn 0.9261 0.0014 -0.3773
vn -0.8575 -0.0317 0.5136
vn -0.2521 -0.8802 -0.4022
vn 0.2221 0.7077 0.6707
vn -0.3512 -0.8118 -0.4665
vn 0.3610 0.7189 0.5940
vn 0.9036 0.0475 0.4258
vn -0.0510 0.7183 0.6939
vn 0.6453 0.0021 0.7639
vn -0.6989 -0.0235 -0.7148
vn -0.2249 -0.7800 -0.5840
vn -0.8691 0.0000 0.4946
vn 0.0188 -0.0264 0.9995
vn -0.0735 -0.0067 -0.9973
vn 0.0021 -0.7943 -0.6076
usemtl Material.001
s 1
f 1/1/1 2/2/1 3/3/1 4/4/1
f 4/5/2 3/6/2 5/7/2 6/8/2
f 5/7/3 7/9/3 8/10/3 9/11/3
f 10/12/4 7/13/4 2/14/4 1/15/4
f 4/4/5 6/16/5 10/17/5 1/1/5
f 5/7/6 3/6/6 2/18/6 7/9/6
f 9/11/7 8/10/7 11/19/7 12/20/7
f 6/8/8 5/7/8 9/11/8 13/21/8
f 7/13/9 10/12/9 14/22/9 8/23/9
f 10/17/10 6/16/10 13/24/10 14/25/10
f 11/26/11 15/27/11 16/28/11 17/29/11
f 13/21/12 9/11/12 12/20/12 18/30/12
f 8/23/13 14/22/13 15/27/13 11/26/13
f 14/25/14 13/24/14 18/31/14 15/32/14
f 19/33/15 17/34/15 20/35/15 21/36/15
f 15/32/16 18/31/16 22/37/16 16/38/16
f 12/20/17 11/19/17 17/34/17 19/33/17
f 18/30/18 12/20/18 19/33/18 22/39/18
f 21/36/19 20/35/19 23/40/19 24/41/19
f 22/39/20 19/33/20 21/36/20 25/42/20
f 17/29/21 16/28/21 26/43/21 20/44/21
f 16/38/22 22/37/22 25/45/22 26/46/22
f 27/47/23 24/48/23 23/49/23 28/50/23
f 25/42/24 21/36/24 24/41/24 27/51/24
f 20/44/25 26/43/25 28/52/25 23/53/25
f 26/46/26 25/45/26 27/47/26 28/50/26
