# Blender v2.78 (sub 0) OBJ File: 'weapon_b.blend'
# www.blender.org
mtllib shieldb.mtl
o shield_b
v 47.700916 116.868759 16.460836
v 14.727876 137.732330 38.004837
v 47.700916 203.957840 16.460836
v 79.547295 338.795013 -28.356625
v 105.969376 208.088730 -28.356625
v 0.000000 116.868759 16.460836
v -47.700916 116.868759 16.460836
v -14.727876 137.732330 38.004837
v 0.000000 245.872726 16.460836
v 0.000000 137.732330 38.004837
v -47.700916 203.957840 16.460836
v -79.547295 338.795013 -28.356625
v 0.000000 338.795013 16.460836
v -105.969376 208.088730 -28.356625
v 0.000000 208.088730 16.460836
v 47.700916 37.896099 16.460836
v 14.727876 17.032526 38.004837
v 47.700916 -49.192982 16.460836
v 14.727876 77.382431 38.004837
v 79.547295 -184.030182 -28.356625
v 132.391464 77.382431 -28.356625
v 105.969376 -53.323872 -28.356625
v 0.000000 37.896099 16.460836
v -47.700916 37.896099 16.460836
v -14.727876 17.032526 38.004837
v 0.000000 -91.107872 16.460836
v 0.000000 17.032526 38.004837
v -47.700916 -49.192982 16.460836
v -14.727876 77.382431 38.004837
v 0.000000 77.382431 38.004837
v -79.547295 -184.030182 -28.356625
v 0.000000 -184.030182 16.460836
v -132.391464 77.382431 -28.356625
v 0.000000 77.382431 16.460836
v -105.969376 -53.323872 -28.356625
v 0.000000 -53.323872 16.460836
v 79.547295 358.795013 -13.356625
v -79.547295 358.795013 -13.356625
v 0.000000 358.795013 31.460836
v 79.547295 -204.030182 -13.356625
v -79.547295 -204.030182 -13.356625
v 0.000000 -204.030182 31.460836
vt 0.7558 0.4644
vt 0.7833 0.4644
vt 0.7833 0.5767
vt 0.7558 0.5767
vt 0.2836 0.5941
vt 0.3051 0.5937
vt 0.3622 0.7040
vt 0.2844 0.7734
vt 0.3692 0.5617
vt 0.5270 0.4967
vt 0.3684 0.4332
vt 0.4841 0.7163
vt 0.4375 0.9336
vt 0.2839 0.9282
vt 0.7578 0.2918
vt 0.7304 0.2918
vt 0.7304 0.2360
vt 0.8192 0.2360
vt 0.7284 0.5767
vt 0.7284 0.4644
vt 0.2048 0.7052
vt 0.2567 0.5937
vt 0.1970 0.5602
vt 0.0380 0.4967
vt 0.1963 0.4326
vt 0.1327 0.9364
vt 0.0825 0.7187
vt 0.7030 0.2918
vt 0.6416 0.2360
vt 0.7558 0.3521
vt 0.7833 0.3521
vt 0.2837 0.4011
vt 0.2840 0.2239
vt 0.3608 0.2925
vt 0.3050 0.4016
vt 0.2840 0.0703
vt 0.4333 0.0636
vt 0.4816 0.2790
vt 0.7578 0.0332
vt 0.8192 0.0890
vt 0.7304 0.0890
vt 0.7304 0.0332
vt 0.7284 0.3521
vt 0.2590 0.4015
vt 0.2037 0.2925
vt 0.0831 0.2790
vt 0.1313 0.0636
vt 0.7030 0.0332
vt 0.6416 0.0890
vt 0.7304 0.1625
vt 0.2835 0.9674
vt 0.1327 0.9754
vt 0.4375 0.9727
vt 0.1313 0.0246
vt 0.2840 0.0312
vt 0.4333 0.0246
vn 0.0000 0.0000 1.0000
vn 0.1423 0.2120 0.9668
vn 0.5470 0.0000 0.8371
vn 0.4677 0.0000 0.8839
vn 0.5359 0.1496 0.8309
vn 0.0000 -0.7184 0.6957
vn 0.5417 0.0657 0.8380
vn -0.1423 0.2120 0.9668
vn -0.5470 0.0000 0.8371
vn -0.4677 0.0000 0.8839
vn -0.5359 0.1496 0.8309
vn -0.5417 0.0657 0.8380
vn 0.1423 -0.2120 0.9668
vn 0.5359 -0.1496 0.8309
vn 0.0000 0.7184 0.6957
vn 0.5417 -0.0657 0.8380
vn -0.1423 -0.2120 0.9668
vn -0.5359 -0.1496 0.8309
vn -0.5417 -0.0657 0.8380
vn -0.4109 -0.5470 0.7293
vn 0.4109 -0.5470 0.7293
vn -0.4109 0.5470 0.7293
vn 0.4109 0.5470 0.7293
usemtl shield_b
s off
f 30/1/1 19/2/1 2/3/1 10/4/1
f 10/5/2 2/6/2 3/7/2 9/8/2
f 1/9/3 3/7/3 2/6/3
f 21/10/4 1/9/4 16/11/4
f 3/7/5 5/12/5 4/13/5 13/14/5
f 2/15/6 10/16/6 6/17/6 1/18/6
f 13/14/1 9/8/1 3/7/1
f 3/7/7 1/9/7 21/10/7 5/12/7
f 30/1/1 10/4/1 8/19/1 29/20/1
f 10/5/8 9/8/8 11/21/8 8/22/8
f 7/23/9 8/22/9 11/21/9
f 33/24/10 24/25/10 7/23/10
f 11/21/11 13/14/11 12/26/11 14/27/11
f 8/28/6 7/29/6 6/17/6 10/16/6
f 13/14/1 11/21/1 9/8/1
f 11/21/12 14/27/12 33/24/12 7/23/12
f 30/1/1 27/30/1 17/31/1 19/2/1
f 27/32/13 26/33/13 18/34/13 17/35/13
f 16/11/3 17/35/3 18/34/3
f 18/34/14 32/36/14 20/37/14 22/38/14
f 17/39/15 16/40/15 23/41/15 27/42/15
f 32/36/1 18/34/1 26/33/1
f 18/34/16 22/38/16 21/10/16 16/11/16
f 30/1/1 29/20/1 25/43/1 27/30/1
f 27/32/17 25/44/17 28/45/17 26/33/17
f 24/25/9 28/45/9 25/44/9
f 28/45/18 35/46/18 31/47/18 32/36/18
f 25/48/15 27/42/15 23/41/15 24/49/15
f 32/36/1 26/33/1 28/45/1
f 28/45/19 24/25/19 33/24/19 35/46/19
f 16/40/1 1/18/1 6/17/1 34/50/1 23/41/1
f 24/49/1 23/41/1 34/50/1 6/17/1 7/29/1
f 12/26/20 13/14/20 39/51/20 38/52/20
f 13/14/21 4/13/21 37/53/21 39/51/21
f 32/36/22 31/47/22 41/54/22 42/55/22
f 20/37/23 32/36/23 42/55/23 40/56/23
l 34 15
l 34 36
