# Blender v2.78 (sub 0) OBJ File: ''
# www.blender.org
mtllib memory_2.mtl
o body
v 0.000000 -53.429268 -0.000009
v 42.763397 -53.429268 -0.000009
v 59.271355 53.429260 7.352434
v 0.000000 53.429260 7.352434
v 74.344040 103.463112 -23.826359
v 0.000000 107.508759 -21.619638
v 0.000000 119.207336 -107.738960
v 82.446655 113.260857 -107.738968
v 80.279938 114.170944 -180.358673
v 0.000000 116.402985 -180.358673
v 72.046013 122.489975 -238.241943
v 0.000000 117.305496 -242.672623
v 65.155975 152.235779 -284.299744
v 0.000000 148.864395 -291.655518
v 25.760212 216.294357 -284.455292
v 65.155975 216.294357 -284.455292
v 65.155975 279.599213 -273.767212
v 25.760212 279.599213 -273.767212
v 65.155975 307.742188 -241.945358
v 25.760212 307.742188 -241.945358
v 65.155975 297.267639 -179.905228
v 25.760212 297.267639 -179.905228
v 22.817905 311.275452 -174.121109
v 22.817905 331.396515 -241.925293
v 67.730492 331.396515 -241.925293
v 67.730492 311.275452 -174.121109
v 22.817905 292.878998 -296.441040
v 67.730492 292.878998 -296.441040
v 22.817905 220.933029 -311.930054
v 73.093224 220.933029 -311.930054
v 81.675674 135.076431 -309.379059
v 91.205765 68.610237 -53.618244
v 98.828743 85.159348 -109.116768
v 96.918182 83.755104 -182.860443
v 52.465546 -48.424194 -22.306906
v 77.697670 28.870735 -27.934217
v 89.657738 96.386749 -250.230072
v 0.000000 215.775024 -291.019287
v 0.000000 220.933029 -311.930054
v 0.000000 138.396744 -305.037140
v 0.000000 102.261147 -248.186798
v 0.000000 -49.701233 -15.666260
v 0.000000 33.978905 -20.527370
v 0.000000 74.484642 -48.765476
v 0.000000 91.799965 -108.605957
v 0.000000 90.651131 -182.349625
v -67.730492 331.396515 -241.925293
v -67.730492 311.275452 -174.121109
v -22.817905 311.275452 -174.121109
v -22.817905 331.396515 -241.925293
v -91.205765 68.610237 -53.618244
v -98.828743 85.159348 -109.116768
v -52.465546 -48.424194 -22.306906
v -77.697670 28.870735 -27.934217
v -89.657738 96.386749 -250.230072
v -81.675674 135.076431 -309.379059
v -25.760212 216.294357 -284.455292
v -65.155975 216.294357 -284.455292
v -65.155975 152.235779 -284.299744
v -22.817905 220.933029 -311.930054
v -96.918182 83.755104 -182.860443
v -22.817905 292.878998 -296.441040
v -67.730492 292.878998 -296.441040
v -42.763397 -53.429268 -0.000009
v -73.093224 220.933029 -311.930054
v -65.155975 297.267639 -179.905228
v -65.155975 307.742188 -241.945358
v -25.760212 279.599213 -273.767212
v -25.760212 307.742188 -241.945358
v -25.760212 297.267639 -179.905228
v -65.155975 279.599213 -273.767212
v -82.446655 113.260857 -107.738968
v -74.344040 103.463112 -23.826359
v -72.046013 122.489975 -238.241943
v -80.279938 114.170944 -180.358673
v -59.271355 53.429260 7.352434
vt 0.3265 0.0004
vt 0.3856 0.0005
vt 0.3982 0.1191
vt 0.3265 0.1184
vt 0.4115 0.1847
vt 0.3265 0.1845
vt 0.3265 0.2778
vt 0.4163 0.2773
vt 0.4139 0.3568
vt 0.3265 0.3563
vt 0.4042 0.4208
vt 0.3265 0.4229
vt 0.3965 0.4816
vt 0.3265 0.4830
vt 0.3556 0.5579
vt 0.3989 0.5524
vt 0.4078 0.6228
vt 0.3646 0.6283
vt 0.4138 0.6694
vt 0.3706 0.6749
vt 0.4226 0.7384
vt 0.3794 0.7439
vt 0.4914 0.8777
vt 0.4424 0.9258
vt 0.4283 0.9167
vt 0.4765 0.8564
vt 0.6783 0.4758
vt 0.7330 0.5173
vt 0.7209 0.5403
vt 0.6655 0.4866
vt 0.5375 0.8827
vt 0.5493 0.8564
vt 0.7780 0.5065
vt 0.7931 0.5310
vt 0.5871 0.9321
vt 0.6087 0.9105
vt 0.8206 0.4508
vt 0.8457 0.4700
vt 0.8534 0.3891
vt 0.8911 0.3875
vt 0.7342 0.2295
vt 0.6677 0.1655
vt 0.7195 0.1531
vt 0.7581 0.2033
vt 0.7936 0.2820
vt 0.8200 0.2547
vt 0.6655 0.0997
vt 0.7284 0.0004
vt 0.7484 0.0186
vt 0.7165 0.1000
vt 0.8342 0.3320
vt 0.8663 0.3140
vt 0.3265 0.5543
vt 0.6281 0.9260
vt 0.6134 0.9444
vt 0.0716 0.5780
vt 0.0306 0.5780
vt 0.0181 0.4820
vt 0.1125 0.4811
vt 0.1125 0.5767
vt 0.0087 0.4018
vt 0.1125 0.4022
vt 0.1125 0.0022
vt 0.1125 0.0213
vt 0.0379 0.0262
vt 0.0500 0.0004
vt 0.1125 0.1172
vt 0.0174 0.1173
vt 0.1125 0.1717
vt 0.0052 0.1724
vt 0.1125 0.2411
vt 0.0004 0.2388
vt 0.1125 0.3247
vt 0.0009 0.3235
vt 0.1902 0.6924
vt 0.1903 0.7501
vt 0.1537 0.7501
vt 0.1536 0.6925
vt 0.2199 0.1724
vt 0.2247 0.2388
vt 0.1871 0.0262
vt 0.2076 0.1173
vt 0.2163 0.4018
vt 0.2069 0.4820
vt 0.2973 0.5579
vt 0.2541 0.5524
vt 0.2565 0.4816
vt 0.9595 0.5504
vt 0.9870 0.5411
vt 0.9996 0.5609
vt 0.9786 0.5743
vt 0.2242 0.3235
vt 0.1536 0.6380
vt 0.1902 0.6380
vt 0.1750 0.0004
vt 0.1535 0.5780
vt 0.1945 0.5780
vt 0.6506 0.4655
vt 0.6647 0.4746
vt 0.6166 0.5349
vt 0.6017 0.5137
vt 0.9048 0.5942
vt 0.9138 0.6216
vt 0.8414 0.6137
vt 0.8585 0.5942
vt 0.8000 0.5486
vt 0.8150 0.5411
vt 0.2824 0.6749
vt 0.2736 0.7439
vt 0.2304 0.7384
vt 0.2392 0.6694
vt 0.2883 0.6283
vt 0.2451 0.6228
vt 0.2367 0.2773
vt 0.2414 0.1847
vt 0.2488 0.4208
vt 0.2390 0.3568
vt 0.6153 0.0908
vt 0.5647 0.0977
vt 0.5227 0.0210
vt 0.5402 0.0004
vt 0.5438 0.5349
vt 0.5556 0.5086
vt 0.2747 0.7609
vt 0.2254 0.7547
vt 0.5115 0.2880
vt 0.4818 0.2643
vt 0.5366 0.2054
vt 0.5637 0.2284
vt 0.5685 0.1507
vt 0.6215 0.1564
vt 0.5063 0.4589
vt 0.4839 0.4811
vt 0.4283 0.4051
vt 0.4659 0.4019
vt 0.2547 0.1191
vt 0.2674 0.0005
vt 0.0715 0.6380
vt 0.0349 0.6380
vt 0.0714 0.6925
vt 0.0348 0.6924
vt 0.0714 0.7501
vt 0.0348 0.7501
vt 0.4776 0.3428
vt 0.4435 0.3291
vt 0.4275 0.7547
vt 0.3783 0.7609
vn 0.0000 -0.0686 0.9976
vn 0.0294 0.4968 0.8673
vn 0.0502 0.9986 -0.0138
vn -0.0216 0.9967 0.0779
vn -0.0987 0.8330 0.5444
vn 0.0000 -0.1665 0.9860
vn 0.0649 0.9896 0.1282
vn 0.0000 -0.7491 0.6625
vn 0.0000 -0.9860 -0.1665
vn -0.9882 -0.1490 -0.0351
vn 0.9909 -0.1307 -0.0308
vn -0.9908 -0.1071 0.0827
vn 0.9929 -0.0939 0.0725
vn -0.9938 -0.0211 0.1091
vn 0.9788 -0.0008 0.2049
vn 0.9104 0.0595 0.4095
vn 0.9038 0.3903 0.1757
vn 0.8699 0.4926 -0.0259
vn 0.8527 -0.1978 0.4836
vn 0.8456 0.4941 0.2019
vn 0.8530 0.5216 -0.0183
vn 0.8843 0.0141 0.4667
vn -0.1058 -0.0337 0.9938
vn -0.0376 0.9790 0.2005
vn -0.0292 -0.0575 -0.9979
vn -0.0652 -0.8406 -0.5377
vn 0.0000 -0.9744 -0.2248
vn -0.0026 -0.9744 -0.2248
vn -0.1086 -0.0477 -0.9929
vn -0.0959 -0.5440 -0.8336
vn -0.0710 -0.9558 -0.2853
vn -0.0689 -0.9975 0.0182
vn -0.0696 -0.9821 -0.1749
vn 0.0000 0.9587 0.2845
vn 0.0710 -0.9558 -0.2853
vn 0.1086 -0.0477 -0.9929
vn 0.0652 -0.8406 -0.5377
vn 0.1058 -0.0337 0.9938
vn 0.0376 0.9790 0.2005
vn 0.0696 -0.9821 -0.1749
vn 0.0689 -0.9975 0.0182
vn 0.0000 0.8167 -0.5770
vn 0.0026 -0.9744 -0.2248
vn 0.0959 -0.5440 -0.8336
vn 0.0000 0.2105 -0.9776
vn -0.9909 -0.1307 -0.0308
vn 0.9908 -0.1071 0.0827
vn 0.9882 -0.1490 -0.0351
vn -0.0649 0.9896 0.1282
vn 0.0292 -0.0575 -0.9979
vn 0.0987 0.8330 0.5444
vn -0.0502 0.9986 -0.0138
vn 0.0216 0.9967 0.0779
vn -0.8527 -0.1978 0.4836
vn -0.9929 -0.0939 0.0725
vn 0.0000 -0.3817 0.9243
vn -0.8699 0.4926 -0.0259
vn -0.9038 0.3903 0.1757
vn -0.9104 0.0595 0.4095
vn -0.9788 -0.0008 0.2049
vn 0.9938 -0.0211 0.1091
vn -0.0294 0.4968 0.8673
vn -0.8843 0.0141 0.4667
vn -0.8530 0.5216 -0.0183
vn -0.8456 0.4941 0.2019
usemtl Material.001
s 1
f 1/1/1 2/2/1 3/3/1 4/4/1
f 4/4/2 3/3/2 5/5/2 6/6/2
f 7/7/3 8/8/3 9/9/3 10/10/3
f 10/10/4 9/9/4 11/11/4 12/12/4
f 12/12/5 11/11/5 13/13/5 14/14/5
f 15/15/6 16/16/6 17/17/6 18/18/6
f 6/6/7 5/5/7 8/8/7 7/7/7
f 18/18/8 17/17/8 19/19/8 20/20/8
f 20/20/9 19/19/9 21/21/9 22/22/9
f 20/23/10 22/24/10 23/25/10 24/26/10
f 21/27/11 19/28/11 25/29/11 26/30/11
f 18/31/12 20/23/12 24/26/12 27/32/12
f 19/28/13 17/33/13 28/34/13 25/29/13
f 15/35/14 18/31/14 27/32/14 29/36/14
f 17/33/15 16/37/15 30/38/15 28/34/15
f 16/37/16 13/39/16 31/40/16 30/38/16
f 8/41/17 5/42/17 32/43/17 33/44/17
f 9/45/18 8/41/18 33/44/18 34/46/18
f 3/47/19 2/48/19 35/49/19 36/50/19
f 13/39/20 11/51/20 37/52/20 31/40/20
f 11/51/21 9/45/21 34/46/21 37/52/21
f 5/42/22 3/47/22 36/50/22 32/43/22
f 15/15/23 38/53/23 14/14/23 13/13/23 16/16/23
f 15/35/24 29/36/24 39/54/24 38/55/24
f 29/56/25 30/57/25 31/58/25 40/59/25 39/60/25
f 40/59/26 31/58/26 37/61/26 41/62/26
f 1/63/27 42/64/27 35/65/28 2/66/28
f 42/64/29 43/67/29 36/68/29 35/65/29
f 43/67/30 44/69/30 32/70/30 36/68/30
f 44/69/31 45/71/31 33/72/31 32/70/31
f 45/71/32 46/73/32 34/74/32 33/72/32
f 46/73/33 41/62/33 37/61/33 34/74/33
f 47/75/34 48/76/34 49/77/34 50/78/34
f 44/69/35 51/79/35 52/80/35 45/71/35
f 42/64/36 53/81/36 54/82/36 43/67/36
f 40/59/37 41/62/37 55/83/37 56/84/37
f 57/85/38 58/86/38 59/87/38 14/14/38 38/53/38
f 57/88/39 38/89/39 39/90/39 60/91/39
f 46/73/40 61/92/40 55/83/40 41/62/40
f 45/71/41 52/80/41 61/92/41 46/73/41
f 50/78/42 62/93/42 63/94/42 47/75/42
f 1/63/27 64/95/43 53/81/43 42/64/27
f 43/67/44 54/82/44 51/79/44 44/69/44
f 62/93/45 60/96/45 65/97/45 63/94/45
f 66/98/46 48/99/46 47/100/46 67/101/46
f 68/102/47 62/103/47 50/104/47 69/105/47
f 69/105/48 50/104/48 49/106/48 70/107/48
f 69/108/9 70/109/9 66/110/9 67/111/9
f 68/112/8 69/108/8 67/111/8 71/113/8
f 6/6/49 7/7/49 72/114/49 73/115/49
f 60/96/50 39/60/50 40/59/50 56/84/50 65/97/50
f 12/12/51 14/14/51 59/87/51 74/116/51
f 57/85/6 68/112/6 71/113/6 58/86/6
f 7/7/52 10/10/52 75/117/52 72/114/52
f 10/10/53 12/12/53 74/116/53 75/117/53
f 76/118/54 54/119/54 53/120/54 64/121/54
f 67/101/55 47/100/55 63/122/55 71/123/55
f 70/109/56 49/124/56 48/125/56 66/110/56
f 75/126/57 61/127/57 52/128/57 72/129/57
f 72/129/58 52/128/58 51/130/58 73/131/58
f 58/132/59 65/133/59 56/134/59 59/135/59
f 71/123/60 63/122/60 65/133/60 58/132/60
f 57/88/61 60/91/61 62/103/61 68/102/61
f 4/4/62 6/6/62 73/115/62 76/136/62
f 1/1/1 4/4/1 76/136/1 64/137/1
f 27/138/45 28/139/45 30/57/45 29/56/45
f 24/140/42 25/141/42 28/139/42 27/138/42
f 25/141/34 24/140/34 23/142/34 26/143/34
f 73/131/63 51/130/63 54/119/63 76/118/63
f 74/144/64 55/145/64 61/127/64 75/126/64
f 59/135/65 56/134/65 55/145/65 74/144/65
f 22/22/56 21/21/56 26/146/56 23/147/56
