# Blender v2.78 (sub 0) OBJ File: ''
# www.blender.org
mtllib maskB_3.mtl
o horn_L
v 135.027618 6.086040 9.077199
v 135.027618 -2.978897 0.012257
v 135.027618 17.496696 -20.463324
v 135.027618 26.561649 -11.398378
v 102.321999 6.098326 9.064929
v 102.321991 -2.966614 -0.000016
v 102.321991 15.163269 -0.000004
v 122.181175 15.169846 -0.006603
v 102.321991 6.098331 -9.064944
v 122.181175 6.104921 -9.071541
v 122.181175 17.496696 -20.463322
v 122.181175 26.561649 -11.398378
vt 0.3000 0.7330
vt 0.2732 0.7330
vt 0.2732 0.7935
vt 0.3000 0.7935
vt 0.0861 0.8403
vt 0.0861 0.8135
vt 0.0177 0.8135
vt 0.0177 0.8403
vt 0.0861 0.7599
vt 0.0861 0.7331
vt 0.0177 0.7330
vt 0.0446 0.7599
vt 0.0861 0.7867
vt 0.0446 0.7867
vt 0.4391 0.7556
vt 0.4659 0.7556
vt 0.4659 0.7288
vt 0.4391 0.7288
vt 0.2195 0.7598
vt 0.1926 0.7330
vt 0.1926 0.7935
vt 0.2195 0.7935
vt 0.2463 0.7598
vt 0.2463 0.7935
vn 1.0000 -0.0000 0.0000
vn -0.0005 -0.7071 0.7071
vn 0.0000 0.7071 0.7071
vn -0.0000 -0.7071 -0.7071
vn -0.0005 0.7071 -0.7071
vn -0.0000 0.7071 -0.7071
vn -1.0000 0.0000 0.0000
usemtl maskB
s 1
f 1/1/1 2/2/1 3/3/1 4/4/1
f 5/5/2 6/6/2 2/7/2 1/8/2
f 7/9/3 5/10/3 1/11/3 8/12/3
f 6/6/4 9/13/4 10/14/4 2/7/4
f 9/13/5 7/9/5 8/12/5 10/14/5
f 3/15/6 11/16/6 12/17/6 4/18/6
f 8/19/3 1/20/3 4/21/3 12/22/3
f 2/2/4 10/23/4 11/24/4 3/3/4
f 10/23/7 8/19/7 12/22/7 11/24/7
o horn_R
v -135.027618 6.086040 9.077199
v -135.027618 26.561649 -11.398378
v -135.027618 17.496696 -20.463324
v -135.027618 -2.978897 0.012257
v -102.321999 6.098326 9.064929
v -102.321991 -2.966614 -0.000016
v -102.321991 15.163269 -0.000004
v -122.181175 15.169846 -0.006603
v -122.181175 6.104921 -9.071541
v -102.321991 6.098331 -9.064944
v -122.181175 26.561649 -11.398378
v -122.181175 17.496696 -20.463322
vt 0.3000 0.7330
vt 0.3000 0.7935
vt 0.2732 0.7935
vt 0.2732 0.7330
vt 0.0861 0.8403
vt 0.0177 0.8403
vt 0.0177 0.8135
vt 0.0861 0.8135
vt 0.0861 0.7599
vt 0.0446 0.7599
vt 0.0177 0.7330
vt 0.0861 0.7331
vt 0.0446 0.7867
vt 0.0861 0.7867
vt 0.4391 0.7556
vt 0.4391 0.7288
vt 0.4659 0.7288
vt 0.4659 0.7556
vt 0.2195 0.7598
vt 0.2195 0.7935
vt 0.1926 0.7935
vt 0.1926 0.7330
vt 0.2463 0.7935
vt 0.2463 0.7598
vn -1.0000 -0.0000 0.0000
vn 0.0005 -0.7071 0.7071
vn -0.0000 0.7071 0.7071
vn 0.0000 -0.7071 -0.7071
vn 0.0005 0.7071 -0.7071
vn 0.0000 0.7071 -0.7071
vn 1.0000 0.0000 0.0000
usemtl maskB
s 1
f 13/25/8 14/26/8 15/27/8 16/28/8
f 17/29/9 13/30/9 16/31/9 18/32/9
f 19/33/10 20/34/10 13/35/10 17/36/10
f 18/32/11 16/31/11 21/37/11 22/38/11
f 22/38/12 21/37/12 20/34/12 19/33/12
f 15/39/13 14/40/13 23/41/13 24/42/13
f 20/43/10 23/44/10 14/45/10 13/46/10
f 16/28/11 15/27/11 24/47/11 21/48/11
f 21/48/14 24/47/14 23/44/14 20/43/14
o inside_head
v 83.336983 -46.273392 -0.000016
v 83.336983 58.470032 0.000020
v -83.336983 58.470032 0.000020
v -83.336983 -46.273392 -0.000016
vt 0.3494 0.0003
vt 0.3494 0.2193
vt 0.6979 0.2193
vt 0.6979 0.0003
vn 0.0000 -0.0000 1.0000
usemtl maskB
s 1
f 25/49/15 26/50/15 27/51/15 28/52/15
