# Blender v2.78 (sub 0) OBJ File: ''
# www.blender.org
mtllib maskB_4.mtl
o headdress_c_R
v 0.000000 153.199677 0.000063
v -33.915897 153.199677 0.000055
v -33.915886 65.932564 -0.000000
v 0.000000 65.932564 0.000009
vt 0.7933 0.9933
vt 0.8642 0.9933
vt 0.8642 0.8108
vt 0.7933 0.8108
vn -0.0000 -0.0000 1.0000
usemtl maskB
s 1
f 1/1/1 2/2/1 3/3/1 4/4/1
o headdress_a_R
v 0.000000 318.802765 0.000117
v -51.942802 318.802765 0.000109
v -51.942787 197.926178 0.000042
v 0.000000 197.926178 0.000051
vt 0.8821 0.9933
vt 0.9907 0.9933
vt 0.9907 0.7405
vt 0.8821 0.7405
vn -0.0000 -0.0000 1.0000
usemtl maskB
s 1
f 5/5/2 6/6/2 7/7/2 8/8/2
o headdress_a_L
v 0.000000 318.802765 0.000117
v 0.000000 197.926178 0.000051
v 51.942787 197.926178 0.000042
v 51.942802 318.802765 0.000109
vt 0.8821 0.9933
vt 0.8821 0.7405
vt 0.9907 0.7405
vt 0.9907 0.9933
vn 0.0000 -0.0000 1.0000
usemtl maskB
s 1
f 9/9/3 10/10/3 11/11/3 12/12/3
o headdress_c_L
v 0.000000 153.199677 0.000063
v 0.000000 65.932564 0.000009
v 33.915886 65.932564 -0.000000
v 33.915897 153.199677 0.000055
vt 0.7933 0.9933
vt 0.7933 0.8108
vt 0.8642 0.8108
vt 0.8642 0.9933
vn 0.0000 -0.0000 1.0000
usemtl maskB
s 1
f 13/13/4 14/14/4 15/15/4 16/16/4
o headdress_d_L
v 44.659744 118.102051 -1.999972
v 44.659744 65.289421 -2.000001
v 59.733192 65.289421 -2.000006
v 59.733192 118.102051 -1.999976
vt 0.7449 0.9933
vt 0.7449 0.8828
vt 0.7764 0.8828
vt 0.7764 0.9933
vn 0.0000 -0.0000 1.0000
usemtl maskB
s 1
f 17/17/5 18/18/5 19/19/5 20/20/5
o headdress_d_R
v -44.659744 118.102051 -1.999972
v -59.733192 118.102051 -1.999976
v -59.733192 65.289421 -2.000006
v -44.659744 65.289421 -2.000001
vt 0.7449 0.9933
vt 0.7764 0.9933
vt 0.7764 0.8828
vt 0.7449 0.8828
vn -0.0000 -0.0000 1.0000
usemtl maskB
s 1
f 21/21/6 22/22/6 23/23/6 24/24/6
o headdress_b_R
v -10.160505 287.564270 -0.999893
v -59.021244 287.564270 -0.999901
v -59.021240 96.731094 -0.999990
v -10.160505 96.731094 -0.999981
vt 0.8885 0.6632
vt 0.9907 0.6632
vt 0.9907 0.2642
vt 0.8885 0.2642
vn -0.0000 -0.0000 1.0000
usemtl maskB
s 1
f 25/25/7 26/26/7 27/27/7 28/28/7
o headdress_b_L
v 10.160505 287.564270 -0.999893
v 10.160505 96.731094 -0.999981
v 59.021240 96.731094 -0.999990
v 59.021244 287.564270 -0.999901
vt 0.8885 0.6632
vt 0.8885 0.2642
vt 0.9907 0.2642
vt 0.9907 0.6632
vn 0.0000 -0.0000 1.0000
usemtl maskB
s 1
f 29/29/8 30/30/8 31/31/8 32/32/8
