# Blender v2.78 (sub 0) OBJ File: ''
# www.blender.org
mtllib maskB_2.mtl
o foot_R
v -128.604401 -63.334885 132.411118
v -119.254517 -59.900909 129.238937
v -128.604401 -56.466911 126.066780
v -137.954285 -60.029221 129.105438
v -128.604401 15.135986 -1.875353
v -137.954285 11.830294 -5.181039
v -137.954285 30.430962 -23.823612
v -128.604401 34.750038 -22.034588
v -119.254517 11.830294 -5.181036
v -119.254517 30.430962 -23.823612
v -137.954285 30.414623 -76.528046
v -128.604401 34.537560 -78.731796
v -119.254517 30.414623 -76.528053
v -137.954285 -35.247169 -120.378242
v -128.604401 -35.247169 -125.053185
v -119.254517 -35.247169 -120.378242
v -137.954285 -100.866547 -76.591576
v -128.604401 -104.480347 -79.557335
v -119.254517 -100.866547 -76.591583
v -137.954285 -131.015808 -3.804914
v -128.604401 -135.668243 -4.263140
v -119.254517 -131.015808 -3.804914
v -128.604401 -119.768799 75.668770
v -137.954285 -115.645905 73.465034
v -119.254517 -115.645905 73.465034
vt 0.0181 0.7003
vt 0.0126 0.6811
vt 0.0003 0.7005
vt 0.0130 0.7196
vt 0.9997 0.7018
vt 0.9994 0.7215
vt 0.9499 0.7207
vt 0.9496 0.7018
vt 0.9994 0.6822
vt 0.9499 0.6829
vt 0.8492 0.7228
vt 0.8489 0.7017
vt 0.8492 0.6806
vt 0.6803 0.7259
vt 0.6802 0.7015
vt 0.6803 0.6772
vt 0.5028 0.7241
vt 0.5030 0.7007
vt 0.5030 0.6785
vt 0.3339 0.7234
vt 0.3341 0.7006
vt 0.3342 0.6779
vt 0.1652 0.7005
vt 0.1650 0.7228
vt 0.1652 0.6772
vn -0.0099 0.6785 0.7345
vn 0.4340 -0.6419 -0.6322
vn -0.4340 -0.6419 -0.6322
vn 0.4115 -0.9114 0.0019
vn -0.4115 -0.9114 0.0019
vn 0.3938 -0.5094 0.7652
vn -0.3938 -0.5094 0.7652
vn 0.4084 0.5039 0.7611
vn -0.4084 0.5039 0.7611
vn 0.4316 0.8334 0.3452
vn -0.4316 0.8334 0.3452
vn -0.4316 -0.8847 0.1760
vn 0.4316 -0.8847 0.1760
vn -0.4395 -0.6361 0.6342
vn 0.4394 -0.6361 0.6342
usemtl maskB
s 1
f 1/1/1 2/2/1 3/3/1 4/4/1
f 5/5/2 6/6/2 7/7/2 8/8/2
f 9/9/3 5/5/3 8/8/3 10/10/3
f 8/8/4 7/7/4 11/11/4 12/12/4
f 10/10/5 8/8/5 12/12/5 13/13/5
f 12/12/6 11/11/6 14/14/6 15/15/6
f 13/13/7 12/12/7 15/15/7 16/16/7
f 15/15/8 14/14/8 17/17/8 18/18/8
f 16/16/9 15/15/9 18/18/9 19/19/9
f 18/18/10 17/17/10 20/20/10 21/21/10
f 19/19/11 18/18/11 21/21/11 22/22/11
f 21/21/12 23/23/12 24/24/12 20/20/12
f 22/22/13 25/25/13 23/23/13 21/21/13
f 23/23/14 1/1/14 4/4/14 24/24/14
f 25/25/15 2/2/15 1/1/15 23/23/15
o spiral_tube
v -50.655407 91.061790 0.000032
v -41.305523 86.386848 0.000030
v -41.305523 62.870895 -56.772541
v -50.655407 66.176598 -60.078224
v -60.005291 86.386848 0.000030
v -60.005291 62.870895 -56.772541
v 50.655407 -53.979912 -60.078278
v 50.655415 -78.865143 -0.000017
v 41.305523 -74.190216 -0.000015
v 41.305523 -50.674225 -56.772579
v 60.005291 -50.674225 -56.772579
v 60.005291 -74.190216 -0.000021
v -50.655407 -78.865143 -0.000017
v -41.305523 -74.190216 -0.000015
v -41.305523 -50.674255 56.772537
v -50.655407 -53.979958 60.078220
v -60.005291 -74.190216 -0.000015
v -60.005291 -50.674255 56.772537
v -41.305523 6.098271 80.288521
v -50.655407 6.098269 84.963463
v -60.005291 6.098271 80.288521
v -41.305523 62.870865 56.772587
v -50.655407 66.176544 60.078270
v -60.005291 62.870865 56.772587
v 35.849964 66.176598 -60.078224
v 45.199852 62.870911 -56.772541
v 9.269664 6.098354 -80.288528
v -0.080222 6.098356 -84.963470
v 26.500078 62.870911 -56.772541
v -9.430108 6.098354 -80.288528
v -26.489573 -50.674225 -56.772591
v -35.839455 -53.979912 -60.078278
v -45.189335 -50.674225 -56.772591
v 50.655415 -53.979958 60.078220
v 41.305531 -50.674255 56.772537
v 60.005291 -50.674255 56.772537
v 50.655415 6.098269 84.963463
v 41.305527 6.098271 80.288521
v 60.005302 6.098271 80.288521
v 50.655415 66.176544 60.078270
v 41.305531 62.870865 56.772587
v 60.005291 62.870865 56.772587
v 50.655415 91.061790 0.000032
v 41.305531 86.386848 0.000030
v 60.005291 86.386848 0.000030
vt 0.7975 0.5143
vt 0.8186 0.5143
vt 0.8209 0.6469
vt 0.7988 0.6511
vt 0.7753 0.5142
vt 0.7742 0.6470
vt 0.8563 0.0003
vt 0.8550 0.1371
vt 0.8327 0.1372
vt 0.8317 0.0044
vt 0.8784 0.0045
vt 0.8761 0.1371
vt 0.7964 0.0003
vt 0.8209 0.0044
vt 0.8199 0.1372
vt 0.7976 0.1371
vt 0.7742 0.0045
vt 0.7766 0.1371
vt 0.8195 0.2630
vt 0.7978 0.2629
vt 0.7762 0.2627
vt 0.8190 0.3887
vt 0.7974 0.3885
vt 0.7757 0.3884
vt 0.7184 0.4312
vt 0.6984 0.4389
vt 0.7107 0.2946
vt 0.7306 0.2866
vt 0.7384 0.4228
vt 0.7506 0.2785
vt 0.7226 0.1505
vt 0.7426 0.1421
vt 0.7626 0.1344
vt 0.6984 0.0176
vt 0.7195 0.0047
vt 0.7415 0.0003
vt 0.8548 0.2629
vt 0.8332 0.2630
vt 0.8765 0.2627
vt 0.8553 0.3885
vt 0.8337 0.3887
vt 0.8770 0.3884
vt 0.8551 0.5143
vt 0.8340 0.5143
vt 0.8774 0.5142
vt 0.8539 0.6511
vt 0.8317 0.6469
vt 0.8784 0.6470
vt 0.7416 0.5685
vt 0.7196 0.5730
vt 0.7626 0.5557
vn 0.4194 0.8387 -0.3474
vn -0.4194 0.8387 -0.3474
vn -0.4194 -0.8387 -0.3474
vn 0.4194 -0.8387 -0.3474
vn 0.4194 -0.8387 0.3474
vn -0.4194 -0.8387 0.3474
vn 0.4194 -0.3474 0.8387
vn -0.4194 -0.3474 0.8387
vn 0.4194 0.3474 0.8387
vn -0.4194 0.3474 0.8387
vn 0.4194 0.8387 0.3474
vn -0.4194 0.8387 0.3474
vn 0.4079 0.1238 -0.9046
vn -0.4079 0.5521 -0.7272
vn 0.4080 -0.5512 -0.7278
vn -0.4080 -0.1249 -0.9044
vn 0.4173 -0.8721 -0.2554
vn -0.4173 -0.7973 -0.4361
vn 0.4174 0.7973 -0.4360
vn -0.4174 0.8721 -0.2555
usemtl maskB
s 1
f 26/26/16 27/27/16 28/28/16 29/29/16
f 30/30/17 26/26/17 29/29/17 31/31/17
f 32/32/18 33/33/18 34/34/18 35/35/18
f 36/36/19 37/37/19 33/33/19 32/32/19
f 38/38/20 39/39/20 40/40/20 41/41/20
f 42/42/21 38/38/21 41/41/21 43/43/21
f 41/41/22 40/40/22 44/44/22 45/45/22
f 43/43/23 41/41/23 45/45/23 46/46/23
f 45/45/24 44/44/24 47/47/24 48/48/24
f 46/46/25 45/45/25 48/48/25 49/49/25
f 48/48/26 47/47/26 27/27/26 26/26/26
f 49/49/27 48/48/27 26/26/27 30/30/27
f 50/50/28 51/51/28 52/52/28 53/53/28
f 54/54/29 50/50/29 53/53/29 55/55/29
f 53/53/30 52/52/30 56/56/30 57/57/30
f 55/55/31 53/53/31 57/57/31 58/58/31
f 57/57/32 56/56/32 39/59/32 38/60/32
f 58/58/33 57/57/33 38/60/33 42/61/33
f 33/33/21 59/62/21 60/63/21 34/34/21
f 37/37/20 61/64/20 59/62/20 33/33/20
f 59/62/23 62/65/23 63/66/23 60/63/23
f 61/64/22 64/67/22 62/65/22 59/62/22
f 62/65/25 65/68/25 66/69/25 63/66/25
f 64/67/24 67/70/24 65/68/24 62/65/24
f 65/68/27 68/71/27 69/72/27 66/69/27
f 67/70/26 70/73/26 68/71/26 65/68/26
f 68/74/34 70/75/34 51/51/34 50/50/34
f 54/54/35 69/76/35 68/74/35 50/50/35
o foot_L
v 128.604401 -63.334885 132.411118
v 137.954285 -60.029221 129.105438
v 128.604401 -56.466911 126.066780
v 119.254517 -59.900909 129.238937
v 128.604401 15.135986 -1.875353
v 128.604401 34.750038 -22.034588
v 137.954285 30.430962 -23.823612
v 137.954285 11.830294 -5.181039
v 119.254517 11.830294 -5.181036
v 119.254517 30.430962 -23.823612
v 128.604401 34.537560 -78.731796
v 137.954285 30.414623 -76.528046
v 119.254517 30.414623 -76.528053
v 128.604401 -35.247169 -125.053185
v 137.954285 -35.247169 -120.378242
v 119.254517 -35.247169 -120.378242
v 128.604401 -104.480347 -79.557335
v 137.954285 -100.866547 -76.591576
v 119.254517 -100.866547 -76.591583
v 128.604401 -135.668243 -4.263140
v 137.954285 -131.015808 -3.804914
v 119.254517 -131.015808 -3.804914
v 137.954285 -115.645905 73.465034
v 128.604401 -119.768799 75.668770
v 119.254517 -115.645905 73.465034
vt 0.0181 0.7003
vt 0.0130 0.7196
vt 0.0003 0.7005
vt 0.0126 0.6811
vt 0.9997 0.7018
vt 0.9496 0.7018
vt 0.9499 0.7207
vt 0.9994 0.7215
vt 0.9994 0.6822
vt 0.9499 0.6829
vt 0.8489 0.7017
vt 0.8492 0.7228
vt 0.8492 0.6806
vt 0.6802 0.7015
vt 0.6803 0.7259
vt 0.6803 0.6772
vt 0.5030 0.7007
vt 0.5028 0.7241
vt 0.5030 0.6785
vt 0.3341 0.7006
vt 0.3339 0.7234
vt 0.3342 0.6779
vt 0.1650 0.7228
vt 0.1652 0.7005
vt 0.1652 0.6772
vn 0.0099 0.6785 0.7345
vn -0.4340 -0.6419 -0.6322
vn 0.4340 -0.6419 -0.6322
vn -0.4115 -0.9114 0.0019
vn 0.4115 -0.9114 0.0019
vn -0.3938 -0.5094 0.7652
vn 0.3938 -0.5094 0.7652
vn -0.4084 0.5039 0.7611
vn 0.4084 0.5039 0.7611
vn -0.4316 0.8334 0.3452
vn 0.4316 0.8334 0.3452
vn 0.4316 -0.8847 0.1760
vn -0.4316 -0.8847 0.1760
vn 0.4395 -0.6361 0.6342
vn -0.4394 -0.6361 0.6342
usemtl maskB
s 1
f 71/77/36 72/78/36 73/79/36 74/80/36
f 75/81/37 76/82/37 77/83/37 78/84/37
f 79/85/38 80/86/38 76/82/38 75/81/38
f 76/82/39 81/87/39 82/88/39 77/83/39
f 80/86/40 83/89/40 81/87/40 76/82/40
f 81/87/41 84/90/41 85/91/41 82/88/41
f 83/89/42 86/92/42 84/90/42 81/87/42
f 84/90/43 87/93/43 88/94/43 85/91/43
f 86/92/44 89/95/44 87/93/44 84/90/44
f 87/93/45 90/96/45 91/97/45 88/94/45
f 89/95/46 92/98/46 90/96/46 87/93/46
f 90/96/47 91/97/47 93/99/47 94/100/47
f 92/98/48 90/96/48 94/100/48 95/101/48
f 94/100/49 93/99/49 72/78/49 71/77/49
f 95/101/50 94/100/50 71/77/50 74/80/50
