# Blender v2.78 (sub 0) OBJ File: 'weapon_a.blend'
# www.blender.org
mtllib shield_a.mtl
o tape_03
v 26.897221 -59.064880 13.962212
v 26.897221 -70.637314 10.028006
v -26.897308 -59.064880 13.962212
v -26.897308 -70.637314 10.028006
v -0.000044 -61.387711 32.785286
v -0.000044 -81.237556 26.037077
vt 0.7417 0.1326
vt 0.7417 0.0987
vt 0.7945 0.1066
vt 0.7945 0.1263
vt 0.6889 0.1263
vt 0.6889 0.1066
vn 0.5681 -0.2649 0.7791
vn -0.5681 -0.2649 0.7791
usemtl Material
s off
f 5/1/1 6/2/1 2/3/1 1/4/1
f 5/1/2 3/5/2 4/6/2 6/2/2
o tape_02
v 26.897264 221.511505 14.573309
v 26.897264 233.083939 10.639103
v -26.897264 221.511505 14.573309
v -26.897264 233.083939 10.639103
v 0.000000 223.834335 33.396385
v 0.000000 243.684189 26.648174
vt 0.7417 0.1450
vt 0.7945 0.1512
vt 0.7945 0.1710
vt 0.7417 0.1788
vt 0.6889 0.1710
vt 0.6889 0.1512
vn 0.5681 0.2649 0.7791
vn -0.5681 0.2649 0.7791
usemtl Material
s off
f 11/7/3 7/8/3 8/9/3 12/10/3
f 11/7/4 12/10/4 10/11/4 9/12/4
o tape_01
v 26.897264 253.499100 4.881169
v 26.897264 265.071533 0.946962
v -26.897264 253.499100 4.881169
v -26.897264 265.071533 0.946962
v 0.000000 255.821930 23.704243
v 0.000000 275.671783 16.956034
vt 0.7417 0.1450
vt 0.7945 0.1512
vt 0.7945 0.1710
vt 0.7417 0.1788
vt 0.6889 0.1710
vt 0.6889 0.1512
vn 0.5681 0.2649 0.7791
vn -0.5681 0.2649 0.7791
usemtl Material
s off
f 17/13/5 13/14/5 14/15/5 18/16/5
f 17/13/6 18/16/6 16/17/6 15/18/6
o shield_a
v 37.250324 215.594315 14.619933
v 104.175117 256.362610 -16.979004
v 22.528440 315.250122 -16.979004
v -37.250324 215.594315 14.619933
v -104.175117 256.362610 -16.979004
v 0.000000 215.594315 14.619933
v -22.528440 315.250122 -16.979004
v 0.000000 315.250122 -16.979004
v 37.250324 -51.265949 14.619933
v 151.738113 82.164185 -16.979004
v 104.175117 -92.034241 -16.979004
v 41.780132 82.164185 27.118044
v 22.528440 -150.921753 -16.979004
v -37.250324 -51.265949 14.619933
v -151.738113 82.164185 -16.979004
v -104.175117 -92.034241 -16.979004
v 0.000000 -51.265949 14.619933
v -41.780132 82.164185 27.118044
v 0.000000 82.164185 27.118044
v -22.528440 -150.921753 -16.979004
v 0.000000 -150.921753 -16.979004
vt 0.3245 0.6001
vt 0.3314 0.3881
vt 0.5242 0.3883
vt 0.4397 0.6750
vt 0.2650 0.6003
vt 0.2652 0.3881
vt 0.3017 0.7700
vt 0.2649 0.7700
vt 0.2055 0.6000
vt 0.0902 0.6748
vt 0.0062 0.3879
vt 0.1990 0.3880
vt 0.2280 0.7699
vt 0.3249 0.1762
vt 0.4402 0.1014
vt 0.2654 0.1759
vt 0.3024 0.0063
vt 0.2655 0.0062
vt 0.2059 0.1761
vt 0.0907 0.1011
vt 0.2287 0.0062
vn 0.3718 0.1005 0.9229
vn 0.0000 0.0933 0.9956
vn 0.2345 0.3251 0.9161
vn 0.0000 0.3023 0.9532
vn -0.3718 0.1005 0.9229
vn -0.2345 0.3251 0.9161
vn 0.3718 -0.1005 0.9229
vn 0.0000 -0.0933 0.9956
vn 0.2345 -0.3251 0.9161
vn 0.0000 -0.3023 0.9532
vn -0.3718 -0.1005 0.9229
vn -0.2345 -0.3251 0.9161
usemtl Material
s off
f 19/19/7 30/20/7 28/21/7 20/22/7
f 30/20/8 19/19/8 24/23/8 37/24/8
f 21/25/9 19/19/9 20/22/9
f 24/23/10 19/19/10 21/25/10 26/26/10
f 22/27/11 23/28/11 33/29/11 36/30/11
f 36/30/8 37/24/8 24/23/8 22/27/8
f 25/31/12 23/28/12 22/27/12
f 24/23/10 26/26/10 25/31/10 22/27/10
f 27/32/13 29/33/13 28/21/13 30/20/13
f 30/20/14 37/24/14 35/34/14 27/32/14
f 31/35/15 29/33/15 27/32/15
f 35/34/16 39/36/16 31/35/16 27/32/16
f 32/37/17 36/30/17 33/29/17 34/38/17
f 36/30/14 32/37/14 35/34/14 37/24/14
f 38/39/18 32/37/18 34/38/18
f 35/34/16 32/37/16 38/39/16 39/36/16
o stick
v 0.000000 215.594315 14.619913
v 0.000000 315.250122 -16.979025
v 0.000000 218.904556 31.742573
v 0.000000 322.535950 -0.385701
v 0.000000 381.561951 -40.396416
v 0.000000 387.937592 -22.892878
v 0.000000 -51.265949 14.619913
v 0.000000 82.164185 27.118023
v 0.000000 -150.921753 -16.979025
v 0.000000 -54.576176 31.742573
v 0.000000 82.164185 46.234360
v 0.000000 -158.207596 -0.385701
v 0.000000 -217.233597 -40.396416
v 0.000000 -223.609222 -22.892878
vt 0.5600 0.7208
vt 0.5366 0.5000
vt 0.5675 0.5000
vt 0.5876 0.7155
vt 0.6387 0.8764
vt 0.6119 0.8882
vt 0.6765 0.9835
vt 0.6482 0.9938
vt 0.5600 0.2792
vt 0.5876 0.2845
vt 0.6119 0.1118
vt 0.6387 0.1236
vt 0.6482 0.0062
vt 0.6765 0.0165
vn 1.0000 0.0000 0.0000
usemtl Material
s off
f 42/40/19 50/41/19 47/42/19 40/43/19
f 40/43/19 41/44/19 43/45/19 42/40/19
f 41/44/19 44/46/19 45/47/19 43/45/19
f 49/48/19 46/49/19 47/42/19 50/41/19
f 46/49/19 49/48/19 51/50/19 48/51/19
f 48/51/19 51/50/19 53/52/19 52/53/19
o tape_04
v 26.897264 -89.170746 4.881169
v 26.897264 -100.743179 0.946962
v -26.897264 -89.170746 4.881169
v -26.897264 -100.743179 0.946962
v 0.000000 -91.493576 23.704243
v 0.000000 -111.343422 16.956034
vt 0.7417 0.1326
vt 0.7417 0.0987
vt 0.7945 0.1066
vt 0.7945 0.1263
vt 0.6889 0.1263
vt 0.6889 0.1066
vn 0.5681 -0.2649 0.7791
vn -0.5681 -0.2649 0.7791
usemtl Material
s off
f 58/54/20 59/55/20 55/56/20 54/57/20
f 58/54/21 56/58/21 57/59/21 59/55/21
