# Blender v2.78 (sub 0) OBJ File: ''
# www.blender.org
mtllib shielda_1.mtl
o tape_04
v 0.000000 -91.493584 23.704227
v 0.000000 -111.343422 16.956015
v 26.897264 -100.743179 0.946946
v 26.897264 -89.170746 4.881155
v -26.897264 -89.170746 4.881155
v -26.897264 -100.743179 0.946946
vt 0.7417 0.1326
vt 0.7417 0.0987
vt 0.7945 0.1066
vt 0.7945 0.1263
vt 0.6889 0.1263
vt 0.6889 0.1066
vn 0.5681 -0.2649 0.7791
vn -0.5681 -0.2649 0.7791
usemtl Material.001
s 1
f 1/1/1 2/2/1 3/3/1 4/4/1
f 1/1/2 5/5/2 6/6/2 2/2/2
o tape_01
v 0.000000 255.821930 23.704285
v 26.897264 253.499100 4.881210
v 26.897264 265.071533 0.947005
v 0.000000 275.671783 16.956079
v -26.897264 265.071533 0.947005
v -26.897264 253.499100 4.881210
vt 0.7417 0.1450
vt 0.7945 0.1512
vt 0.7945 0.1710
vt 0.7417 0.1788
vt 0.6889 0.1710
vt 0.6889 0.1512
vn 0.5681 0.2649 0.7791
vn -0.5681 0.2649 0.7791
usemtl Material.001
s 1
f 7/7/3 8/8/3 9/9/3 10/10/3
f 7/7/4 10/10/4 11/11/4 12/12/4
o tape_02
v 0.000000 223.834335 33.396423
v 26.897264 221.511505 14.573345
v 26.897264 233.083939 10.639141
v 0.000000 243.684189 26.648214
v -26.897264 233.083939 10.639141
v -26.897264 221.511505 14.573345
vt 0.7417 0.1450
vt 0.7945 0.1512
vt 0.7945 0.1710
vt 0.7417 0.1788
vt 0.6889 0.1710
vt 0.6889 0.1512
vn 0.5681 0.2649 0.7791
vn -0.5681 0.2649 0.7791
usemtl Material.001
s 1
f 13/13/5 14/14/5 15/15/5 16/16/5
f 13/13/6 16/16/6 17/17/6 18/18/6
o tape_03
v -0.000044 -61.387714 32.785275
v -0.000044 -81.237564 26.037064
v 26.897221 -70.637314 10.027994
v 26.897221 -59.064884 13.962202
v -26.897308 -59.064884 13.962202
v -26.897308 -70.637314 10.027994
vt 0.7417 0.1326
vt 0.7417 0.0987
vt 0.7945 0.1066
vt 0.7945 0.1263
vt 0.6889 0.1263
vt 0.6889 0.1066
vn 0.5681 -0.2649 0.7791
vn -0.5681 -0.2649 0.7791
usemtl Material.001
s 1
f 19/19/7 20/20/7 21/21/7 22/22/7
f 19/19/8 23/23/8 24/24/8 20/20/8
