# This file uses centimeters as units for non-parametric coordinates.

mtllib touch_5.mtl
g default
v -0.021976 -16.223339 37.902695
v -0.021976 -16.223331 5.481478
v 11.440651 -11.475346 5.481479
v 11.440651 -11.475353 37.902695
v 16.188637 -0.012730 5.481481
v 16.188637 -0.012735 37.902699
v 11.440651 11.449917 5.481480
v 11.440651 11.449911 37.902695
v -0.021976 16.197887 5.481481
v -0.021976 16.197897 37.902695
v -11.484608 11.449917 5.481483
v -11.484608 11.449911 37.902695
v -16.232586 -0.012730 5.481478
v -16.232586 -0.012735 37.902699
v -0.019169 -0.012730 5.481479
v -11.484608 -11.475346 5.481479
v -11.484608 -11.475353 37.902691
v -0.021976 0.120565 37.902695
vt 0.689500 0.410100
vt 0.872200 0.410100
vt 0.872200 0.480000
vt 0.689500 0.480000
vt 0.872200 0.549900
vt 0.689500 0.549900
vt 0.872200 0.619800
vt 0.689500 0.619800
vt 0.872200 0.689800
vt 0.689500 0.689800
vt 0.872200 0.759700
vt 0.689500 0.759700
vt 0.872200 0.829600
vt 0.689500 0.829600
vt 0.630000 0.984000
vt 0.577800 0.984000
vt 0.603900 0.920900
vt 0.667000 0.947000
vt 0.872200 0.899500
vt 0.689500 0.899500
vt 0.872200 0.969400
vt 0.689500 0.969400
vt 0.444100 0.857900
vt 0.470400 0.921400
vt 0.407100 0.947000
vt 0.407100 0.894800
vt 0.496300 0.984000
vt 0.533200 0.894800
vt 0.533200 0.947000
vt 0.496300 0.857900
vt 0.444100 0.984000
vt 0.630000 0.857900
vt 0.667000 0.894800
vt 0.540900 0.894800
vt 0.577800 0.857900
vt 0.540900 0.947000
vn 0.382690 -0.923877 0.000000
vn 0.382690 -0.923877 0.000000
vn 0.382690 -0.923877 0.000000
vn 0.382690 -0.923877 0.000000
vn 0.923877 -0.382690 0.000000
vn 0.923877 -0.382690 0.000000
vn 0.923877 -0.382690 0.000000
vn 0.923877 -0.382690 0.000000
vn 0.923877 0.382690 0.000000
vn 0.923877 0.382690 0.000000
vn 0.923877 0.382690 0.000000
vn 0.923877 0.382690 0.000000
vn 0.382690 0.923877 0.000000
vn 0.382690 0.923877 0.000000
vn 0.382690 0.923877 0.000000
vn 0.382690 0.923877 0.000000
vn -0.382690 0.923877 0.000000
vn -0.382690 0.923877 0.000000
vn -0.382690 0.923877 0.000000
vn -0.382690 0.923877 0.000000
vn -0.923877 0.382690 0.000000
vn -0.923877 0.382690 0.000000
vn -0.923877 0.382690 0.000000
vn -0.923877 0.382690 0.000000
vn 0.000000 0.000000 -1.000000
vn 0.000000 0.000000 -1.000000
vn 0.000000 0.000000 -1.000000
vn 0.000000 0.000000 -1.000000
vn -0.923877 -0.382690 0.000000
vn -0.923877 -0.382690 0.000000
vn -0.923877 -0.382690 0.000000
vn -0.923877 -0.382690 0.000000
vn -0.382690 -0.923877 0.000000
vn -0.382690 -0.923877 0.000000
vn -0.382690 -0.923877 0.000000
vn -0.382690 -0.923877 0.000000
vn 0.000000 0.000000 1.000000
vn 0.000000 0.000000 1.000000
vn 0.000000 0.000000 1.000000
vn 0.000000 0.000000 1.000000
vn 0.000000 0.000000 1.000000
vn 0.000000 0.000000 1.000000
vn 0.000000 0.000000 1.000000
vn 0.000000 0.000000 1.000000
vn 0.000000 0.000000 1.000000
vn 0.000000 0.000000 1.000000
vn 0.000000 0.000000 1.000000
vn 0.000000 0.000000 1.000000
vn 0.000000 0.000000 1.000000
vn 0.000000 0.000000 1.000000
vn 0.000000 0.000000 1.000000
vn 0.000000 0.000000 1.000000
vn 0.000000 0.000000 -1.000000
vn 0.000000 0.000000 -1.000000
vn 0.000000 0.000000 -1.000000
vn 0.000000 0.000000 -1.000000
vn 0.000000 0.000000 -1.000000
vn 0.000000 0.000000 -1.000000
vn 0.000000 0.000000 -1.000000
vn 0.000000 0.000000 -1.000000
vn 0.000000 0.000000 -1.000000
vn 0.000000 0.000000 -1.000000
vn 0.000000 0.000000 -1.000000
vn 0.000000 0.000000 -1.000000
s off
g touch_1:Mesh
usemtl touch_1:touch
f 1/1/1 2/2/2 3/3/3 4/4/4
f 4/4/5 3/3/6 5/5/7 6/6/8
f 6/6/9 5/5/10 7/7/11 8/8/12
f 8/8/13 7/7/14 9/9/15 10/10/16
f 10/10/17 9/9/18 11/11/19 12/12/20
f 12/12/21 11/11/22 13/13/23 14/14/24
f 3/15/25 2/16/26 15/17/27 5/18/28
f 14/14/29 13/13/30 16/19/31 17/20/32
f 17/20/33 16/19/34 2/21/35 1/22/36
f 1/23/37 18/24/38 14/25/39 17/26/40
f 10/27/41 18/24/42 6/28/43 8/29/44
f 6/28/45 18/24/46 1/23/47 4/30/48
f 14/25/49 18/24/50 10/27/51 12/31/52
f 5/18/53 15/17/54 9/32/55 7/33/56
f 9/32/57 15/17/58 13/34/59 11/35/60
f 15/17/61 2/16/62 16/36/63 13/34/64
