# Blender v2.78 (sub 0) OBJ File: ''
# www.blender.org
mtllib smell_3.mtl
o nasal_bridge
v 8.919724 147.918274 -4.779504
v -8.919724 147.918274 -4.779504
v -15.147887 122.603798 11.491194
v 15.147887 122.603798 11.491194
v 0.000000 157.126556 -23.584545
v 18.147436 69.811394 22.601654
v 18.147436 63.909492 6.444983
v 15.147887 121.099373 2.388887
v 8.919724 146.471710 -9.009857
v -15.147887 121.099373 2.388887
v -18.147436 63.909492 6.444983
v -18.147436 69.811394 22.601654
v -8.919724 146.471710 -9.009857
vt 0.1033 0.9465
vt 0.0673 0.9445
vt 0.0546 0.8838
vt 0.1169 0.8868
vt 0.0834 0.9998
vt 0.1326 0.7656
vt 0.1731 0.7653
vt 0.1367 0.8955
vt 0.1100 0.9541
vt 0.0349 0.8922
vt 0.0002 0.7653
vt 0.0396 0.7658
vt 0.0601 0.9517
vn 0.0000 0.5407 0.8412
vn 0.0000 0.8981 0.4398
vn 0.9985 0.0523 -0.0153
vn 0.9757 0.2139 -0.0474
vn 0.8564 0.4885 -0.1670
vn -0.9985 0.0523 -0.0153
vn -0.9757 0.2139 -0.0474
vn -0.8564 0.4885 -0.1670
vn 0.0000 0.2059 0.9786
usemtl None
s 1
f 1/1/1 2/2/1 3/3/1 4/4/1
f 5/5/2 2/2/2 1/1/2
f 4/4/3 6/6/3 7/7/3 8/8/3
f 1/1/4 4/4/4 8/8/4 9/9/4
f 1/1/5 9/9/5 5/5/5
f 3/3/6 10/10/6 11/11/6 12/12/6
f 2/2/7 13/13/7 10/10/7 3/3/7
f 2/2/8 5/5/8 13/13/8
f 4/4/9 3/3/9 12/12/9 6/6/9
