# Blender v2.78 (sub 0) OBJ File: ''
# www.blender.org
mtllib faces_3.mtl
o head
v 25.563353 196.331543 102.628555
v 7.088356 109.542358 113.284904
v 42.313740 109.558426 112.540512
v 38.889477 196.331543 103.132454
v 0.000000 196.331543 102.628555
v 0.000000 109.567139 113.281868
v 0.000000 -69.056007 135.213989
v 7.088356 -69.056007 135.213989
v 0.000000 -97.980675 138.476349
v 20.483131 -97.980675 138.476349
v 51.544109 -97.980675 137.900711
v 50.495602 -69.056007 135.019974
v 6.089068 95.932365 88.576111
v 30.377689 95.932365 79.735779
v 30.036346 -31.424665 78.797935
v 6.089068 -31.424665 87.514030
v 20.483131 -106.257133 130.743027
v 49.058666 -106.257133 131.072006
v 0.000000 -106.257133 130.743027
v 20.483131 -139.066330 130.743027
v 49.058666 -139.066330 131.072006
v 0.000000 -139.066330 130.743027
v 87.939301 196.331543 61.316971
v 80.636421 109.542358 81.355713
v 107.142143 109.558434 58.143040
v 98.471619 196.331543 53.137123
v 68.356644 196.331543 77.748779
v 75.204475 109.567139 85.909683
v 89.302193 -69.056000 102.710678
v 94.732193 -69.056000 98.154366
v 91.399200 -97.980667 105.209785
v 107.090187 -97.980667 92.043480
v 130.514267 -97.980667 71.636902
v 127.859352 -69.055992 70.104103
v 63.788696 95.932373 63.240852
v 76.712418 95.932373 40.856350
v 75.848099 -31.424658 40.357319
v 63.106014 -31.424662 62.427242
v 102.119308 -106.257126 86.119408
v 124.220901 -106.257118 68.003433
v 86.428322 -106.257126 99.285721
v 102.119308 -139.066330 86.119400
v 124.220901 -139.066330 68.003426
v 86.428322 -139.066330 99.285713
v 48.773983 196.331543 94.180588
v 69.776436 109.542358 90.468330
v 83.872200 -69.056000 107.266991
v 75.708214 -97.980675 118.376091
v 54.666298 95.932365 70.895447
v 53.983620 -31.424664 70.081841
v 70.737328 -106.257126 112.452026
v 70.737328 -139.066330 112.452019
v 100.289436 196.331558 39.925945
v 113.992065 109.542366 23.582075
v 104.728462 196.331558 14.750964
v 115.219940 109.567154 16.600878
v 135.588028 -69.055992 27.389999
v 136.818909 -69.055984 20.409328
v 136.474838 -97.980659 41.147778
v 140.031708 -97.980652 20.975830
v 89.636116 95.932381 18.471840
v 88.590187 -31.424656 18.287394
v 128.859009 -106.257118 39.804890
v 132.415878 -106.257111 19.632952
v 128.859009 -139.066315 39.804886
v 132.415878 -139.066315 19.632946
v -25.563353 196.331543 102.628555
v -38.889477 196.331543 103.132454
v -42.313740 109.558426 112.540512
v -7.088356 109.542358 113.284904
v -7.088356 -69.056007 135.213989
v -20.483131 -97.980675 138.476349
v -50.495602 -69.056007 135.019974
v -51.544109 -97.980675 137.900711
v -30.107990 95.932365 79.735779
v -5.819372 95.932365 88.576111
v -5.819372 -31.424665 87.514030
v -29.766647 -31.424665 78.797935
v -49.058666 -106.257133 131.072006
v -20.483131 -106.257133 130.743027
v -49.058666 -139.066330 131.072006
v -20.483131 -139.066330 130.743027
v -87.939301 196.331543 61.316971
v -98.471619 196.331543 53.137123
v -107.142143 109.558434 58.143040
v -80.636421 109.542358 81.355713
v -68.356644 196.331543 77.748779
v -75.204475 109.567139 85.909683
v -94.732193 -69.056000 98.154366
v -89.302193 -69.056000 102.710678
v -107.090187 -97.980667 92.043480
v -91.399200 -97.980667 105.209785
v -127.859352 -69.055992 70.104103
v -130.514267 -97.980667 71.636902
v -76.442711 95.932373 40.856350
v -63.519001 95.932373 63.240852
v -62.836323 -31.424662 62.427242
v -75.578400 -31.424658 40.357319
v -124.220901 -106.257118 68.003433
v -102.119308 -106.257126 86.119408
v -86.428322 -106.257126 99.285721
v -124.220901 -139.066330 68.003426
v -102.119308 -139.066330 86.119400
v -86.428322 -139.066330 99.285713
v -48.773983 196.331543 94.180588
v -69.776436 109.542358 90.468330
v -83.872200 -69.056000 107.266991
v -75.708214 -97.980675 118.376091
v -54.396610 95.932365 70.895447
v -53.713928 -31.424664 70.081841
v -70.737328 -106.257126 112.452026
v -70.737328 -139.066330 112.452019
v -100.289436 196.331558 39.925945
v -113.992065 109.542366 23.582075
v -104.728462 196.331558 14.750964
v -115.219940 109.567154 16.600878
v -136.818909 -69.055984 20.409328
v -135.588028 -69.055992 27.389999
v -140.031708 -97.980652 20.975830
v -136.474838 -97.980659 41.147778
v -89.366417 95.932381 18.471840
v -88.320488 -31.424656 18.287394
v -128.859009 -106.257118 39.804890
v -132.415878 -106.257111 19.632952
v -128.859009 -139.066315 39.804886
v -132.415878 -139.066315 19.632946
vt 0.5486 0.7787
vt 0.5067 0.5570
vt 0.5927 0.5769
vt 0.5842 0.7791
vt 0.4907 0.7768
vt 0.4909 0.5572
vt 0.4888 0.1848
vt 0.5032 0.1850
vt 0.4887 0.1144
vt 0.5364 0.1138
vt 0.6067 0.1164
vt 0.6050 0.1743
vt 0.5544 0.4991
vt 0.5956 0.5019
vt 0.6011 0.3038
vt 0.5581 0.3061
vt 0.5371 0.0877
vt 0.6075 0.0906
vt 0.4887 0.0874
vt 0.5385 0.0079
vt 0.6099 0.0094
vt 0.4885 0.0079
vt 0.7351 0.7915
vt 0.7123 0.5668
vt 0.7977 0.5929
vt 0.7706 0.7952
vt 0.6777 0.7848
vt 0.6964 0.5657
vt 0.7206 0.1920
vt 0.7350 0.1932
vt 0.7248 0.1214
vt 0.7725 0.1238
vt 0.8426 0.1305
vt 0.8374 0.1882
vt 0.7639 0.5119
vt 0.8055 0.5166
vt 0.8252 0.3178
vt 0.7827 0.3183
vt 0.7747 0.0976
vt 0.8449 0.1047
vt 0.7264 0.0945
vt 0.7810 0.0181
vt 0.8520 0.0238
vt 0.7311 0.0150
vt 0.6197 0.7817
vt 0.6806 0.5643
vt 0.7061 0.1914
vt 0.6771 0.1181
vt 0.6368 0.5030
vt 0.6430 0.3095
vt 0.6780 0.0919
vt 0.6812 0.0122
vt 0.8059 0.8010
vt 0.8891 0.5863
vt 0.8633 0.8098
vt 0.9051 0.5891
vt 0.9374 0.2113
vt 0.9519 0.2128
vt 0.9129 0.1362
vt 0.9605 0.1424
vt 0.8476 0.5197
vt 0.8678 0.3252
vt 0.9154 0.1100
vt 0.9639 0.1155
vt 0.9229 0.0305
vt 0.9726 0.0360
vt 0.4328 0.7785
vt 0.3972 0.7789
vt 0.3886 0.5766
vt 0.4750 0.5571
vt 0.4743 0.1851
vt 0.4410 0.1140
vt 0.3728 0.1745
vt 0.3708 0.1167
vt 0.3862 0.5013
vt 0.4272 0.4993
vt 0.4199 0.3067
vt 0.3778 0.3038
vt 0.3700 0.0910
vt 0.4403 0.0878
vt 0.3673 0.0099
vt 0.4385 0.0081
vt 0.2465 0.7913
vt 0.2110 0.7950
vt 0.1834 0.5928
vt 0.2690 0.5661
vt 0.3038 0.7845
vt 0.2849 0.5650
vt 0.2432 0.1937
vt 0.2576 0.1924
vt 0.2055 0.1247
vt 0.2531 0.1221
vt 0.1412 0.1893
vt 0.1357 0.1317
vt 0.1754 0.5161
vt 0.2167 0.5111
vt 0.1967 0.3188
vt 0.1544 0.3185
vt 0.1333 0.1061
vt 0.2032 0.0987
vt 0.2514 0.0953
vt 0.1258 0.0254
vt 0.1966 0.0194
vt 0.2463 0.0161
vt 0.3617 0.7815
vt 0.3008 0.5636
vt 0.2720 0.1917
vt 0.3006 0.1186
vt 0.3447 0.5017
vt 0.3352 0.3089
vt 0.2996 0.0925
vt 0.2961 0.0130
vt 0.1758 0.8008
vt 0.0921 0.5867
vt 0.1185 0.8098
vt 0.0762 0.5895
vt 0.0273 0.2144
vt 0.0418 0.2128
vt 0.0183 0.1443
vt 0.0657 0.1378
vt 0.1335 0.5194
vt 0.1121 0.3262
vt 0.0631 0.1118
vt 0.0148 0.1175
vt 0.0552 0.0326
vt 0.0057 0.0382
vn 0.0004 0.1215 0.9926
vn 0.0039 0.1163 0.9932
vn 0.0049 0.1144 0.9934
vn 0.0000 0.1219 0.9925
vn 0.0000 0.1170 0.9931
vn 0.0091 0.1086 0.9940
vn 0.0000 0.1121 0.9937
vn 0.0012 0.1116 0.9937
vn 0.0103 0.1081 0.9941
vn 0.0670 -0.9075 0.4147
vn 0.0760 0.8150 0.5745
vn 0.9996 -0.0019 -0.0282
vn 0.0031 -0.6608 0.7506
vn 0.0000 -0.6827 0.7307
vn -0.0115 0.0000 0.9999
vn -0.0058 0.0000 1.0000
vn 0.0000 0.0000 1.0000
vn 0.6383 0.1214 0.7602
vn 0.6414 0.1163 0.7583
vn 0.6423 0.1144 0.7579
vn 0.6380 0.1219 0.7603
vn 0.6384 0.1170 0.7608
vn 0.6459 0.1086 0.7556
vn 0.6387 0.1121 0.7612
vn 0.6397 0.1116 0.7605
vn 0.6469 0.1081 0.7549
vn 0.3175 -0.9077 0.2743
vn 0.4273 0.8151 0.3911
vn 0.7426 -0.0024 -0.6697
vn 0.4848 -0.6608 0.5730
vn 0.4697 -0.6827 0.5597
vn 0.6339 -0.0000 0.7734
vn 0.6384 -0.0000 0.7697
vn 0.6428 -0.0000 0.7660
vn 0.6379 0.1214 0.7605
vn 0.6348 0.1144 0.7641
vn 0.6356 0.1161 0.7632
vn 0.6314 0.1117 0.7674
vn 0.6378 0.1116 0.7621
vn 0.6311 0.1081 0.7681
vn 0.2152 -0.9075 0.3608
vn 0.3111 0.8149 0.4890
vn -0.7840 -0.0019 0.6208
vn 0.4801 -0.6608 0.5770
vn 0.6516 -0.0000 0.7586
vn 0.6472 -0.0000 0.7623
vn 0.9775 0.1215 0.1727
vn 0.9775 0.1144 0.1773
vn 0.9774 0.1163 0.1763
vn 0.9775 0.1219 0.1724
vn 0.9769 0.1118 0.1820
vn 0.9780 0.1170 0.1725
vn 0.9784 0.1116 0.1738
vn 0.9786 0.1121 0.1726
vn 0.9772 0.1081 0.1827
vn 0.3953 -0.9082 0.1375
vn 0.5516 0.8157 0.1743
vn -0.1958 -0.0015 0.9806
vn 0.7386 -0.6608 0.1334
vn 0.7196 -0.6827 0.1269
vn 0.9867 -0.0000 0.1623
vn 0.9858 -0.0000 0.1680
vn 0.9848 -0.0000 0.1736
vn -0.0004 0.1215 0.9926
vn -0.0049 0.1144 0.9934
vn -0.0039 0.1162 0.9932
vn -0.0097 0.1117 0.9937
vn -0.0012 0.1116 0.9937
vn -0.0103 0.1081 0.9941
vn -0.0669 -0.9077 0.4142
vn -0.0760 0.8151 0.5743
vn -0.9994 -0.0024 -0.0358
vn -0.0031 -0.6608 0.7506
vn 0.0115 0.0000 0.9999
vn 0.0058 0.0000 1.0000
vn -0.6383 0.1214 0.7602
vn -0.6423 0.1144 0.7579
vn -0.6414 0.1163 0.7583
vn -0.6380 0.1219 0.7603
vn -0.6461 0.1118 0.7550
vn -0.6384 0.1170 0.7608
vn -0.6397 0.1116 0.7605
vn -0.6387 0.1121 0.7612
vn -0.6469 0.1081 0.7549
vn -0.3157 -0.9088 0.2727
vn -0.4263 0.8161 0.3901
vn -0.7389 -0.0028 -0.6739
vn -0.4848 -0.6608 0.5730
vn -0.4697 -0.6827 0.5597
vn -0.6339 -0.0000 0.7734
vn -0.6384 -0.0000 0.7697
vn -0.6428 -0.0000 0.7660
vn -0.6379 0.1214 0.7605
vn -0.6356 0.1161 0.7632
vn -0.6348 0.1144 0.7641
vn -0.6320 0.1086 0.7673
vn -0.6378 0.1116 0.7621
vn -0.6311 0.1081 0.7681
vn -0.2144 -0.9082 0.3594
vn -0.3105 0.8157 0.4881
vn 0.7803 -0.0015 0.6254
vn -0.4801 -0.6608 0.5770
vn -0.6516 0.0000 0.7586
vn -0.6472 -0.0000 0.7623
vn -0.9775 0.1215 0.1727
vn -0.9774 0.1163 0.1763
vn -0.9775 0.1144 0.1773
vn -0.9775 0.1219 0.1724
vn -0.9774 0.1086 0.1815
vn -0.9786 0.1121 0.1726
vn -0.9784 0.1116 0.1738
vn -0.9772 0.1081 0.1827
vn -0.3925 -0.9096 0.1365
vn -0.5499 0.8170 0.1737
vn 0.1944 -0.0014 0.9809
vn -0.7386 -0.6608 0.1334
vn -0.7196 -0.6827 0.1269
vn -0.9867 0.0000 0.1623
vn -0.9858 0.0000 0.1680
vn -0.9848 0.0000 0.1736
usemtl Material.001
s 1
f 1/1/1 2/2/2 3/3/3 4/4/3
f 5/5/4 6/6/4 2/2/2 1/1/1
f 2/2/2 6/6/4 7/7/5 8/8/4
f 8/8/6 7/7/5 9/9/7 10/10/8
f 8/8/6 10/10/8 11/11/9 12/12/9
f 3/3/10 2/2/10 13/13/10 14/14/10
f 8/8/11 12/12/11 15/15/11 16/16/11
f 2/2/12 8/8/12 16/16/12 13/13/12
f 11/11/13 10/10/13 17/17/13 18/18/13
f 10/10/14 9/9/14 19/19/14 17/17/14
f 18/18/15 17/17/16 20/20/16 21/21/15
f 17/17/16 19/19/17 22/22/17 20/20/16
f 23/23/18 24/24/19 25/25/20 26/26/20
f 27/27/21 28/28/21 24/24/19 23/23/18
f 24/24/19 28/28/21 29/29/22 30/30/21
f 30/30/23 29/29/22 31/31/24 32/32/25
f 30/30/23 32/32/25 33/33/26 34/34/26
f 25/25/27 24/24/27 35/35/27 36/36/27
f 30/30/28 34/34/28 37/37/28 38/38/28
f 24/24/29 30/30/29 38/38/29 35/35/29
f 33/33/30 32/32/30 39/39/30 40/40/30
f 32/32/31 31/31/31 41/41/31 39/39/31
f 40/40/32 39/39/33 42/42/33 43/43/32
f 39/39/33 41/41/34 44/44/34 42/42/33
f 45/45/35 4/4/36 3/3/36 46/46/37
f 27/27/21 45/45/35 46/46/37 28/28/21
f 46/46/37 47/47/38 29/29/22 28/28/21
f 47/47/38 48/48/39 31/31/24 29/29/22
f 47/47/38 12/12/40 11/11/40 48/48/39
f 3/3/41 14/14/41 49/49/41 46/46/41
f 47/47/42 50/50/42 15/15/42 12/12/42
f 46/46/43 49/49/43 50/50/43 47/47/43
f 11/11/44 18/18/44 51/51/44 48/48/44
f 48/48/31 51/51/31 41/41/31 31/31/31
f 18/18/45 21/21/45 52/52/46 51/51/46
f 51/51/46 52/52/46 44/44/34 41/41/34
f 53/53/47 26/26/48 25/25/48 54/54/49
f 55/55/50 53/53/47 54/54/49 56/56/50
f 54/54/49 57/57/51 58/58/52 56/56/50
f 57/57/51 59/59/53 60/60/54 58/58/52
f 57/57/51 34/34/55 33/33/55 59/59/53
f 25/25/56 36/36/56 61/61/56 54/54/56
f 57/57/57 62/62/57 37/37/57 34/34/57
f 54/54/58 61/61/58 62/62/58 57/57/58
f 33/33/59 40/40/59 63/63/59 59/59/59
f 59/59/60 63/63/60 64/64/60 60/60/60
f 40/40/61 43/43/61 65/65/62 63/63/62
f 63/63/62 65/65/62 66/66/63 64/64/63
f 67/67/64 68/68/65 69/69/65 70/70/66
f 5/5/4 67/67/64 70/70/66 6/6/4
f 70/70/66 71/71/67 7/7/5 6/6/4
f 71/71/67 72/72/68 9/9/7 7/7/5
f 71/71/67 73/73/69 74/74/69 72/72/68
f 69/69/70 75/75/70 76/76/70 70/70/70
f 71/71/71 77/77/71 78/78/71 73/73/71
f 70/70/72 76/76/72 77/77/72 71/71/72
f 74/74/73 79/79/73 80/80/73 72/72/73
f 72/72/14 80/80/14 19/19/14 9/9/14
f 79/79/74 81/81/74 82/82/75 80/80/75
f 80/80/75 82/82/75 22/22/17 19/19/17
f 83/83/76 84/84/77 85/85/77 86/86/78
f 87/87/79 83/83/76 86/86/78 88/88/79
f 86/86/78 89/89/80 90/90/81 88/88/79
f 89/89/80 91/91/82 92/92/83 90/90/81
f 89/89/80 93/93/84 94/94/84 91/91/82
f 85/85/85 95/95/85 96/96/85 86/86/85
f 89/89/86 97/97/86 98/98/86 93/93/86
f 86/86/87 96/96/87 97/97/87 89/89/87
f 94/94/88 99/99/88 100/100/88 91/91/88
f 91/91/89 100/100/89 101/101/89 92/92/89
f 99/99/90 102/102/90 103/103/91 100/100/91
f 100/100/91 103/103/91 104/104/92 101/101/92
f 105/105/93 106/106/94 69/69/95 68/68/95
f 87/87/79 88/88/79 106/106/94 105/105/93
f 106/106/94 88/88/79 90/90/81 107/107/79
f 107/107/96 90/90/81 92/92/83 108/108/97
f 107/107/96 108/108/97 74/74/98 73/73/98
f 69/69/99 106/106/99 109/109/99 75/75/99
f 107/107/100 73/73/100 78/78/100 110/110/100
f 106/106/101 107/107/101 110/110/101 109/109/101
f 74/74/102 108/108/102 111/111/102 79/79/102
f 108/108/89 92/92/89 101/101/89 111/111/89
f 79/79/103 111/111/104 112/112/104 81/81/103
f 111/111/104 101/101/92 104/104/92 112/112/104
f 113/113/105 114/114/106 85/85/107 84/84/107
f 115/115/108 116/116/108 114/114/106 113/113/105
f 114/114/106 116/116/108 117/117/108 118/118/108
f 118/118/109 117/117/110 119/119/110 120/120/111
f 118/118/109 120/120/111 94/94/112 93/93/112
f 85/85/113 114/114/113 121/121/113 95/95/113
f 118/118/114 93/93/114 98/98/114 122/122/114
f 114/114/115 118/118/115 122/122/115 121/121/115
f 94/94/116 120/120/116 123/123/116 99/99/116
f 120/120/117 119/119/117 124/124/117 123/123/117
f 99/99/118 123/123/119 125/125/119 102/102/118
f 123/123/119 124/124/120 126/126/120 125/125/119
