# Blender v2.78 (sub 0) OBJ File: ''
# www.blender.org
mtllib taste_1.mtl
o head
v 0.000000 106.693359 86.142654
v 24.270815 97.087860 81.517448
v 24.270811 188.401245 59.733456
v 0.000000 188.401245 59.733456
v 24.270813 194.146072 50.249298
v 0.000000 194.146072 50.249321
v 38.890800 91.225006 78.741524
v 39.306538 195.147308 60.193180
v 42.385479 199.403473 50.249306
v 0.000000 82.716469 60.035126
v 41.865799 65.994354 49.063778
v 0.000000 68.214317 60.035126
v 31.420351 56.631004 49.063774
v 0.000000 -304.186096 60.035076
v 31.420351 -285.214050 49.063736
v 44.179020 201.928177 40.559296
v 43.139660 63.889805 39.373768
v 46.961231 57.576160 6.413953
v 46.961224 205.802094 6.413977
v 0.000000 195.397202 40.559303
v 25.009304 195.397202 40.559284
v 26.920822 197.403549 11.098669
v 0.000000 197.722610 17.385351
v 0.000000 179.962158 17.385347
v 0.000000 40.852501 17.385324
v 0.000000 57.576157 17.385328
v 31.420351 44.471916 6.413951
v 31.420351 -285.214020 6.413910
v 0.000000 -304.186096 17.385281
v 0.000000 91.243988 86.142654
v -24.270811 188.401245 59.733456
v -24.270815 97.087860 81.517448
v -24.270813 194.146072 50.249298
v -39.306538 195.147308 60.193180
v -38.890800 91.225006 78.741524
v -42.385479 199.403473 50.249306
v -41.865799 65.994354 49.063778
v -31.420351 56.631004 49.063774
v -31.420351 -285.214050 49.063736
v 0.000000 -285.195496 86.142601
v -44.179020 201.928177 40.559296
v -46.961224 205.802094 6.413977
v -46.961231 57.576160 6.413953
v -43.139660 63.889805 39.373768
v -26.920822 197.403549 11.098669
v -25.009304 195.397202 40.559284
v -31.420351 44.471916 6.413951
v -31.420351 -285.214020 6.413910
vt 0.2842 0.8372
vt 0.3335 0.8149
vt 0.3318 0.9964
vt 0.2842 0.9964
vt 0.6501 0.3564
vt 0.6748 0.3162
vt 0.7026 0.3376
vt 0.6830 0.3765
vt 0.3632 0.8013
vt 0.3614 0.9487
vt 0.6713 0.2586
vt 0.6946 0.2684
vt 0.2842 0.7626
vt 0.6259 0.1120
vt 0.6780 0.0488
vt 0.3697 0.7249
vt 0.2842 0.7328
vt 0.3490 0.7069
vt 0.2842 0.0037
vt 0.3490 0.0376
vt 0.7146 0.2674
vt 0.6971 0.0410
vt 0.7549 0.0179
vt 0.7967 0.2649
vt 0.7021 0.3852
vt 0.7197 0.3411
vt 0.7967 0.3553
vt 0.7602 0.4040
vt 0.0420 0.9947
vt 0.0061 0.9211
vt 0.0974 0.9213
vt 0.0974 0.9946
vt 0.0974 0.6597
vt 0.0974 0.6916
vt 0.0057 0.6923
vt 0.0341 0.6664
vt 0.0342 0.0395
vt 0.0974 0.0035
vt 0.4361 0.8018
vt 0.4361 0.8356
vt 0.3846 0.7809
vt 0.3846 0.7509
vt 0.2367 0.9964
vt 0.2349 0.8149
vt 0.9646 0.3483
vt 0.9317 0.3684
vt 0.9122 0.3295
vt 0.9400 0.3081
vt 0.2070 0.9487
vt 0.2052 0.8013
vt 0.9434 0.2505
vt 0.9202 0.2604
vt 0.9889 0.1040
vt 0.9367 0.0407
vt 0.1987 0.7249
vt 0.2195 0.7069
vt 0.2195 0.0376
vt 0.4361 0.0537
vt 0.3846 0.0162
vt 0.9001 0.2593
vt 0.8181 0.2568
vt 0.8598 0.0099
vt 0.9177 0.0330
vt 0.9126 0.3771
vt 0.8546 0.3960
vt 0.8181 0.3472
vt 0.8950 0.3331
vt 0.1528 0.9947
vt 0.1887 0.9211
vt 0.1607 0.6664
vt 0.1892 0.6923
vt 0.1607 0.0395
vn 0.1434 0.2656 0.9534
vn 0.0000 0.8553 0.5181
vn 0.0703 0.2017 0.9769
vn -0.3178 0.8626 0.3937
vn -0.1605 -0.7270 0.6676
vn 0.9890 0.0069 0.1475
vn 0.2467 -0.1080 0.9631
vn 0.3297 -0.0000 0.9441
vn 0.9952 -0.0040 0.0981
vn 0.0161 0.9965 0.0826
vn -0.3488 0.9352 0.0607
vn -0.2983 0.9434 0.1448
vn 0.0000 0.9918 0.1281
vn 0.9877 -0.0070 0.1562
vn -0.2275 0.0002 -0.9738
vn -0.2275 0.0000 -0.9738
vn -0.2275 0.0001 -0.9738
vn -0.2729 0.1422 -0.9515
vn -0.3297 0.0000 -0.9441
vn -1.0000 0.0000 0.0000
vn -0.1434 0.2656 0.9534
vn -0.0703 0.2017 0.9769
vn 0.3178 0.8626 0.3937
vn 0.1605 -0.7270 0.6676
vn -0.9890 0.0069 0.1475
vn -0.2467 -0.1080 0.9631
vn -0.3297 -0.0000 0.9441
vn -0.9952 -0.0040 0.0981
vn -0.0161 0.9965 0.0826
vn 0.3488 0.9352 0.0607
vn 0.2983 0.9434 0.1448
vn -0.9877 -0.0070 0.1562
vn 0.2275 0.0002 -0.9738
vn 0.2275 0.0001 -0.9738
vn 0.2275 0.0000 -0.9738
vn 0.2729 0.1422 -0.9515
vn 0.3297 0.0000 -0.9441
vn -0.1445 -0.7525 0.6426
vn 0.1445 -0.7525 0.6426
usemtl taste
s 1
f 1/1/1 2/2/1 3/3/1 4/4/1
f 4/5/2 3/6/2 5/7/2 6/8/2
f 3/3/3 2/2/3 7/9/3 8/10/3
f 8/11/4 9/12/4 5/7/4 3/6/4
f 2/2/5 1/1/5 10/13/5
f 7/14/6 11/15/6 9/12/6 8/11/6
f 11/16/7 10/13/7 12/17/7 13/18/7
f 13/18/8 12/17/8 14/19/8 15/20/8
f 16/21/9 17/22/9 18/23/9 19/24/9
f 20/25/10 21/26/10 22/27/10 23/28/10
f 21/26/11 16/21/11 19/24/11 22/27/11
f 5/7/12 9/12/12 16/21/12 21/26/12
f 6/8/13 5/7/13 21/26/13 20/25/13
f 9/12/14 11/15/14 17/22/14 16/21/14
f 22/29/15 19/30/16 24/31/17 23/32/15
f 25/33/18 26/34/18 18/35/18 27/36/18
f 24/31/17 19/30/16 18/35/16 26/34/16
f 25/33/19 27/36/19 28/37/19 29/38/19
f 30/39/20 1/40/20 10/41/20 12/42/20
f 1/1/21 4/4/21 31/43/21 32/44/21
f 4/45/2 6/46/2 33/47/2 31/48/2
f 31/43/22 34/49/22 35/50/22 32/44/22
f 34/51/23 31/48/23 33/47/23 36/52/23
f 32/44/24 10/13/24 1/1/24
f 35/53/25 34/51/25 36/52/25 37/54/25
f 37/55/26 38/56/26 12/17/26 10/13/26
f 38/56/27 39/57/27 14/19/27 12/17/27
f 40/58/20 30/39/20 12/42/20 14/59/20
f 41/60/28 42/61/28 43/62/28 44/63/28
f 20/64/29 23/65/29 45/66/29 46/67/29
f 46/67/30 45/66/30 42/61/30 41/60/30
f 33/47/31 46/67/31 41/60/31 36/52/31
f 6/46/13 20/64/13 46/67/13 33/47/13
f 36/52/32 41/60/32 44/63/32 37/54/32
f 45/68/33 23/32/33 24/31/34 42/69/35
f 25/33/36 47/70/36 43/71/36 26/34/36
f 24/31/34 26/34/35 43/71/35 42/69/35
f 25/33/37 29/38/37 48/72/37 47/70/37
f 10/13/38 11/16/38 7/9/38 2/2/38
f 10/13/39 32/44/39 35/50/39 37/55/39
o ear_L
v 42.964954 59.295864 49.428181
v 33.825954 54.354542 57.903149
v 43.774097 29.315306 17.392254
v 53.639717 36.554794 5.112284
v 52.995056 71.255653 45.514427
v 63.089676 58.236366 -7.585146
v 59.890163 256.836823 -3.171637
v 76.790756 237.407593 -85.598763
vt 0.9287 0.4307
vt 0.9462 0.4195
vt 0.9518 0.4947
vt 0.9295 0.5097
vt 0.9038 0.4312
vt 0.8884 0.5160
vt 0.6098 0.3845
vt 0.5846 0.5160
vn 0.7739 -0.4525 0.4430
vn 0.8802 -0.3530 0.3173
vn 0.9812 0.0115 0.1927
usemtl taste
s 1
f 49/73/40 50/74/40 51/75/40 52/76/40
f 53/77/41 49/73/41 52/76/41 54/78/41
f 55/79/42 53/77/42 54/78/42 56/80/42
o ear_R
v -42.964954 59.295864 49.428181
v -53.639717 36.554794 5.112284
v -43.774097 29.315306 17.392254
v -33.825954 54.354542 57.903149
v -52.995056 71.255653 45.514427
v -63.089676 58.236366 -7.585146
v -59.890163 256.836823 -3.171637
v -76.790756 237.407593 -85.598763
vt 0.5790 0.0671
vt 0.5005 0.0581
vt 0.5177 0.0375
vt 0.5919 0.0508
vt 0.5759 0.0918
vt 0.4899 0.0984
vt 0.5919 0.3891
vt 0.4585 0.4005
vn -0.7739 -0.4525 0.4430
vn -0.8802 -0.3530 0.3173
vn -0.9812 0.0115 0.1927
usemtl taste
s 1
f 57/81/43 58/82/43 59/83/43 60/84/43
f 61/85/44 62/86/44 58/82/44 57/81/44
f 63/87/45 64/88/45 62/86/45 61/85/45
