# Blender v2.78 (sub 0) OBJ File: ''
# www.blender.org
mtllib taste_5.mtl
o wheel_d
v 0.000000 -183.185974 -44.142273
v 0.000000 -142.457031 -44.142265
v 35.748623 -142.457031 -29.334694
v 35.748623 -183.185974 -29.334702
v 50.556175 -142.457031 6.413924
v 50.556175 -183.185974 6.413917
v 35.748623 -142.457031 42.162537
v 35.748623 -183.185974 42.162529
v -0.000004 -142.457047 56.970108
v -0.000004 -183.185989 56.970100
v -35.748631 -142.457031 42.162533
v -35.748631 -183.185974 42.162525
v -50.556194 -142.457031 6.413922
v -50.556194 -183.185974 6.413915
v -35.748631 -142.457031 -29.334690
v -35.748631 -183.185974 -29.334698
vt 0.9706 0.6851
vt 0.9706 0.7491
vt 0.9074 0.7491
vt 0.9074 0.6851
vt 0.8442 0.7491
vt 0.8442 0.6851
vt 0.7811 0.7491
vt 0.7811 0.6851
vt 0.7179 0.7491
vt 0.7179 0.6851
vt 0.6547 0.7491
vt 0.6547 0.6851
vt 0.5916 0.7491
vt 0.5916 0.6851
vt 0.5284 0.7491
vt 0.5284 0.6851
vt 0.4652 0.7491
vt 0.4652 0.6851
vn 0.3827 0.0000 -0.9239
vn 0.9239 0.0000 -0.3827
vn 0.9239 -0.0000 0.3827
vn 0.3827 -0.0000 0.9239
vn -0.3827 -0.0000 0.9239
vn -0.9239 -0.0000 0.3827
vn -0.9239 0.0000 -0.3827
vn -0.3827 0.0000 -0.9239
usemtl taste
s 1
f 1/1/1 2/2/1 3/3/1 4/4/1
f 4/4/2 3/3/2 5/5/2 6/6/2
f 6/6/3 5/5/3 7/7/3 8/8/3
f 8/8/4 7/7/4 9/9/4 10/10/4
f 10/10/5 9/9/5 11/11/5 12/12/5
f 12/12/6 11/11/6 13/13/6 14/14/6
f 14/14/7 13/13/7 15/15/7 16/16/7
f 16/16/8 15/15/8 2/17/8 1/18/8
