# Blender v2.78 (sub 0) OBJ File: 'taste_02.blend'
# www.blender.org
mtllib taste.mtl
o ear_R
v -59.890163 256.836823 -3.171679
v -33.825954 54.354549 57.903141
v -76.790756 237.407578 -85.598801
v -43.774097 29.315308 17.392248
v -42.964954 59.295872 49.428169
v -53.639717 36.554794 5.112278
v -63.089676 58.236366 -7.585156
v -52.995056 71.255661 45.514416
vt 0.5790 0.0671
vt 0.5005 0.0581
vt 0.5177 0.0375
vt 0.5919 0.0508
vt 0.5759 0.0918
vt 0.4899 0.0984
vt 0.5919 0.3891
vt 0.4585 0.4005
vn -0.7739 -0.4525 0.4430
vn -0.8802 -0.3530 0.3173
vn -0.9812 0.0115 0.1927
usemtl taste
s off
f 5/1/1 6/2/1 4/3/1 2/4/1
f 8/5/2 7/6/2 6/2/2 5/1/2
f 1/7/3 3/8/3 7/6/3 8/5/3
o ear_L
v 59.890163 256.836823 -3.171679
v 33.825954 54.354549 57.903141
v 76.790756 237.407578 -85.598801
v 43.774097 29.315308 17.392248
v 42.964954 59.295872 49.428169
v 53.639717 36.554794 5.112278
v 63.089676 58.236366 -7.585156
v 52.995056 71.255661 45.514416
vt 0.9287 0.4307
vt 0.9462 0.4195
vt 0.9518 0.4947
vt 0.9295 0.5097
vt 0.9038 0.4312
vt 0.8884 0.5160
vt 0.6098 0.3845
vt 0.5846 0.5160
vn 0.7739 -0.4525 0.4430
vn 0.8802 -0.3530 0.3173
vn 0.9812 0.0115 0.1927
usemtl taste
s off
f 13/9/4 10/10/4 12/11/4 14/12/4
f 16/13/5 13/9/5 14/12/5 15/14/5
f 9/15/6 16/13/6 15/14/6 11/16/6
o wheel_a
v 0.000000 -13.970985 -44.142242
v 0.000000 26.757984 -44.142242
v 35.748623 -13.970985 -29.334671
v 35.748623 26.757984 -29.334671
v 50.556175 -13.970985 6.413947
v 50.556175 26.757984 6.413947
v 35.748623 -13.970985 42.162560
v 35.748623 26.757984 42.162560
v -0.000004 -13.970985 56.970131
v -0.000004 26.757984 56.970131
v -35.748631 -13.970985 42.162556
v -35.748631 26.757984 42.162556
v -50.556194 -13.970985 6.413945
v -50.556194 26.757984 6.413945
v -35.748631 -13.970985 -29.334667
v -35.748631 26.757984 -29.334667
vt 0.9706 0.9312
vt 0.9706 0.9952
vt 0.9074 0.9952
vt 0.9074 0.9312
vt 0.8442 0.9952
vt 0.8442 0.9312
vt 0.7811 0.9952
vt 0.7811 0.9312
vt 0.7179 0.9952
vt 0.7179 0.9312
vt 0.6547 0.9952
vt 0.6547 0.9312
vt 0.5916 0.9952
vt 0.5916 0.9312
vt 0.5284 0.9952
vt 0.5284 0.9312
vt 0.4652 0.9952
vt 0.4652 0.9312
vn 0.3827 0.0000 -0.9239
vn 0.9239 0.0000 -0.3827
vn 0.9239 0.0000 0.3827
vn 0.3827 0.0000 0.9239
vn -0.3827 0.0000 0.9239
vn -0.9239 0.0000 0.3827
vn -0.9239 0.0000 -0.3827
vn -0.3827 0.0000 -0.9239
usemtl taste
s off
f 17/17/7 18/18/7 20/19/7 19/20/7
f 19/20/8 20/19/8 22/21/8 21/22/8
f 21/22/9 22/21/9 24/23/9 23/24/9
f 23/24/10 24/23/10 26/25/10 25/26/10
f 25/26/11 26/25/11 28/27/11 27/28/11
f 27/28/12 28/27/12 30/29/12 29/30/12
f 29/30/13 30/29/13 32/31/13 31/32/13
f 31/32/14 32/31/14 18/33/14 17/34/14
o wheel_b
v 0.000000 -71.803986 -44.142242
v 0.000000 -31.075024 -44.142242
v 35.748623 -71.803986 -29.334671
v 35.748623 -31.075024 -29.334671
v 50.556175 -71.803986 6.413947
v 50.556175 -31.075024 6.413947
v 35.748623 -71.803986 42.162560
v 35.748623 -31.075024 42.162560
v -0.000004 -71.803986 56.970131
v -0.000004 -31.075024 56.970131
v -35.748631 -71.803986 42.162556
v -35.748631 -31.075024 42.162556
v -50.556194 -71.803986 6.413945
v -50.556194 -31.075024 6.413945
v -35.748631 -71.803986 -29.334667
v -35.748631 -31.075024 -29.334667
vt 0.9706 0.8492
vt 0.9706 0.9131
vt 0.9074 0.9132
vt 0.9074 0.8492
vt 0.8442 0.9132
vt 0.8442 0.8492
vt 0.7811 0.9132
vt 0.7811 0.8492
vt 0.7179 0.9132
vt 0.7179 0.8492
vt 0.6547 0.9131
vt 0.6547 0.8492
vt 0.5916 0.9131
vt 0.5916 0.8492
vt 0.5284 0.9131
vt 0.5284 0.8492
vt 0.4652 0.9131
vt 0.4652 0.8492
vn 0.3827 0.0000 -0.9239
vn 0.9239 0.0000 -0.3827
vn 0.9239 0.0000 0.3827
vn 0.3827 0.0000 0.9239
vn -0.3827 0.0000 0.9239
vn -0.9239 0.0000 0.3827
vn -0.9239 0.0000 -0.3827
vn -0.3827 0.0000 -0.9239
usemtl taste
s off
f 33/35/15 34/36/15 36/37/15 35/38/15
f 35/38/16 36/37/16 38/39/16 37/40/16
f 37/40/17 38/39/17 40/41/17 39/42/17
f 39/42/18 40/41/18 42/43/18 41/44/18
f 41/44/19 42/43/19 44/45/19 43/46/19
f 43/46/20 44/45/20 46/47/20 45/48/20
f 45/48/21 46/47/21 48/49/21 47/50/21
f 47/50/22 48/49/22 34/51/22 33/52/22
o wheel_c
v 0.000000 -127.189003 -44.142242
v 0.000000 -86.460014 -44.142242
v 35.748623 -127.189003 -29.334671
v 35.748623 -86.460014 -29.334671
v 50.556175 -127.189003 6.413947
v 50.556175 -86.460014 6.413947
v 35.748623 -127.189003 42.162560
v 35.748623 -86.460014 42.162560
v -0.000004 -127.189003 56.970131
v -0.000004 -86.460014 56.970131
v -35.748631 -127.189003 42.162556
v -35.748631 -86.460014 42.162556
v -50.556194 -127.189003 6.413945
v -50.556194 -86.460014 6.413945
v -35.748631 -127.189003 -29.334667
v -35.748631 -86.460014 -29.334667
vt 0.9706 0.7672
vt 0.9706 0.8311
vt 0.9074 0.8311
vt 0.9074 0.7672
vt 0.8442 0.8311
vt 0.8442 0.7672
vt 0.7811 0.8311
vt 0.7811 0.7672
vt 0.7179 0.8311
vt 0.7179 0.7672
vt 0.6547 0.8311
vt 0.6547 0.7672
vt 0.5916 0.8311
vt 0.5916 0.7672
vt 0.5284 0.8311
vt 0.5284 0.7672
vt 0.4652 0.8311
vt 0.4652 0.7672
vn 0.3827 0.0000 -0.9239
vn 0.9239 0.0000 -0.3827
vn 0.9239 0.0000 0.3827
vn 0.3827 0.0000 0.9239
vn -0.3827 0.0000 0.9239
vn -0.9239 0.0000 0.3827
vn -0.9239 0.0000 -0.3827
vn -0.3827 0.0000 -0.9239
usemtl taste
s off
f 49/53/23 50/54/23 52/55/23 51/56/23
f 51/56/24 52/55/24 54/57/24 53/58/24
f 53/58/25 54/57/25 56/59/25 55/60/25
f 55/60/26 56/59/26 58/61/26 57/62/26
f 57/62/27 58/61/27 60/63/27 59/64/27
f 59/64/28 60/63/28 62/65/28 61/66/28
f 61/66/29 62/65/29 64/67/29 63/68/29
f 63/68/30 64/67/30 50/69/30 49/70/30
o wheel_d
v 0.000000 -183.185974 -44.142242
v 0.000000 -142.457031 -44.142242
v 35.748623 -183.185974 -29.334671
v 35.748623 -142.457031 -29.334671
v 50.556175 -183.185974 6.413947
v 50.556175 -142.457031 6.413947
v 35.748623 -183.185974 42.162560
v 35.748623 -142.457031 42.162560
v -0.000004 -183.185974 56.970131
v -0.000004 -142.457031 56.970131
v -35.748631 -183.185974 42.162556
v -35.748631 -142.457031 42.162556
v -50.556194 -183.185974 6.413945
v -50.556194 -142.457031 6.413945
v -35.748631 -183.185974 -29.334667
v -35.748631 -142.457031 -29.334667
vt 0.9706 0.6851
vt 0.9706 0.7491
vt 0.9074 0.7491
vt 0.9074 0.6851
vt 0.8442 0.7491
vt 0.8442 0.6851
vt 0.7811 0.7491
vt 0.7811 0.6851
vt 0.7179 0.7491
vt 0.7179 0.6851
vt 0.6547 0.7491
vt 0.6547 0.6851
vt 0.5916 0.7491
vt 0.5916 0.6851
vt 0.5284 0.7491
vt 0.5284 0.6851
vt 0.4652 0.7491
vt 0.4652 0.6851
vn 0.3827 0.0000 -0.9239
vn 0.9239 0.0000 -0.3827
vn 0.9239 0.0000 0.3827
vn 0.3827 0.0000 0.9239
vn -0.3827 0.0000 0.9239
vn -0.9239 0.0000 0.3827
vn -0.9239 0.0000 -0.3827
vn -0.3827 0.0000 -0.9239
usemtl taste
s off
f 65/71/31 66/72/31 68/73/31 67/74/31
f 67/74/32 68/73/32 70/75/32 69/76/32
f 69/76/33 70/75/33 72/77/33 71/78/33
f 71/78/34 72/77/34 74/79/34 73/80/34
f 73/80/35 74/79/35 76/81/35 75/82/35
f 75/82/36 76/81/36 78/83/36 77/84/36
f 77/84/37 78/83/37 80/85/37 79/86/37
f 79/86/38 80/85/38 66/87/38 65/88/38
o wheel_e
v 0.000000 -240.407043 -44.142246
v 0.000000 -199.678070 -44.142246
v 35.748623 -240.407043 -29.334675
v 35.748623 -199.678070 -29.334675
v 50.556175 -240.407043 6.413947
v 50.556175 -199.678070 6.413947
v 35.748623 -240.407043 42.162563
v 35.748623 -199.678070 42.162563
v -0.000004 -240.407043 56.970135
v -0.000004 -199.678070 56.970135
v -35.748631 -240.407043 42.162560
v -35.748631 -199.678070 42.162560
v -50.556194 -240.407043 6.413945
v -50.556194 -199.678070 6.413945
v -35.748631 -240.407043 -29.334671
v -35.748631 -199.678070 -29.334671
vt 0.9706 0.6031
vt 0.9706 0.6671
vt 0.9074 0.6671
vt 0.9074 0.6031
vt 0.8442 0.6671
vt 0.8442 0.6031
vt 0.7811 0.6671
vt 0.7811 0.6031
vt 0.7179 0.6671
vt 0.7179 0.6031
vt 0.6547 0.6671
vt 0.6547 0.6031
vt 0.5916 0.6671
vt 0.5916 0.6031
vt 0.5284 0.6671
vt 0.5284 0.6031
vt 0.4652 0.6671
vt 0.4652 0.6031
vn 0.3827 0.0000 -0.9239
vn 0.9239 0.0000 -0.3827
vn 0.9239 0.0000 0.3827
vn 0.3827 0.0000 0.9239
vn -0.3827 0.0000 0.9239
vn -0.9239 0.0000 0.3827
vn -0.9239 0.0000 -0.3827
vn -0.3827 0.0000 -0.9239
usemtl taste
s off
f 81/89/39 82/90/39 84/91/39 83/92/39
f 83/92/40 84/91/40 86/93/40 85/94/40
f 85/94/41 86/93/41 88/95/41 87/96/41
f 87/96/42 88/95/42 90/97/42 89/98/42
f 89/98/43 90/97/43 92/99/43 91/100/43
f 91/100/44 92/99/44 94/101/44 93/102/44
f 93/102/45 94/101/45 96/103/45 95/104/45
f 95/104/46 96/103/46 82/105/46 81/106/46
o head
v 42.385479 199.403488 50.249271
v 24.270815 97.087875 81.517433
v 24.270811 188.401260 59.733425
v 24.270813 194.146088 50.249268
v 38.890800 91.225021 78.741508
v 39.306538 195.147324 60.193150
v 41.865799 65.994362 49.063766
v 31.420351 56.631012 49.063766
v 31.420351 -285.214050 49.063782
v 46.961224 205.802094 6.413944
v 26.920822 197.403549 11.098637
v 46.961231 57.576160 6.413944
v 31.420351 44.471916 6.413944
v 43.139660 63.889812 39.373756
v 44.179020 201.928177 40.559261
v 25.009304 195.397202 40.559254
v 31.420351 -285.214020 6.413956
v 0.000000 -285.195496 86.142647
v 0.000000 -304.186096 60.035126
v 0.000000 106.693375 86.142639
v 0.000000 82.716476 60.035110
v -42.385479 199.403488 50.249271
v -24.270815 97.087875 81.517433
v -24.270811 188.401260 59.733425
v -24.270813 194.146088 50.249268
v -38.890800 91.225021 78.741508
v -39.306538 195.147324 60.193150
v -41.865799 65.994362 49.063766
v -31.420351 56.631012 49.063766
v -31.420351 -285.214050 49.063782
v 0.000000 188.401260 59.733425
v 0.000000 194.146088 50.249290
v 0.000000 68.214325 60.035114
v 0.000000 91.244003 86.142639
v -46.961224 205.802094 6.413944
v -26.920822 197.403549 11.098637
v -46.961231 57.576160 6.413944
v -31.420351 44.471916 6.413944
v 0.000000 197.722610 17.385319
v -43.139660 63.889812 39.373756
v -44.179020 201.928177 40.559261
v -25.009304 195.397202 40.559254
v 0.000000 195.397202 40.559273
v 0.000000 57.576160 17.385319
v 0.000000 179.962158 17.385319
v 0.000000 40.852505 17.385319
v -31.420351 -285.214020 6.413956
v 0.000000 -304.186096 17.385330
vt 0.2842 0.8372
vt 0.3335 0.8149
vt 0.3318 0.9964
vt 0.2842 0.9964
vt 0.6501 0.3564
vt 0.6748 0.3162
vt 0.7026 0.3376
vt 0.6830 0.3765
vt 0.3632 0.8013
vt 0.3614 0.9487
vt 0.6713 0.2586
vt 0.6946 0.2684
vt 0.2842 0.7626
vt 0.6259 0.1120
vt 0.6780 0.0488
vt 0.3697 0.7249
vt 0.2842 0.7328
vt 0.3490 0.7069
vt 0.2842 0.0037
vt 0.3490 0.0376
vt 0.7146 0.2674
vt 0.6971 0.0410
vt 0.7549 0.0179
vt 0.7967 0.2649
vt 0.7021 0.3852
vt 0.7197 0.3411
vt 0.7967 0.3553
vt 0.7602 0.4040
vt 0.0420 0.9947
vt 0.0061 0.9211
vt 0.0974 0.9213
vt 0.0974 0.9946
vt 0.0974 0.6597
vt 0.0974 0.6916
vt 0.0057 0.6923
vt 0.0341 0.6664
vt 0.0342 0.0395
vt 0.0974 0.0035
vt 0.4361 0.8018
vt 0.4361 0.8356
vt 0.3846 0.7809
vt 0.3846 0.7509
vt 0.2367 0.9964
vt 0.2349 0.8149
vt 0.9646 0.3483
vt 0.9317 0.3684
vt 0.9122 0.3295
vt 0.9400 0.3081
vt 0.2070 0.9487
vt 0.2052 0.8013
vt 0.9434 0.2505
vt 0.9202 0.2604
vt 0.9889 0.1040
vt 0.9367 0.0407
vt 0.1987 0.7249
vt 0.2195 0.7069
vt 0.2195 0.0376
vt 0.4361 0.0537
vt 0.3846 0.0162
vt 0.9001 0.2593
vt 0.8181 0.2568
vt 0.8598 0.0099
vt 0.9177 0.0330
vt 0.9126 0.3771
vt 0.8546 0.3960
vt 0.8181 0.3472
vt 0.8950 0.3331
vt 0.1528 0.9947
vt 0.1887 0.9211
vt 0.1607 0.6664
vt 0.1892 0.6923
vt 0.1607 0.0395
vn 0.1434 0.2656 0.9534
vn 0.0000 0.8553 0.5181
vn 0.0703 0.2017 0.9769
vn -0.3178 0.8626 0.3937
vn -0.1605 -0.7270 0.6676
vn 0.9890 0.0069 0.1475
vn 0.2467 -0.1080 0.9631
vn 0.3297 0.0000 0.9441
vn 0.9952 -0.0040 0.0981
vn 0.0161 0.9965 0.0826
vn -0.3488 0.9352 0.0607
vn -0.2983 0.9434 0.1448
vn 0.0000 0.9918 0.1281
vn 0.9877 -0.0070 0.1562
vn -0.2275 0.0002 -0.9738
vn -0.2729 0.1422 -0.9515
vn -0.2275 -0.0000 -0.9738
vn -0.3297 -0.0000 -0.9441
vn -1.0000 0.0000 0.0000
vn -0.1434 0.2656 0.9534
vn -0.0703 0.2017 0.9769
vn 0.3178 0.8626 0.3937
vn 0.1605 -0.7270 0.6676
vn -0.9890 0.0069 0.1475
vn -0.2467 -0.1080 0.9631
vn -0.3297 0.0000 0.9441
vn -0.9952 -0.0040 0.0981
vn -0.0161 0.9965 0.0826
vn 0.3488 0.9352 0.0607
vn 0.2983 0.9434 0.1448
vn -0.9877 -0.0070 0.1562
vn 0.2275 0.0002 -0.9738
vn 0.2729 0.1422 -0.9515
vn 0.2275 -0.0000 -0.9738
vn 0.3297 -0.0000 -0.9441
vn -0.1445 -0.7525 0.6426
vn 0.1445 -0.7525 0.6426
usemtl taste
s off
f 116/107/47 98/108/47 99/109/47 127/110/47
f 127/111/48 99/112/48 100/113/48 128/114/48
f 99/109/49 98/108/49 101/115/49 102/116/49
f 102/117/50 97/118/50 100/113/50 99/112/50
f 98/108/51 116/107/51 117/119/51
f 101/120/52 103/121/52 97/118/52 102/117/52
f 103/122/53 117/119/53 129/123/53 104/124/53
f 104/124/54 129/123/54 115/125/54 105/126/54
f 111/127/55 110/128/55 108/129/55 106/130/55
f 139/131/56 112/132/56 107/133/56 135/134/56
f 112/132/57 111/127/57 106/130/57 107/133/57
f 100/113/58 97/118/58 111/127/58 112/132/58
f 128/114/59 100/113/59 112/132/59 139/131/59
f 97/118/60 103/121/60 110/128/60 111/127/60
f 107/135/61 106/136/61 141/137/61 135/138/61
f 142/139/62 140/140/62 108/141/62 109/142/62
f 141/137/63 106/136/63 108/141/63 140/140/63
f 142/139/64 109/142/64 113/143/64 144/144/64
f 130/145/65 116/146/65 117/147/65 129/148/65
f 116/107/66 127/110/66 120/149/66 119/150/66
f 127/151/48 128/152/48 121/153/48 120/154/48
f 120/149/67 123/155/67 122/156/67 119/150/67
f 123/157/68 120/154/68 121/153/68 118/158/68
f 119/150/69 117/119/69 116/107/69
f 122/159/70 123/157/70 118/158/70 124/160/70
f 124/161/71 125/162/71 129/123/71 117/119/71
f 125/162/72 126/163/72 115/125/72 129/123/72
f 114/164/65 130/145/65 129/148/65 115/165/65
f 137/166/73 131/167/73 133/168/73 136/169/73
f 139/170/74 135/171/74 132/172/74 138/173/74
f 138/173/75 132/172/75 131/167/75 137/166/75
f 121/153/76 138/173/76 137/166/76 118/158/76
f 128/152/59 139/170/59 138/173/59 121/153/59
f 118/158/77 137/166/77 136/169/77 124/160/77
f 132/174/78 135/138/78 141/137/78 131/175/78
f 142/139/79 134/176/79 133/177/79 140/140/79
f 141/137/80 140/140/80 133/177/80 131/175/80
f 142/139/81 144/144/81 143/178/81 134/176/81
f 117/119/82 103/122/82 101/115/82 98/108/82
f 117/119/83 119/150/83 122/156/83 124/161/83
