# Blender v2.78 (sub 0) OBJ File: ''
# www.blender.org
mtllib wind_1.mtl
o body
v -59.644485 -0.000011 64.462074
v -0.000027 68.065163 -3.603077
v -59.644501 17.950125 20.482315
v -0.000006 -52.818447 64.462051
v -0.000027 -68.065140 -3.603099
v -0.000006 52.818432 64.462067
v -59.644501 -17.950130 20.482304
v -197.104752 7.871645 20.482347
v -197.104721 -0.000011 64.462112
v -197.104752 -7.871652 20.482340
v 59.644478 -0.000011 64.462051
v 59.644463 17.950125 20.482292
v 59.644463 -17.950130 20.482277
v 197.104691 7.871645 20.482256
v 197.104721 -0.000011 64.462006
v 197.104691 -7.871652 20.482248
vt 0.7005 0.9842
vt 0.5662 0.8294
vt 0.7000 0.9009
vt 0.5504 0.6740
vt 0.6958 0.6417
vt 0.5615 0.7965
vt 0.5553 0.9516
vt 0.1772 0.6599
vt 0.0107 0.7792
vt 0.0107 0.5405
vt 0.6953 0.7250
vt 0.9873 0.9058
vt 0.9873 0.9842
vt 0.9826 0.7200
vt 0.9826 0.6417
vt 0.6888 0.6150
vt 0.6883 0.5317
vt 0.5545 0.4602
vt 0.5460 0.2984
vt 0.5571 0.4209
vt 0.6914 0.2661
vt 0.5435 0.5824
vt 0.0107 0.7986
vt 0.1772 0.9179
vt 0.1772 0.6792
vt 0.6909 0.3494
vt 0.9756 0.5367
vt 0.9756 0.6150
vt 0.9782 0.3444
vt 0.9782 0.2661
vn -0.5302 0.7850 0.3204
vn -0.6538 -0.7383 0.1654
vn -0.6538 0.7383 0.1654
vn -0.7521 0.0000 -0.6591
vn -0.5302 -0.7850 0.3204
vn -0.0352 0.9589 0.2815
vn -0.0352 -0.9589 0.2815
vn 0.5302 0.7850 0.3204
vn 0.6538 -0.7383 0.1654
vn 0.6538 0.7383 0.1654
vn 0.7521 0.0000 -0.6591
vn 0.5302 -0.7850 0.3204
vn 0.0352 0.9589 0.2815
vn 0.0352 -0.9589 0.2815
usemtl Material.001
s 1
f 1/1/1 2/2/1 3/3/1
f 4/4/2 1/5/2 5/6/2
f 1/1/3 6/7/3 2/2/3
f 1/8/4 2/9/4 5/10/4
f 5/6/5 1/5/5 7/11/5
f 8/12/6 9/13/6 1/1/6 3/3/6
f 10/14/7 7/11/7 1/5/7 9/15/7
f 11/16/8 12/17/8 2/18/8
f 4/19/9 5/20/9 11/21/9
f 11/16/10 2/18/10 6/22/10
f 11/23/11 5/24/11 2/25/11
f 5/20/12 13/26/12 11/21/12
f 14/27/13 12/17/13 11/16/13 15/28/13
f 16/29/14 15/30/14 11/21/14 13/26/14
