# Blender v2.79 (sub 0) OBJ File: 'wind_02.blend'
# www.blender.org
mtllib wind.mtl
o L_fan_S
v -110.138824 -70.398193 17.323986
v -89.622520 -0.662835 9.455050
v -78.039566 -1.600034 17.323986
v -153.715347 83.607544 17.323997
v -103.941399 62.332699 17.323973
v -194.679077 -44.075798 17.324024
v -115.408798 -59.394848 3.779166
v -169.131332 -73.698112 17.324005
v -150.582443 80.732452 14.150342
v -108.023087 58.668194 13.767927
v -186.661270 -41.761055 0.215515
v -165.472031 -65.067749 0.117464
v -177.478058 -5.077596 1.407960
v -154.837372 -25.997179 3.118422
v -128.769333 -1.515304 6.740023
v -127.659088 40.334538 10.511860
v -177.799469 -2.950716 17.323988
v -131.182373 -1.432725 17.323994
v -129.379929 38.786854 17.323999
v -154.947388 -23.470184 17.323997
vt 0.148357 0.031566
vt 0.278517 0.010664
vt 0.270214 0.020565
vt 0.156144 0.045452
vt 0.180950 0.274387
vt 0.251205 0.326610
vt 0.165061 0.418358
vt 0.085756 0.283064
vt 0.090069 0.455805
vt 0.010664 0.335806
vt 0.052709 0.321555
vt 0.123748 0.421999
vt 0.031312 0.152074
vt 0.062926 0.165064
vt 0.113156 0.133914
vt 0.166148 0.173094
vt 0.170257 0.507239
vt 0.187740 0.464304
vt 0.556066 0.272782
vt 0.449644 0.252905
vt 0.614044 0.197191
vt 0.576954 0.058160
vt 0.487252 0.188250
vt 0.422932 0.142500
vt 0.397007 0.015700
vt 0.326137 0.158125
vt 0.257392 0.109131
vt 0.209757 0.068343
vt 0.231319 0.238354
vt 0.257425 0.540534
vt 0.231204 0.661941
vt 0.214401 0.656975
vt 0.247118 0.548328
vt 0.225344 0.759814
vt 0.198957 0.758172
vt 0.232935 0.838379
vt 0.198568 0.845709
vt 0.257425 0.909052
vt 0.219341 0.917970
vt 0.278516 0.480099
vt 0.277856 0.519207
vt 0.288087 0.418358
vt 0.300447 0.269791
vt 0.332837 0.356051
vn -0.3072 -0.6605 0.6851
vn -0.0706 -0.0672 0.9952
vn -0.0870 0.8376 0.5393
vn -0.6746 0.2757 0.6847
vn -0.5482 -0.2252 0.8054
vn -0.0710 -0.0915 0.9933
vn 0.6798 0.5995 0.4225
vn -0.0000 -0.0000 -1.0000
vn -0.0530 -0.1194 0.9914
vn 0.8276 0.4443 0.3432
vn 0.9728 -0.0450 0.2274
vn 0.6695 -0.7285 0.1448
vn -0.6719 -0.7333 0.1037
vn 0.9215 -0.3122 0.2309
vn -0.0662 -0.0585 0.9961
vn -0.0731 -0.0361 0.9967
usemtl Material
s off
f 5/1/1 4/2/1 9/3/1 10/4/1
f 15/5/2 14/6/2 7/7/2 2/8/2
f 8/9/3 1/10/3 7/11/3 12/12/3
f 1/10/4 3/13/4 2/14/4 7/11/4
f 3/13/5 5/1/5 10/4/5 2/14/5
f 2/8/6 10/15/6 16/16/6 15/5/6
f 6/17/7 8/9/7 12/12/7 11/18/7
f 6/19/8 17/20/8 8/21/8
f 1/22/8 8/21/8 17/20/8 20/23/8
f 1/22/8 20/23/8 18/24/8 3/25/8
f 3/25/8 18/24/8 19/26/8 5/27/8
f 16/16/9 10/15/9 9/28/9
f 5/27/8 19/26/8 4/29/8
f 4/30/10 19/31/10 16/32/10 9/33/10
f 16/32/11 19/31/11 18/34/11 15/35/11
f 15/35/12 18/34/12 20/36/12 14/37/12
f 14/37/13 20/36/13 17/38/13 13/39/13
f 6/17/14 11/18/14 13/40/14 17/41/14
f 12/42/15 7/7/15 14/6/15
f 14/6/16 13/43/16 11/44/16 12/42/16
o L_fan_L
v -293.803467 97.570663 67.512695
v -324.052582 1.249441 78.441780
v -340.113708 2.843059 67.512703
v -237.174988 -117.390099 67.512688
v -305.757446 -86.591095 67.512718
v -177.069748 58.885433 67.512642
v -286.762817 82.157837 86.324944
v -211.799728 100.665154 67.512672
v -241.453018 -113.318512 71.920540
v -299.996948 -81.605301 72.451668
v -188.262146 55.873272 91.274460
v -217.098923 88.772812 91.410645
v -201.939758 5.164063 89.618294
v -232.852295 34.785313 87.242645
v -269.669464 1.445832 82.212646
v -272.266815 -56.641373 76.973984
v -201.547089 2.202445 67.512695
v -266.320648 1.270295 67.512688
v -269.838104 -54.535557 67.512680
v -232.763290 31.273409 67.512680
vt 0.148357 0.031566
vt 0.156144 0.045452
vt 0.270214 0.020565
vt 0.278517 0.010664
vt 0.180950 0.274387
vt 0.085756 0.283064
vt 0.165061 0.418358
vt 0.251205 0.326610
vt 0.090069 0.455805
vt 0.123748 0.421999
vt 0.052709 0.321555
vt 0.010664 0.335806
vt 0.062926 0.165064
vt 0.031312 0.152074
vt 0.166148 0.173094
vt 0.113156 0.133914
vt 0.170257 0.507239
vt 0.187740 0.464304
vt 0.556066 0.272782
vt 0.614044 0.197191
vt 0.449644 0.252905
vt 0.576954 0.058160
vt 0.487252 0.188250
vt 0.397007 0.015700
vt 0.422932 0.142500
vt 0.257392 0.109131
vt 0.326137 0.158125
vt 0.209757 0.068343
vt 0.231319 0.238354
vt 0.257425 0.540534
vt 0.247118 0.548328
vt 0.214401 0.656975
vt 0.231204 0.661941
vt 0.198957 0.758172
vt 0.225344 0.759814
vt 0.198568 0.845709
vt 0.232935 0.838379
vt 0.219341 0.917970
vt 0.257425 0.909052
vt 0.277856 0.519207
vt 0.278516 0.480099
vt 0.288087 0.418358
vt 0.332837 0.356051
vt 0.300447 0.269791
vn 0.3191 0.6548 -0.6851
vn 0.0718 0.0659 -0.9952
vn 0.0718 -0.8390 -0.5393
vn 0.6695 -0.2879 -0.6847
vn 0.5522 0.2152 -0.8054
vn 0.0727 0.0902 -0.9933
vn -0.6906 -0.5870 -0.4225
vn 0.0000 0.0000 1.0000
vn 0.0551 0.1184 -0.9914
vn -0.8355 -0.4292 -0.3432
vn -0.9718 0.0626 -0.2274
vn -0.6562 0.7406 -0.1448
vn 0.6851 0.7210 -0.1037
vn -0.9157 0.3289 -0.2309
vn 0.0673 0.0573 -0.9961
vn 0.0737 0.0347 -0.9967
usemtl Material
s off
f 25/45/17 30/46/17 29/47/17 24/48/17
f 35/49/18 22/50/18 27/51/18 34/52/18
f 28/53/19 32/54/19 27/55/19 21/56/19
f 21/56/20 27/55/20 22/57/20 23/58/20
f 23/58/21 22/57/21 30/46/21 25/45/21
f 22/50/22 35/49/22 36/59/22 30/60/22
f 26/61/23 31/62/23 32/54/23 28/53/23
f 26/63/24 28/64/24 37/65/24
f 21/66/24 40/67/24 37/65/24 28/64/24
f 21/66/24 23/68/24 38/69/24 40/67/24
f 23/68/24 25/70/24 39/71/24 38/69/24
f 36/59/25 29/72/25 30/60/25
f 25/70/24 24/73/24 39/71/24
f 24/74/26 29/75/26 36/76/26 39/77/26
f 36/76/27 35/78/27 38/79/27 39/77/27
f 35/78/28 34/80/28 40/81/28 38/79/28
f 34/80/29 33/82/29 37/83/29 40/81/29
f 26/61/30 37/84/30 33/85/30 31/62/30
f 32/86/31 34/52/31 27/51/31
f 34/52/32 32/86/32 31/87/32 33/88/32
o body
v -59.644501 17.950129 20.482311
v -59.644485 0.000000 64.462074
v -59.644501 -17.950127 20.482307
v -197.104752 7.871649 20.482346
v -197.104752 -7.871649 20.482342
v -197.104721 0.000000 64.462112
v 59.644463 17.950129 20.482288
v 59.644478 0.000000 64.462051
v 59.644463 -17.950127 20.482281
v 197.104691 7.871649 20.482254
v 197.104691 -7.871649 20.482250
v 197.104721 0.000000 64.462006
v -0.000027 -68.065140 -3.603088
v -0.000027 68.065163 -3.603088
v -0.000006 52.818443 64.462059
v -0.000006 -52.818436 64.462059
vt 0.700483 0.984163
vt 0.566204 0.829368
vt 0.699981 0.900872
vt 0.550431 0.674012
vt 0.695810 0.641668
vt 0.561531 0.796464
vt 0.555264 0.951589
vt 0.177241 0.659884
vt 0.010664 0.779234
vt 0.010664 0.540534
vt 0.695308 0.724960
vt 0.987288 0.905821
vt 0.987288 0.984163
vt 0.982615 0.720011
vt 0.982615 0.641669
vt 0.688764 0.615023
vt 0.688263 0.531731
vt 0.554485 0.460227
vt 0.546005 0.298416
vt 0.557105 0.420867
vt 0.691384 0.266072
vt 0.543545 0.582449
vt 0.010664 0.798556
vt 0.177241 0.917906
vt 0.177241 0.679206
vt 0.690882 0.349363
vt 0.975569 0.536680
vt 0.975569 0.615023
vt 0.978189 0.344414
vt 0.978189 0.266072
vn -0.5302 0.7850 0.3204
vn -0.6538 -0.7383 0.1654
vn -0.6538 0.7383 0.1654
vn -0.7521 0.0000 -0.6591
vn -0.5302 -0.7850 0.3204
vn -0.0352 0.9589 0.2815
vn -0.0352 -0.9589 0.2815
vn 0.5302 0.7850 0.3204
vn 0.6538 -0.7383 0.1654
vn 0.6538 0.7383 0.1654
vn 0.7521 0.0000 -0.6591
vn 0.5302 -0.7850 0.3204
vn 0.0352 0.9589 0.2815
vn 0.0352 -0.9589 0.2815
usemtl Material
s off
f 42/89/33 54/90/33 41/91/33
f 56/92/34 42/93/34 53/94/34
f 42/89/35 55/95/35 54/90/35
f 42/96/36 54/97/36 53/98/36
f 53/94/37 42/93/37 43/99/37
f 44/100/38 46/101/38 42/89/38 41/91/38
f 45/102/39 43/99/39 42/93/39 46/103/39
f 48/104/40 47/105/40 54/106/40
f 56/107/41 53/108/41 48/109/41
f 48/104/42 54/106/42 55/110/42
f 48/111/43 53/112/43 54/113/43
f 53/108/44 49/114/44 48/109/44
f 50/115/45 47/105/45 48/104/45 52/116/45
f 51/117/46 52/118/46 48/109/46 49/114/46
o R_fan_L
v 293.803406 97.570663 67.512718
v 324.052551 1.249440 78.441788
v 340.113678 2.843060 67.512703
v 237.174942 -117.390099 67.512665
v 305.757416 -86.591095 67.512703
v 177.069702 58.885433 67.512657
v 286.762756 82.157837 86.324959
v 211.799683 100.665154 67.512688
v 241.452972 -113.318512 71.920525
v 299.996918 -81.605301 72.451653
v 188.262100 55.873268 91.274467
v 217.098877 88.772812 91.410660
v 201.939728 5.164061 89.618294
v 232.852249 34.785313 87.242645
v 269.669403 1.445830 82.212646
v 272.266754 -56.641373 76.973984
v 201.547043 2.202446 67.512695
v 266.320618 1.270296 67.512688
v 269.838074 -54.535557 67.512672
v 232.763245 31.273411 67.512688
vt 0.148357 0.031566
vt 0.156144 0.045452
vt 0.270214 0.020565
vt 0.278517 0.010664
vt 0.180950 0.274387
vt 0.085756 0.283064
vt 0.165061 0.418358
vt 0.251205 0.326610
vt 0.090069 0.455805
vt 0.123748 0.421999
vt 0.052709 0.321555
vt 0.010664 0.335806
vt 0.062926 0.165064
vt 0.031312 0.152074
vt 0.166148 0.173094
vt 0.113156 0.133914
vt 0.170257 0.507239
vt 0.187740 0.464304
vt 0.556066 0.272782
vt 0.614044 0.197191
vt 0.449644 0.252905
vt 0.576954 0.058160
vt 0.487252 0.188250
vt 0.397007 0.015700
vt 0.422932 0.142500
vt 0.257392 0.109131
vt 0.326137 0.158125
vt 0.209757 0.068343
vt 0.231319 0.238354
vt 0.257425 0.540534
vt 0.247118 0.548328
vt 0.214401 0.656975
vt 0.231204 0.661941
vt 0.198957 0.758172
vt 0.225344 0.759814
vt 0.198568 0.845709
vt 0.232935 0.838379
vt 0.219341 0.917970
vt 0.257425 0.909052
vt 0.277856 0.519207
vt 0.278516 0.480099
vt 0.288087 0.418358
vt 0.332837 0.356051
vt 0.300447 0.269791
vn 0.3191 -0.6548 0.6851
vn 0.0718 -0.0659 0.9952
vn 0.0718 0.8390 0.5393
vn 0.6695 0.2879 0.6847
vn 0.5522 -0.2152 0.8054
vn 0.0727 -0.0902 0.9933
vn -0.6906 0.5870 0.4225
vn 0.0000 -0.0000 -1.0000
vn 0.0551 -0.1184 0.9914
vn -0.8355 0.4292 0.3432
vn -0.9718 -0.0626 0.2274
vn -0.6562 -0.7406 0.1448
vn 0.6851 -0.7210 0.1037
vn -0.9157 -0.3289 0.2309
vn 0.0673 -0.0573 0.9961
vn 0.0737 -0.0347 0.9967
usemtl Material
s off
f 61/119/47 66/120/47 65/121/47 60/122/47
f 71/123/48 58/124/48 63/125/48 70/126/48
f 64/127/49 68/128/49 63/129/49 57/130/49
f 57/130/50 63/129/50 58/131/50 59/132/50
f 59/132/51 58/131/51 66/120/51 61/119/51
f 58/124/52 71/123/52 72/133/52 66/134/52
f 62/135/53 67/136/53 68/128/53 64/127/53
f 62/137/54 64/138/54 73/139/54
f 57/140/54 76/141/54 73/139/54 64/138/54
f 57/140/54 59/142/54 74/143/54 76/141/54
f 59/142/54 61/144/54 75/145/54 74/143/54
f 72/133/55 65/146/55 66/134/55
f 61/144/54 60/147/54 75/145/54
f 60/148/56 65/149/56 72/150/56 75/151/56
f 72/150/57 71/152/57 74/153/57 75/151/57
f 71/152/58 70/154/58 76/155/58 74/153/58
f 70/154/59 69/156/59 73/157/59 76/155/59
f 62/135/60 73/158/60 69/159/60 67/136/60
f 68/160/61 70/126/61 63/125/61
f 70/126/62 68/160/62 67/161/62 69/162/62
o R_fan_S
v 110.138779 -70.398193 17.323977
v 89.622475 -0.662832 9.455050
v 78.039520 -1.600033 17.323986
v 153.715302 83.607544 17.324013
v 103.941353 62.332699 17.323984
v 194.679031 -44.075798 17.324020
v 115.408752 -59.394848 3.779159
v 169.131287 -73.698112 17.323997
v 150.582397 80.732452 14.150356
v 108.023041 58.668194 13.767939
v 186.661224 -41.761051 0.215511
v 165.471985 -65.067749 0.117458
v 177.478012 -5.077592 1.407963
v 154.837341 -25.997175 3.118421
v 128.769287 -1.515301 6.740025
v 127.659042 40.334538 10.511868
v 177.799423 -2.950715 17.323990
v 131.182343 -1.432724 17.323996
v 129.379883 38.786854 17.324007
v 154.947342 -23.470182 17.323997
vt 0.148357 0.031566
vt 0.278517 0.010664
vt 0.270214 0.020565
vt 0.156144 0.045452
vt 0.180950 0.274387
vt 0.251205 0.326610
vt 0.165061 0.418358
vt 0.085756 0.283064
vt 0.090069 0.455805
vt 0.010664 0.335806
vt 0.052709 0.321555
vt 0.123748 0.421999
vt 0.031312 0.152074
vt 0.062926 0.165064
vt 0.113156 0.133914
vt 0.166148 0.173094
vt 0.170257 0.507239
vt 0.187740 0.464304
vt 0.556066 0.272782
vt 0.449644 0.252905
vt 0.614044 0.197191
vt 0.576954 0.058160
vt 0.487252 0.188250
vt 0.422932 0.142500
vt 0.397007 0.015700
vt 0.326137 0.158125
vt 0.257392 0.109131
vt 0.209757 0.068343
vt 0.231319 0.238354
vt 0.257425 0.540534
vt 0.231204 0.661941
vt 0.214401 0.656975
vt 0.247118 0.548328
vt 0.225344 0.759814
vt 0.198957 0.758172
vt 0.232935 0.838379
vt 0.198568 0.845709
vt 0.257425 0.909052
vt 0.219341 0.917970
vt 0.278516 0.480099
vt 0.277856 0.519207
vt 0.288087 0.418358
vt 0.300447 0.269791
vt 0.332837 0.356051
vn -0.3072 0.6605 -0.6851
vn -0.0706 0.0672 -0.9952
vn -0.0870 -0.8376 -0.5393
vn -0.6746 -0.2757 -0.6847
vn -0.5482 0.2252 -0.8054
vn -0.0710 0.0915 -0.9933
vn 0.6798 -0.5995 -0.4225
vn -0.0000 0.0000 1.0000
vn -0.0530 0.1194 -0.9914
vn 0.8276 -0.4443 -0.3432
vn 0.9728 0.0450 -0.2274
vn 0.6695 0.7285 -0.1448
vn -0.6719 0.7333 -0.1037
vn 0.9215 0.3122 -0.2309
vn -0.0662 0.0585 -0.9961
vn -0.0731 0.0361 -0.9967
usemtl Material
s off
f 81/163/63 80/164/63 85/165/63 86/166/63
f 91/167/64 90/168/64 83/169/64 78/170/64
f 84/171/65 77/172/65 83/173/65 88/174/65
f 77/172/66 79/175/66 78/176/66 83/173/66
f 79/175/67 81/163/67 86/166/67 78/176/67
f 78/170/68 86/177/68 92/178/68 91/167/68
f 82/179/69 84/171/69 88/174/69 87/180/69
f 82/181/70 93/182/70 84/183/70
f 77/184/70 84/183/70 93/182/70 96/185/70
f 77/184/70 96/185/70 94/186/70 79/187/70
f 79/187/70 94/186/70 95/188/70 81/189/70
f 92/178/71 86/177/71 85/190/71
f 81/189/70 95/188/70 80/191/70
f 80/192/72 95/193/72 92/194/72 85/195/72
f 92/194/73 95/193/73 94/196/73 91/197/73
f 91/197/74 94/196/74 96/198/74 90/199/74
f 90/199/75 96/198/75 93/200/75 89/201/75
f 82/179/76 87/180/76 89/202/76 93/203/76
f 88/204/77 83/169/77 90/168/77
f 90/168/78 89/205/78 87/206/78 88/204/78
