# Blender v2.78 (sub 0) OBJ File: ''
# www.blender.org
mtllib maskA_4.mtl
o back
v 0.000000 241.564774 23.233463
v 0.000000 -0.000008 23.233381
v 244.846619 -0.000008 23.233383
v 220.361954 217.526108 23.233456
v 0.000000 -241.564774 23.233303
v 220.361954 -217.526108 23.233311
v -220.361954 217.526108 23.233456
v -244.846619 -0.000008 23.233383
v -220.361954 -217.526108 23.233311
vt 0.2936 0.6206
vt 0.3262 0.3214
vt 0.6295 0.3545
vt 0.5698 0.6206
vt 0.3589 0.0223
vt 0.6285 0.0818
vt 0.0239 0.5611
vt 0.0230 0.2884
vt 0.0827 0.0223
vn 0.0000 -0.0000 1.0000
usemtl Material.001
s 1
f 1/1/1 2/2/1 3/3/1 4/4/1
f 5/5/1 6/6/1 3/3/1 2/2/1
f 1/1/1 7/7/1 8/8/1 2/2/1
f 5/5/1 2/2/1 8/8/1 9/9/1
