# Blender v2.78 (sub 0) OBJ File: ''
# www.blender.org
mtllib maskA_5.mtl
o mid_eye
v 0.000000 23.412340 147.280396
v 0.000000 -26.409546 147.280396
v 37.366413 -13.954072 147.280396
v 49.821880 23.412340 147.280396
v 37.366413 60.778763 147.280441
v 0.000000 73.234238 147.280441
v -49.821880 23.412340 147.280396
v -37.366413 -13.954072 147.280396
v -37.366413 60.778763 147.280441
vt 0.1078 0.8972
vt 0.1078 0.8049
vt 0.1770 0.8280
vt 0.2001 0.8972
vt 0.1770 0.9664
vt 0.1078 0.9894
vt 0.0156 0.8972
vt 0.0386 0.8280
vt 0.0386 0.9664
vn -0.0000 -0.0000 1.0000
usemtl Material.001
s 1
f 1/1/1 2/2/1 3/3/1 4/4/1
f 1/1/1 4/4/1 5/5/1 6/6/1
f 1/1/1 7/7/1 8/8/1 2/2/1
f 1/1/1 6/6/1 9/9/1 7/7/1
