# Blender v2.78 (sub 0) OBJ File: 'weapon_a.blend'
# www.blender.org
mtllib sworda.mtl
o sword_a
v 34.094891 307.214813 16.775387
v 11.644567 234.527039 3.813685
v 11.644567 284.402985 3.813685
v 34.094891 300.330200 16.775387
v 11.644567 206.595108 3.813685
v 13.199852 220.561066 4.711629
v 0.000000 95.936348 11.161125
v 0.000000 177.843643 11.161125
v 0.000000 -30.985321 11.161125
v 0.000000 -77.352264 6.197355
v -34.094891 307.214813 16.775387
v 0.000000 307.214813 36.460083
v -11.644567 234.527039 3.813685
v -11.644567 284.402985 3.813685
v 0.000000 234.527039 10.536679
v 0.000000 284.402985 10.536679
v 0.000000 300.330200 36.460083
v -34.094891 300.330200 16.775387
v -11.644567 206.595108 3.813685
v 0.000000 206.595108 10.536679
v 0.000000 220.561066 12.332566
v -13.199852 220.561066 4.711629
v 67.221603 95.936348 -2.909311
v 11.644567 206.595108 -2.909311
v 58.684959 192.872559 -2.909311
v 31.407845 -77.352264 -2.909311
v 52.814213 -30.985321 -2.909311
v 34.094891 307.214813 -22.594009
v 11.644567 234.527039 -9.632307
v 11.644567 284.402985 -9.632307
v 34.094891 300.330200 -22.594009
v 11.644567 206.595108 -9.632307
v 13.199852 220.561066 -10.530251
v 11.644567 234.527039 -2.909311
v 11.644567 284.402985 -2.909311
v 34.094894 307.214813 -2.909311
v 34.094894 300.330200 -2.909311
v 13.199852 220.561066 -2.909311
v 0.000000 95.936348 -16.979748
v 0.000000 177.843643 -16.979748
v 0.000000 -30.985321 -16.979748
v 0.000000 -77.352264 -12.015978
v -67.221603 95.936348 -2.909311
v -11.644567 206.595108 -2.909311
v 0.000000 206.595108 -2.909311
v -58.684959 192.872559 -2.909311
v -31.407845 -77.352264 -2.909311
v 0.000000 -98.787140 -2.909311
v -52.814213 -30.985321 -2.909311
v -34.094891 307.214813 -22.594009
v 0.000000 307.214813 -42.278702
v -11.644567 234.527039 -9.632307
v -11.644567 284.402985 -9.632307
v 0.000000 234.527039 -16.355301
v 0.000000 284.402985 -16.355301
v 0.000000 300.330200 -42.278702
v -34.094891 300.330200 -22.594009
v -11.644567 206.595108 -9.632307
v 0.000000 206.595108 -16.355301
v 0.000000 220.561066 -18.151188
v -13.199852 220.561066 -10.530251
v -11.644567 234.527039 -2.909311
v -11.644567 284.402985 -2.909311
v -34.094894 307.214813 -2.909311
v -34.094894 300.330200 -2.909311
v -13.199852 220.561066 -2.909311
v 0.000000 307.214813 -2.909311
vt 0.5214 0.6699
vt 0.6654 0.7058
vt 0.5549 0.7440
vt 0.5214 0.4745
vt 0.6852 0.4745
vt 0.6513 0.1715
vt 0.5214 0.1737
vt 0.5214 0.0653
vt 0.5987 0.0603
vt 0.5214 0.0100
vt 0.9431 0.4788
vt 0.9250 0.4788
vt 0.9271 0.4453
vt 0.9431 0.4453
vt 0.8441 0.4398
vt 0.8763 0.4460
vt 0.8718 0.4798
vt 0.8374 0.4720
vt 0.9431 0.5122
vt 0.9431 0.6310
vt 0.9271 0.6310
vt 0.9271 0.5122
vt 0.8621 0.5116
vt 0.8380 0.6283
vt 0.8043 0.6296
vt 0.8305 0.5045
vt 0.7902 0.6964
vt 0.8763 0.6963
vt 0.8763 0.7119
vt 0.7870 0.7118
vt 0.0100 0.8451
vt 0.0569 0.7639
vt 0.1037 0.7639
vt 0.1037 0.8451
vt 0.8963 0.6966
vt 0.9431 0.6966
vt 0.9431 0.7130
vt 0.8963 0.7130
vt 0.9096 0.3714
vt 0.8586 0.3709
vt 0.4879 0.7440
vt 0.3774 0.7058
vt 0.3576 0.4745
vt 0.3916 0.1715
vt 0.4441 0.0603
vt 0.9431 0.1173
vt 0.9431 0.0838
vt 0.9592 0.0838
vt 0.9613 0.1173
vt 0.8027 0.4652
vt 0.8121 0.4325
vt 0.9431 0.1508
vt 0.9592 0.1508
vt 0.9592 0.2695
vt 0.9431 0.2695
vt 0.7988 0.4983
vt 0.7738 0.6148
vt 0.7052 0.6760
vt 0.7115 0.6617
vt 0.1037 0.9263
vt 0.0569 0.9263
vt 0.9900 0.3351
vt 0.9900 0.3515
vt 0.9431 0.3515
vt 0.9431 0.3351
vt 0.9766 0.0100
vt 0.1738 0.6699
vt 0.1403 0.7440
vt 0.0298 0.7058
vt 0.1738 0.4745
vt 0.0100 0.4745
vt 0.0440 0.1715
vt 0.0965 0.0603
vt 0.1738 0.0653
vt 0.1738 0.1737
vt 0.1738 0.0100
vt 0.9592 0.4453
vt 0.9613 0.4788
vt 0.8441 0.0788
vt 0.8374 0.1110
vt 0.8027 0.1043
vt 0.8122 0.0716
vt 0.9592 0.5122
vt 0.9592 0.6310
vt 0.7988 0.1373
vt 0.8305 0.1436
vt 0.8043 0.2686
vt 0.7738 0.2539
vt 0.7902 0.3355
vt 0.7870 0.3508
vt 0.7052 0.3150
vt 0.7115 0.3007
vt 0.1975 0.8451
vt 0.1506 0.7639
vt 0.9900 0.6966
vt 0.9900 0.7130
vt 0.9766 0.3714
vt 0.8586 0.0100
vt 0.3178 0.7058
vt 0.2073 0.7440
vt 0.3376 0.4745
vt 0.3037 0.1715
vt 0.2511 0.0603
vt 0.9250 0.1173
vt 0.9271 0.0838
vt 0.8763 0.0851
vt 0.8718 0.1188
vt 0.9271 0.2695
vt 0.9271 0.1508
vt 0.8621 0.1506
vt 0.8380 0.2673
vt 0.8763 0.3354
vt 0.8763 0.3510
vt 0.1506 0.9263
vt 0.8963 0.3351
vt 0.8963 0.3515
vt 0.9096 0.0100
vn 0.1162 0.3982 0.9099
vn 0.2169 0.0104 0.9761
vn 0.2637 -0.1121 0.9581
vn 0.2282 -0.0130 0.9735
vn 0.2578 -0.3778 0.8893
vn 0.9939 -0.1107 0.0000
vn 0.4969 -0.1107 0.8607
vn 1.0000 0.0000 0.0000
vn 0.5000 0.0000 0.8660
vn 0.9939 0.1107 0.0000
vn 0.2893 -0.8156 0.5011
vn 0.4969 0.1107 0.8607
vn 0.0000 1.0000 0.0000
vn 0.5786 -0.8156 0.0000
vn 0.9269 -0.3754 0.0000
vn 0.4999 0.0188 0.8659
vn -0.1162 0.3982 0.9099
vn -0.2169 0.0104 0.9761
vn -0.2637 -0.1121 0.9581
vn -0.2282 -0.0130 0.9735
vn -0.2578 -0.3778 0.8893
vn -0.9939 -0.1107 0.0000
vn -0.4969 -0.1107 0.8607
vn -1.0000 0.0000 0.0000
vn -0.5000 0.0000 0.8660
vn -0.9939 0.1107 0.0000
vn -0.2893 -0.8156 0.5011
vn -0.4969 0.1107 0.8607
vn -0.5786 -0.8156 0.0000
vn -0.9269 -0.3754 0.0000
vn -0.4999 0.0188 0.8659
vn 0.1162 0.3982 -0.9099
vn 0.2169 0.0104 -0.9761
vn 0.2637 -0.1121 -0.9581
vn 0.2282 -0.0130 -0.9735
vn 0.2578 -0.3778 -0.8893
vn 0.4969 -0.1107 -0.8607
vn 0.5000 0.0000 -0.8660
vn 0.2893 -0.8156 -0.5011
vn 0.4969 0.1107 -0.8607
vn 0.4999 0.0188 -0.8659
vn -0.1162 0.3982 -0.9099
vn -0.2169 0.0104 -0.9761
vn -0.2637 -0.1121 -0.9581
vn -0.2282 -0.0130 -0.9735
vn -0.2578 -0.3778 -0.8893
vn -0.4969 -0.1107 -0.8607
vn -0.5000 0.0000 -0.8660
vn -0.2893 -0.8156 -0.5011
vn -0.4969 0.1107 -0.8607
vn -0.4999 0.0188 -0.8659
usemtl Material.001
s off
f 8/1/1 25/2/1 24/3/1
f 7/4/2 23/5/2 25/2/2 8/1/2
f 27/6/3 9/7/3 10/8/3 26/9/3
f 23/5/4 7/4/4 9/7/4 27/6/4
f 26/9/5 10/8/5 48/10/5
f 38/11/6 6/12/6 5/13/6 24/14/6
f 20/15/7 5/16/7 6/17/7 21/18/7
f 34/19/8 35/20/8 3/21/8 2/22/8
f 2/23/9 3/24/9 16/25/9 15/26/9
f 17/27/9 4/28/9 1/29/9 12/30/9
f 34/19/10 2/22/10 6/12/10 38/11/10
f 16/25/11 3/24/11 4/28/11 17/27/11
f 21/18/12 6/17/12 2/23/12 15/26/12
f 12/31/13 1/32/13 36/33/13 67/34/13
f 4/35/8 37/36/8 36/37/8 1/38/8
f 3/21/14 35/20/14 37/36/14 4/35/14
f 8/39/15 24/14/15 5/13/15
f 20/15/16 8/40/16 5/16/16
f 8/1/17 44/41/17 46/42/17
f 7/4/18 8/1/18 46/42/18 43/43/18
f 49/44/19 47/45/19 10/8/19 9/7/19
f 43/43/20 49/44/20 9/7/20 7/4/20
f 47/45/21 48/10/21 10/8/21
f 66/46/22 44/47/22 19/48/22 22/49/22
f 20/15/23 21/18/23 22/50/23 19/51/23
f 62/52/24 13/53/24 14/54/24 63/55/24
f 13/56/25 15/26/25 16/25/25 14/57/25
f 17/27/25 12/30/25 11/58/25 18/59/25
f 62/52/26 66/46/26 22/49/26 13/53/26
f 16/25/27 17/27/27 18/59/27 14/57/27
f 21/18/28 15/26/28 13/56/28 22/50/28
f 12/31/13 67/34/13 64/60/13 11/61/13
f 18/62/24 11/63/24 64/64/24 65/65/24
f 14/54/29 18/62/29 65/65/29 63/55/29
f 8/66/30 19/48/30 44/47/30
f 20/15/31 19/51/31 8/40/31
f 40/67/32 24/68/32 25/69/32
f 39/70/33 40/67/33 25/69/33 23/71/33
f 27/72/34 26/73/34 42/74/34 41/75/34
f 23/71/35 27/72/35 41/75/35 39/70/35
f 26/73/36 48/76/36 42/74/36
f 38/11/6 24/14/6 32/77/6 33/78/6
f 59/79/37 60/80/37 33/81/37 32/82/37
f 34/19/8 29/83/8 30/84/8 35/20/8
f 29/85/38 54/86/38 55/87/38 30/88/38
f 56/89/38 51/90/38 28/91/38 31/92/38
f 34/19/10 38/11/10 33/78/10 29/83/10
f 55/87/39 56/89/39 31/92/39 30/88/39
f 60/80/40 54/86/40 29/85/40 33/81/40
f 51/93/13 67/34/13 36/33/13 28/94/13
f 31/95/8 28/96/8 36/37/8 37/36/8
f 30/84/14 31/95/14 37/36/14 35/20/14
f 40/97/15 32/77/15 24/14/15
f 59/79/41 32/82/41 40/98/41
f 40/67/42 46/99/42 44/100/42
f 39/70/43 43/101/43 46/99/43 40/67/43
f 49/102/44 41/75/44 42/74/44 47/103/44
f 43/101/45 39/70/45 41/75/45 49/102/45
f 47/103/46 42/74/46 48/76/46
f 66/46/22 61/104/22 58/105/22 44/47/22
f 59/79/47 58/106/47 61/107/47 60/80/47
f 62/52/24 63/55/24 53/108/24 52/109/24
f 52/110/48 53/111/48 55/87/48 54/86/48
f 56/89/48 57/112/48 50/113/48 51/90/48
f 62/52/26 52/109/26 61/104/26 66/46/26
f 55/87/49 53/111/49 57/112/49 56/89/49
f 60/80/50 61/107/50 52/110/50 54/86/50
f 51/93/13 50/114/13 64/60/13 67/34/13
f 57/115/24 65/65/24 64/64/24 50/116/24
f 53/108/29 63/55/29 65/65/29 57/115/29
f 40/117/30 44/47/30 58/105/30
f 59/79/51 40/98/51 58/106/51
l 24 45
l 44 45
