# This file uses centimeters as units for non-parametric coordinates.

mtllib cloth_3.mtl
g default
v -80.727783 -385.162292 -47.551636
v -80.661568 -320.592377 -47.762970
v -78.457047 -380.642578 -25.869419
v -78.164368 -312.762512 -26.803356
v -61.700203 -379.011322 -9.501010
v -61.700203 -308.521332 -9.501010
v -38.598633 -380.642578 -13.378304
v -38.305943 -312.762512 -14.312241
v -24.359476 -385.162292 -29.886547
v -24.293243 -320.592377 -30.097878
v -26.529102 -392.158600 -51.891479
v -26.400209 -329.727234 -52.302776
v -43.676186 -394.244659 -67.014610
v -42.669235 -335.925842 -70.227745
v -66.387512 -392.158600 -64.382599
v -66.258621 -329.727234 -64.793892
v -83.644264 -386.909729 -9.317340
v -65.324333 -382.006256 2.063378
v -43.785839 -386.909729 3.173776
v -81.051804 -429.338135 -46.517723
v -24.683498 -429.338135 -28.852623
v -26.692894 -427.380646 -51.368828
v -43.839981 -424.640198 -66.491966
v -66.551300 -427.380646 -63.859943
v -90.608574 -405.146393 -16.022648
v -74.281731 -388.431702 30.645874
v -89.775482 -393.790527 21.020832
v -34.240261 -405.146393 1.642458
v -90.608574 -429.338135 -16.022648
v -34.240261 -429.338135 1.642458
v -56.065929 -393.790527 31.584969
v -96.563469 -407.654510 18.215565
v -48.890968 -407.654510 33.155518
v -96.453987 -427.624115 17.823936
v -48.757359 -427.624115 32.771446
v -84.025620 -394.063599 61.738052
v -95.353325 -397.201172 50.025703
v -68.039452 -397.201172 58.585526
v -101.672234 -407.510101 50.365406
v -63.044590 -407.510101 62.470810
v -101.447205 -421.626251 49.999523
v -63.020554 -421.626251 62.041946
v -84.400909 -403.970337 62.935608
v -84.296265 -414.759552 62.601700
v -53.291260 -428.305176 -36.333496
v -62.558899 -428.647552 -6.760977
v -72.001266 -426.913605 23.369022
v -80.788368 -422.478302 51.408173
v 80.727783 -385.162292 -47.551636
v 80.661568 -320.592377 -47.762970
v 78.457047 -380.642578 -25.869419
v 78.164368 -312.762512 -26.803356
v 61.700203 -379.011322 -9.501010
v 61.700203 -308.521332 -9.501010
v 38.598633 -380.642578 -13.378304
v 38.305943 -312.762512 -14.312241
v 24.359476 -385.162292 -29.886547
v 24.293243 -320.592377 -30.097878
v 26.529102 -392.158600 -51.891479
v 26.400209 -329.727234 -52.302776
v 43.676186 -394.244659 -67.014610
v 42.669235 -335.925842 -70.227745
v 66.387512 -392.158600 -64.382599
v 66.258621 -329.727234 -64.793892
v 83.644264 -386.909729 -9.317340
v 65.324333 -382.006256 2.063378
v 43.785839 -386.909729 3.173776
v 81.051804 -429.338135 -46.517723
v 24.683498 -429.338135 -28.852623
v 26.692894 -427.380646 -51.368828
v 43.839981 -424.640198 -66.491966
v 66.551300 -427.380646 -63.859943
v 90.608574 -405.146393 -16.022648
v 74.281731 -388.431702 30.645874
v 89.775482 -393.790527 21.020832
v 34.240261 -405.146393 1.642458
v 90.608574 -429.338135 -16.022648
v 34.240261 -429.338135 1.642458
v 56.065929 -393.790527 31.584969
v 96.563469 -407.654510 18.215565
v 48.890968 -407.654510 33.155518
v 96.453987 -427.624115 17.823936
v 48.757359 -427.624115 32.771446
v 84.025620 -394.063599 61.738052
v 95.353325 -397.201172 50.025703
v 68.039452 -397.201172 58.585526
v 101.672234 -407.510101 50.365406
v 63.044590 -407.510101 62.470810
v 101.447205 -421.626251 49.999523
v 63.020554 -421.626251 62.041946
v 84.400909 -403.970337 62.935608
v 84.296265 -414.759552 62.601700
v 53.291260 -428.305176 -36.333496
v 62.558899 -428.647552 -6.760977
v 72.001266 -426.913605 23.369022
v 80.788368 -422.478302 51.408173
vt 0.797562 0.468640
vt 0.819167 0.472974
vt 0.818712 0.540161
vt 0.797772 0.532545
vt 0.842350 0.474594
vt 0.842350 0.544358
vt 0.865533 0.472974
vt 0.865988 0.540161
vt 0.887137 0.468640
vt 0.886927 0.532545
vt 0.909065 0.461857
vt 0.909060 0.523647
vt 0.931694 0.459800
vt 0.933040 0.517598
vt 0.753005 0.459800
vt 0.775634 0.461857
vt 0.775639 0.523647
vt 0.751660 0.517598
vt 0.916575 0.729477
vt 0.904468 0.726351
vt 0.913850 0.706165
vt 0.931658 0.711386
vt 0.804476 0.875500
vt 0.786668 0.880722
vt 0.777285 0.860535
vt 0.789393 0.857409
vt 0.952389 0.703012
vt 0.947565 0.658934
vt 0.970333 0.658934
vt 0.973888 0.694103
vt 0.846706 0.892784
vt 0.843151 0.927952
vt 0.820383 0.927952
vt 0.825207 0.883874
vt 0.993432 0.659509
vt 0.996531 0.689856
vt 0.869348 0.897030
vt 0.866250 0.927378
vt 0.917687 0.685759
vt 0.790504 0.901127
vt 0.788451 0.925242
vt 0.915633 0.661645
vt 0.754362 0.920508
vt 0.755846 0.900917
vt 0.755149 0.885346
vt 0.747301 0.867848
vt 0.883029 0.685969
vt 0.881544 0.666378
vt 0.874483 0.719039
vt 0.882332 0.701540
vt 0.854947 0.699135
vt 0.853467 0.688762
vt 0.727765 0.887751
vt 0.715873 0.877141
vt 0.843056 0.709745
vt 0.850354 0.675781
vt 0.726284 0.898124
vt 0.723172 0.911105
vt 0.710180 0.885974
vt 0.705340 0.896411
vt 0.837363 0.700912
vt 0.832523 0.690475
vt 0.832957 0.984851
vt 0.812231 0.993371
vt 0.810934 0.964129
vt 0.842408 0.964167
vt 0.780667 0.993295
vt 0.780247 0.964092
vt 0.780737 0.934891
vt 0.812301 0.934891
vt 0.748927 0.964055
vt 0.747084 0.939321
vt 0.747024 0.988783
vt 0.714635 0.984095
vt 0.719304 0.964019
vt 0.714684 0.943932
vt 0.833007 0.943460
vt 0.705340 0.964002
vt 0.887154 0.377158
vt 0.886922 0.441063
vt 0.865980 0.448672
vt 0.865548 0.381485
vt 0.842340 0.452861
vt 0.842364 0.383097
vt 0.818704 0.448655
vt 0.819182 0.381469
vt 0.797767 0.441032
vt 0.797579 0.377127
vt 0.775637 0.432127
vt 0.775653 0.370337
vt 0.751660 0.426070
vt 0.753025 0.368271
vt 0.931714 0.368333
vt 0.933040 0.426132
vt 0.909058 0.432173
vt 0.909085 0.370383
vt 0.588411 0.900989
vt 0.603495 0.919080
vt 0.585686 0.924302
vt 0.576304 0.904115
vt 0.405801 0.933581
vt 0.390717 0.951672
vt 0.378610 0.948546
vt 0.387993 0.928359
vt 0.624225 0.927454
vt 0.645724 0.936364
vt 0.642169 0.971532
vt 0.619401 0.971532
vt 0.448031 0.916297
vt 0.426532 0.925207
vt 0.421708 0.881129
vt 0.444476 0.881129
vt 0.668367 0.940610
vt 0.665268 0.970957
vt 0.470673 0.912051
vt 0.467575 0.881704
vt 0.589523 0.944707
vt 0.391829 0.907954
vt 0.389776 0.883839
vt 0.587469 0.968822
vt 0.357171 0.908164
vt 0.355687 0.888573
vt 0.348626 0.941233
vt 0.356474 0.923734
vt 0.553380 0.964088
vt 0.554865 0.944497
vt 0.554168 0.928927
vt 0.546319 0.911428
vt 0.525303 0.941705
vt 0.526783 0.931331
vt 0.317198 0.931940
vt 0.329090 0.921330
vt 0.514892 0.920721
vt 0.522191 0.954686
vt 0.327609 0.910957
vt 0.324497 0.897975
vt 0.311505 0.923106
vt 0.306665 0.912669
vt 0.509199 0.929555
vt 0.504359 0.939992
vt 0.977013 0.943460
vt 0.986414 0.964167
vt 0.954940 0.964129
vt 0.956307 0.934891
vt 0.924253 0.964092
vt 0.924743 0.934891
vt 0.956237 0.993371
vt 0.924673 0.993295
vt 0.891030 0.988783
vt 0.892933 0.964055
vt 0.891090 0.939321
vt 0.863310 0.964019
vt 0.858689 0.943932
vt 0.858641 0.984095
vt 0.976963 0.984851
vt 0.849346 0.964002
vn -0.993914 0.003600 0.110102
vn -0.993914 0.003600 0.110102
vn -0.993914 0.003600 0.110102
vn -0.993914 0.003600 0.110102
vn -0.712373 0.006200 0.701773
vn -0.712373 0.006200 0.701773
vn -0.712373 0.006200 0.701773
vn -0.712373 0.006200 0.701773
vn 0.184406 0.006200 0.982831
vn 0.184406 0.006200 0.982831
vn 0.184406 0.006200 0.982831
vn 0.184406 0.006200 0.982831
vn 0.753333 0.003600 0.657629
vn 0.753333 0.003600 0.657629
vn 0.753333 0.003600 0.657629
vn 0.753333 0.003600 0.657629
vn 0.995418 -0.002000 -0.095602
vn 0.995418 -0.002000 -0.095602
vn 0.995418 -0.002000 -0.095602
vn 0.995418 -0.002000 -0.095602
vn 0.706381 -0.027899 -0.707281
vn 0.706381 -0.027899 -0.707281
vn 0.706381 -0.027899 -0.707281
vn 0.706381 -0.027899 -0.707281
vn -0.176404 -0.027901 -0.983922
vn -0.176404 -0.027901 -0.983922
vn -0.176404 -0.027901 -0.983922
vn -0.176404 -0.027901 -0.983922
vn -0.762816 -0.002000 -0.646613
vn -0.762816 -0.002000 -0.646613
vn -0.762816 -0.002000 -0.646613
vn -0.762816 -0.002000 -0.646613
vn 0.156896 0.922378 0.352991
vn 0.156896 0.922378 0.352991
vn 0.156896 0.922378 0.352991
vn 0.156896 0.922378 0.352991
vn -0.330293 0.922382 0.200296
vn -0.330293 0.922382 0.200296
vn -0.330293 0.922382 0.200296
vn -0.330293 0.922382 0.200296
vn 0.995672 -0.007900 -0.092597
vn 0.995672 -0.007900 -0.092597
vn 0.995672 -0.007900 -0.092597
vn 0.995672 -0.007900 -0.092597
vn -0.764760 -0.007900 -0.644267
vn -0.764760 -0.007900 -0.644267
vn -0.764760 -0.007900 -0.644267
vn -0.764760 -0.007900 -0.644267
vn 0.661228 -0.015201 -0.750031
vn 0.661228 -0.015201 -0.750031
vn 0.661228 -0.015201 -0.750031
vn 0.661228 -0.015201 -0.750031
vn -0.114896 -0.015199 -0.993261
vn -0.114896 -0.015199 -0.993261
vn -0.114896 -0.015199 -0.993261
vn -0.114896 -0.015199 -0.993261
vn 0.769269 0.427783 0.474581
vn 0.769269 0.427783 0.474581
vn 0.769269 0.427783 0.474581
vn 0.769269 0.427783 0.474581
vn -0.902523 0.427811 -0.049301
vn -0.902523 0.427811 -0.049301
vn -0.902523 0.427811 -0.049301
vn -0.902523 0.427811 -0.049301
vn -0.954248 0.000000 -0.299015
vn -0.954248 0.000000 -0.299015
vn -0.954248 0.000000 -0.299015
vn -0.954248 0.000000 -0.299015
vn 0.954248 -0.000000 0.299015
vn 0.954248 -0.000000 0.299015
vn 0.954248 -0.000000 0.299015
vn 0.954248 -0.000000 0.299015
vn -0.985305 -0.000900 -0.170801
vn -0.985305 -0.000900 -0.170801
vn -0.985305 -0.000900 -0.170801
vn -0.985305 -0.000900 -0.170801
vn -0.355008 0.927322 0.118503
vn -0.355008 0.927322 0.118503
vn -0.355008 0.927322 0.118503
vn -0.355008 0.927322 0.118503
vn -0.901853 0.418325 -0.108006
vn -0.901853 0.418325 -0.108006
vn -0.901853 0.418325 -0.108006
vn -0.901853 0.418325 -0.108006
vn 0.906540 -0.000900 0.422119
vn 0.906540 -0.000900 0.422119
vn 0.906540 -0.000900 0.422119
vn 0.906540 -0.000900 0.422119
vn 0.223905 0.927320 0.299907
vn 0.223905 0.927320 0.299907
vn 0.223905 0.927320 0.299907
vn 0.223905 0.927320 0.299907
vn 0.802176 0.418287 0.426087
vn 0.802176 0.418287 0.426087
vn 0.802176 0.418287 0.426087
vn 0.802176 0.418287 0.426087
vn 0.783398 0.482799 0.391399
vn 0.783398 0.482799 0.391399
vn 0.783398 0.482799 0.391399
vn 0.783398 0.482799 0.391399
vn -0.340611 0.938629 0.054402
vn -0.340611 0.938629 0.054402
vn -0.340611 0.938629 0.054402
vn -0.340611 0.938629 0.054402
vn 0.248607 0.938628 0.239107
vn 0.248607 0.938628 0.239107
vn 0.248607 0.938628 0.239107
vn 0.248607 0.938628 0.239107
vn 0.899490 -0.006300 0.436895
vn 0.899490 -0.006300 0.436895
vn 0.899490 -0.006300 0.436895
vn 0.899490 -0.006300 0.436895
vn -0.866672 0.482784 -0.125696
vn -0.866672 0.482784 -0.125696
vn -0.866672 0.482784 -0.125696
vn -0.866672 0.482784 -0.125696
vn -0.987958 -0.006300 -0.154593
vn -0.987958 -0.006300 -0.154593
vn -0.987958 -0.006300 -0.154593
vn -0.987958 -0.006300 -0.154593
vn -0.658997 0.271599 0.701397
vn -0.658997 0.271599 0.701397
vn -0.658997 0.271599 0.701397
vn -0.658997 0.271599 0.701397
vn -0.583991 -0.030500 0.811187
vn -0.583991 -0.030500 0.811187
vn -0.583991 -0.030500 0.811187
vn -0.583991 -0.030500 0.811187
vn 0.016600 -0.030500 0.999397
vn 0.016600 -0.030500 0.999397
vn 0.016600 -0.030500 0.999397
vn 0.016600 -0.030500 0.999397
vn 0.140794 0.271588 0.952059
vn 0.140794 0.271588 0.952059
vn 0.140794 0.271588 0.952059
vn 0.140794 0.271588 0.952059
vn -0.027599 -0.993549 -0.109994
vn -0.027599 -0.993549 -0.109994
vn -0.027599 -0.993549 -0.109994
vn -0.027599 -0.993549 -0.109994
vn -0.026399 -0.999554 -0.013999
vn -0.026399 -0.999554 -0.013999
vn -0.026399 -0.999554 -0.013999
vn -0.026399 -0.999554 -0.013999
vn 0.029599 -0.999555 0.003600
vn 0.029599 -0.999555 0.003600
vn 0.029599 -0.999555 0.003600
vn 0.029599 -0.999555 0.003600
vn 0.010699 -0.998351 0.056397
vn 0.010699 -0.998351 0.056397
vn 0.010699 -0.998351 0.056397
vn 0.010699 -0.998351 0.056397
vn -0.040998 -0.998350 0.040198
vn -0.040998 -0.998350 0.040198
vn -0.040998 -0.998350 0.040198
vn -0.040998 -0.998350 0.040198
vn -0.070400 -0.985993 0.151199
vn -0.070400 -0.985993 0.151199
vn -0.070400 -0.985993 0.151199
vn -0.070400 -0.985993 0.151199
vn -0.028400 -0.986001 0.164300
vn -0.028400 -0.986001 0.164300
vn -0.028400 -0.986001 0.164300
vn -0.028400 -0.986001 0.164300
vn 0.085396 -0.993558 -0.074497
vn 0.085396 -0.993558 -0.074497
vn 0.085396 -0.993558 -0.074497
vn 0.085396 -0.993558 -0.074497
vn -0.164398 -0.835391 0.524495
vn -0.164398 -0.835391 0.524495
vn -0.164398 -0.835391 0.524495
vn -0.164398 -0.835391 0.524495
vn 0.993914 0.003600 0.110102
vn 0.993914 0.003600 0.110102
vn 0.993914 0.003600 0.110102
vn 0.993914 0.003600 0.110102
vn 0.712373 0.006200 0.701773
vn 0.712373 0.006200 0.701773
vn 0.712373 0.006200 0.701773
vn 0.712373 0.006200 0.701773
vn -0.184406 0.006200 0.982831
vn -0.184406 0.006200 0.982831
vn -0.184406 0.006200 0.982831
vn -0.184406 0.006200 0.982831
vn -0.753333 0.003600 0.657629
vn -0.753333 0.003600 0.657629
vn -0.753333 0.003600 0.657629
vn -0.753333 0.003600 0.657629
vn -0.995418 -0.002000 -0.095602
vn -0.995418 -0.002000 -0.095602
vn -0.995418 -0.002000 -0.095602
vn -0.995418 -0.002000 -0.095602
vn -0.706381 -0.027899 -0.707281
vn -0.706381 -0.027899 -0.707281
vn -0.706381 -0.027899 -0.707281
vn -0.706381 -0.027899 -0.707281
vn 0.176404 -0.027901 -0.983922
vn 0.176404 -0.027901 -0.983922
vn 0.176404 -0.027901 -0.983922
vn 0.176404 -0.027901 -0.983922
vn 0.762816 -0.002000 -0.646613
vn 0.762816 -0.002000 -0.646613
vn 0.762816 -0.002000 -0.646613
vn 0.762816 -0.002000 -0.646613
vn -0.156896 0.922378 0.352991
vn -0.156896 0.922378 0.352991
vn -0.156896 0.922378 0.352991
vn -0.156896 0.922378 0.352991
vn 0.330293 0.922382 0.200296
vn 0.330293 0.922382 0.200296
vn 0.330293 0.922382 0.200296
vn 0.330293 0.922382 0.200296
vn -0.995672 -0.007900 -0.092597
vn -0.995672 -0.007900 -0.092597
vn -0.995672 -0.007900 -0.092597
vn -0.995672 -0.007900 -0.092597
vn 0.764760 -0.007900 -0.644267
vn 0.764760 -0.007900 -0.644267
vn 0.764760 -0.007900 -0.644267
vn 0.764760 -0.007900 -0.644267
vn -0.661228 -0.015201 -0.750031
vn -0.661228 -0.015201 -0.750031
vn -0.661228 -0.015201 -0.750031
vn -0.661228 -0.015201 -0.750031
vn 0.114896 -0.015199 -0.993261
vn 0.114896 -0.015199 -0.993261
vn 0.114896 -0.015199 -0.993261
vn 0.114896 -0.015199 -0.993261
vn -0.769269 0.427783 0.474581
vn -0.769269 0.427783 0.474581
vn -0.769269 0.427783 0.474581
vn -0.769269 0.427783 0.474581
vn 0.902523 0.427811 -0.049301
vn 0.902523 0.427811 -0.049301
vn 0.902523 0.427811 -0.049301
vn 0.902523 0.427811 -0.049301
vn 0.954248 0.000000 -0.299015
vn 0.954248 0.000000 -0.299015
vn 0.954248 0.000000 -0.299015
vn 0.954248 0.000000 -0.299015
vn -0.954248 0.000000 0.299015
vn -0.954248 0.000000 0.299015
vn -0.954248 0.000000 0.299015
vn -0.954248 0.000000 0.299015
vn 0.985305 -0.000900 -0.170801
vn 0.985305 -0.000900 -0.170801
vn 0.985305 -0.000900 -0.170801
vn 0.985305 -0.000900 -0.170801
vn 0.355008 0.927322 0.118503
vn 0.355008 0.927322 0.118503
vn 0.355008 0.927322 0.118503
vn 0.355008 0.927322 0.118503
vn 0.901853 0.418325 -0.108006
vn 0.901853 0.418325 -0.108006
vn 0.901853 0.418325 -0.108006
vn 0.901853 0.418325 -0.108006
vn -0.906540 -0.000900 0.422119
vn -0.906540 -0.000900 0.422119
vn -0.906540 -0.000900 0.422119
vn -0.906540 -0.000900 0.422119
vn -0.223905 0.927320 0.299907
vn -0.223905 0.927320 0.299907
vn -0.223905 0.927320 0.299907
vn -0.223905 0.927320 0.299907
vn -0.802176 0.418287 0.426087
vn -0.802176 0.418287 0.426087
vn -0.802176 0.418287 0.426087
vn -0.802176 0.418287 0.426087
vn -0.783398 0.482799 0.391399
vn -0.783398 0.482799 0.391399
vn -0.783398 0.482799 0.391399
vn -0.783398 0.482799 0.391399
vn 0.340611 0.938629 0.054402
vn 0.340611 0.938629 0.054402
vn 0.340611 0.938629 0.054402
vn 0.340611 0.938629 0.054402
vn -0.248607 0.938628 0.239107
vn -0.248607 0.938628 0.239107
vn -0.248607 0.938628 0.239107
vn -0.248607 0.938628 0.239107
vn -0.899490 -0.006300 0.436895
vn -0.899490 -0.006300 0.436895
vn -0.899490 -0.006300 0.436895
vn -0.899490 -0.006300 0.436895
vn 0.866672 0.482784 -0.125696
vn 0.866672 0.482784 -0.125696
vn 0.866672 0.482784 -0.125696
vn 0.866672 0.482784 -0.125696
vn 0.987958 -0.006300 -0.154593
vn 0.987958 -0.006300 -0.154593
vn 0.987958 -0.006300 -0.154593
vn 0.987958 -0.006300 -0.154593
vn 0.658997 0.271599 0.701397
vn 0.658997 0.271599 0.701397
vn 0.658997 0.271599 0.701397
vn 0.658997 0.271599 0.701397
vn 0.583991 -0.030500 0.811187
vn 0.583991 -0.030500 0.811187
vn 0.583991 -0.030500 0.811187
vn 0.583991 -0.030500 0.811187
vn -0.016600 -0.030500 0.999397
vn -0.016600 -0.030500 0.999397
vn -0.016600 -0.030500 0.999397
vn -0.016600 -0.030500 0.999397
vn -0.140794 0.271588 0.952059
vn -0.140794 0.271588 0.952059
vn -0.140794 0.271588 0.952059
vn -0.140794 0.271588 0.952059
vn 0.027599 -0.993549 -0.109994
vn 0.027599 -0.993549 -0.109994
vn 0.027599 -0.993549 -0.109994
vn 0.027599 -0.993549 -0.109994
vn 0.026399 -0.999554 -0.013999
vn 0.026399 -0.999554 -0.013999
vn 0.026399 -0.999554 -0.013999
vn 0.026399 -0.999554 -0.013999
vn -0.029599 -0.999555 0.003600
vn -0.029599 -0.999555 0.003600
vn -0.029599 -0.999555 0.003600
vn -0.029599 -0.999555 0.003600
vn -0.010699 -0.998351 0.056397
vn -0.010699 -0.998351 0.056397
vn -0.010699 -0.998351 0.056397
vn -0.010699 -0.998351 0.056397
vn 0.040998 -0.998350 0.040198
vn 0.040998 -0.998350 0.040198
vn 0.040998 -0.998350 0.040198
vn 0.040998 -0.998350 0.040198
vn 0.070400 -0.985993 0.151199
vn 0.070400 -0.985993 0.151199
vn 0.070400 -0.985993 0.151199
vn 0.070400 -0.985993 0.151199
vn 0.028400 -0.986001 0.164300
vn 0.028400 -0.986001 0.164300
vn 0.028400 -0.986001 0.164300
vn 0.028400 -0.986001 0.164300
vn -0.085396 -0.993558 -0.074497
vn -0.085396 -0.993558 -0.074497
vn -0.085396 -0.993558 -0.074497
vn -0.085396 -0.993558 -0.074497
vn 0.164398 -0.835391 0.524495
vn 0.164398 -0.835391 0.524495
vn 0.164398 -0.835391 0.524495
vn 0.164398 -0.835391 0.524495
s off
g cloth1:Mesh
usemtl cloth1:Material
f 1/1/1 3/2/2 4/3/3 2/4/4
f 3/2/5 5/5/6 6/6/7 4/3/8
f 5/5/9 7/7/10 8/8/11 6/6/12
f 7/7/13 9/9/14 10/10/15 8/8/16
f 9/9/17 11/11/18 12/12/19 10/10/20
f 11/11/21 13/13/22 14/14/23 12/12/24
f 13/15/25 15/16/26 16/17/27 14/18/28
f 15/16/29 1/1/30 2/4/31 16/17/32
f 5/19/33 18/20/34 19/21/35 7/22/36
f 3/23/37 17/24/38 18/25/39 5/26/40
f 9/27/41 21/28/42 22/29/43 11/30/44
f 15/31/45 24/32/46 20/33/47 1/34/48
f 11/30/49 22/29/50 23/35/51 13/36/52
f 13/37/53 23/38/54 24/32/55 15/31/56
f 7/22/57 19/21/58 28/39/59 9/27/60
f 1/34/61 25/40/62 17/24/63 3/23/64
f 1/34/65 20/33/66 29/41/67 25/40/68
f 28/39/69 30/42/70 21/28/71 9/27/72
f 29/41/73 34/43/74 32/44/75 25/40/76
f 17/24/77 27/45/78 26/46/79 18/25/80
f 25/40/81 32/44/82 27/45/83 17/24/84
f 28/39/85 33/47/86 35/48/87 30/42/88
f 18/20/89 26/49/90 31/50/91 19/21/92
f 19/21/93 31/50/94 33/47/95 28/39/96
f 31/50/97 38/51/98 40/52/99 33/47/100
f 27/45/101 37/53/102 36/54/103 26/46/104
f 26/49/105 36/55/106 38/51/107 31/50/108
f 33/47/109 40/52/110 42/56/111 35/48/112
f 32/44/113 39/57/114 37/53/115 27/45/116
f 34/43/117 41/58/118 39/57/119 32/44/120
f 37/53/121 39/57/122 43/59/123 36/54/124
f 39/57/125 41/58/126 44/60/127 43/59/128
f 43/61/129 44/62/130 42/56/131 40/52/132
f 40/52/133 38/51/134 36/55/135 43/61/136
f 22/63/137 21/64/138 45/65/139 23/66/140
f 21/64/141 30/67/142 46/68/143 45/65/144
f 45/65/145 46/68/146 29/69/147 20/70/148
f 29/69/149 46/68/150 47/71/151 34/72/152
f 47/71/153 46/68/154 30/67/155 35/73/156
f 35/73/157 42/74/158 48/75/159 47/71/160
f 47/71/161 48/75/162 41/76/163 34/72/164
f 20/70/165 24/77/166 23/66/167 45/65/168
f 42/74/169 44/78/170 41/76/171 48/75/172
f 49/79/173 50/80/174 52/81/175 51/82/176
f 51/82/177 52/81/178 54/83/179 53/84/180
f 53/84/181 54/83/182 56/85/183 55/86/184
f 55/86/185 56/85/186 58/87/187 57/88/188
f 57/88/189 58/87/190 60/89/191 59/90/192
f 59/90/193 60/89/194 62/91/195 61/92/196
f 61/93/197 62/94/198 64/95/199 63/96/200
f 63/96/201 64/95/202 50/80/203 49/79/204
f 53/97/205 55/98/206 67/99/207 66/100/208
f 51/101/209 53/102/210 66/103/211 65/104/212
f 57/105/213 59/106/214 70/107/215 69/108/216
f 63/109/217 49/110/218 68/111/219 72/112/220
f 59/106/221 61/113/222 71/114/223 70/107/224
f 61/115/225 63/109/226 72/112/227 71/116/228
f 55/98/229 57/105/230 76/117/231 67/99/232
f 49/110/233 51/101/234 65/104/235 73/118/236
f 49/110/237 73/118/238 77/119/239 68/111/240
f 76/117/241 57/105/242 69/108/243 78/120/244
f 77/119/245 73/118/246 80/121/247 82/122/248
f 65/104/249 66/103/250 74/123/251 75/124/252
f 73/118/253 65/104/254 75/124/255 80/121/256
f 76/117/257 78/120/258 83/125/259 81/126/260
f 66/100/261 67/99/262 79/127/263 74/128/264
f 67/99/265 76/117/266 81/126/267 79/127/268
f 79/127/269 81/126/270 88/129/271 86/130/272
f 75/124/273 74/123/274 84/131/275 85/132/276
f 74/128/277 79/127/278 86/130/279 84/133/280
f 81/126/281 83/125/282 90/134/283 88/129/284
f 80/121/285 75/124/286 85/132/287 87/135/288
f 82/122/289 80/121/290 87/135/291 89/136/292
f 85/132/293 84/131/294 91/137/295 87/135/296
f 87/135/297 91/137/298 92/138/299 89/136/300
f 91/139/301 88/129/302 90/134/303 92/140/304
f 88/129/305 91/139/306 84/133/307 86/130/308
f 70/141/309 71/142/310 93/143/311 69/144/312
f 69/144/313 93/143/314 94/145/315 78/146/316
f 93/143/317 68/147/318 77/148/319 94/145/320
f 77/148/321 82/149/322 95/150/323 94/145/324
f 95/150/325 83/151/326 78/146/327 94/145/328
f 83/151/329 95/150/330 96/152/331 90/153/332
f 95/150/333 82/149/334 89/154/335 96/152/336
f 68/147/337 93/143/338 71/142/339 72/155/340
f 90/153/341 96/152/342 89/154/343 92/156/344
