# Blender v2.78 (sub 0) OBJ File: 'bowl.blend'
# www.blender.org
mtllib bowl.mtl
o bowl
v 11.324549 -44.589283 33.973644
v 11.324549 -57.601082 33.973644
v 8.358105 -57.601082 42.927696
v 8.485190 -25.676641 42.966331
v -11.324549 -44.589283 33.973644
v 0.000000 -44.589283 33.973644
v -11.324549 -57.601082 33.973644
v 0.000000 -57.601082 33.973644
v -8.358105 -57.601082 42.927696
v 0.000000 -57.601082 42.927696
v -8.485190 -25.676641 42.966331
v 0.000000 -25.676641 42.966331
v 45.298195 -44.589283 0.000000
v 11.324549 -44.589283 -33.973644
v 11.324549 -57.601082 -33.973644
v 8.358105 -57.601082 -42.927696
v 8.485190 -25.676641 -42.966331
v -45.298195 -44.589283 0.000000
v -11.324549 -44.589283 -33.973644
v 0.000000 -44.589283 -33.973644
v -11.324549 -57.601082 -33.973644
v 0.000000 -57.601082 -33.973644
v -8.358105 -57.601082 -42.927696
v 0.000000 -57.601082 -42.927696
v -8.485190 -25.676641 -42.966331
v 0.000000 -25.676641 -42.966331
v 0.000000 -44.589283 0.000000
v 1.744807 19.234129 64.314163
v 0.000000 19.234129 64.320602
v 65.896858 19.234129 0.000000
v -66.230736 19.234129 0.000000
v -1.740743 19.234129 64.327034
v 1.744808 19.234129 -64.314163
v 0.000000 19.234129 -64.320602
v -1.740743 19.234129 -64.327034
vt 0.5556 0.7784
vt 0.5554 0.7260
vt 0.6011 0.7258
vt 0.6013 0.7783
vt 0.8694 0.6804
vt 0.8574 0.7165
vt 0.8237 0.7165
vt 0.8237 0.6804
vt 0.5174 0.7261
vt 0.5179 0.8548
vt 0.4836 0.8548
vt 0.4837 0.7261
vt 0.8579 0.5950
vt 0.8237 0.5950
vt 0.8237 0.5105
vt 0.8694 0.5105
vt 0.1829 0.9998
vt 0.1829 0.8627
vt 0.3656 0.8628
vt 0.2285 0.9998
vt 0.4117 0.7784
vt 0.3660 0.7782
vt 0.3663 0.7257
vt 0.4119 0.7259
vt 0.7780 0.6804
vt 0.7900 0.7165
vt 0.4500 0.7261
vt 0.4494 0.8548
vt 0.7895 0.5950
vt 0.7780 0.5105
vt 0.1372 0.9997
vt 0.0002 0.8627
vt 0.6474 0.7784
vt 0.6017 0.7782
vt 0.6019 0.7257
vt 0.6476 0.7259
vt 0.6931 0.8914
vt 0.6474 0.8914
vt 0.6474 0.8552
vt 0.6811 0.8552
vt 0.6857 0.7260
vt 0.7194 0.7260
vt 0.7194 0.8548
vt 0.6851 0.8548
vt 0.8579 0.5954
vt 0.8694 0.6799
vt 0.8237 0.6799
vt 0.8237 0.5954
vt 0.1830 0.7257
vt 0.2286 0.7258
vt 0.7913 0.7784
vt 0.7911 0.7259
vt 0.8368 0.7257
vt 0.8370 0.7782
vt 0.6017 0.8914
vt 0.6137 0.8552
vt 0.7531 0.7260
vt 0.7536 0.8548
vt 0.7895 0.5954
vt 0.7780 0.6799
vt 0.1373 0.7257
vt 0.8455 0.4567
vt 0.8386 0.4577
vt 0.8119 0.2610
vt 0.8455 0.2564
vt 0.3889 0.6739
vt 0.0313 0.5923
vt 0.1498 0.4320
vt 0.1998 0.3630
vt 0.3889 0.4054
vt 0.8317 0.4587
vt 0.7784 0.2655
vt 0.0309 0.1297
vt 0.3889 0.0473
vt 0.3889 0.3201
vt 0.1998 0.3625
vt 0.1498 0.2935
vt 0.7456 0.5920
vt 0.5780 0.3630
vt 0.6280 0.4320
vt 0.8455 0.2017
vt 0.8386 0.2025
vt 0.8119 0.0058
vt 0.8455 0.0012
vt 0.7469 0.1297
vt 0.6280 0.2935
vt 0.5780 0.3625
vt 0.8317 0.2034
vt 0.7784 0.0104
vn 0.0000 0.0000 -1.0000
vn 0.0000 -1.0000 0.0000
vn 0.0000 -0.0012 1.0000
vn 0.9505 -0.0030 0.3106
vn 0.0000 -0.4294 0.9031
vn -0.9505 -0.0030 0.3106
vn 0.0000 0.0000 1.0000
vn 0.0000 -0.0012 -1.0000
vn 0.9505 -0.0030 -0.3106
vn 0.0000 -0.4294 -0.9031
vn -0.9505 -0.0030 -0.3106
vn 0.0006 -0.4293 0.9032
vn 0.6898 -0.2232 0.6887
vn 0.0006 -0.4295 0.9031
vn -0.6884 -0.2252 0.6895
vn 0.6898 -0.2232 -0.6887
vn 0.0006 -0.4295 -0.9031
vn -0.6884 -0.2252 -0.6895
vn 0.0006 -0.4293 -0.9032
usemtl bowl
s off
f 1/1/1 2/2/1 8/3/1 6/4/1
f 2/5/2 3/6/2 10/7/2 8/8/2
f 3/9/3 4/10/3 12/11/3 10/12/3
f 2/2/4 1/1/4 4/10/4 3/9/4
f 4/13/5 12/14/5 6/15/5 1/16/5
f 6/17/2 27/18/2 13/19/2 1/20/2
f 5/21/1 6/22/1 8/23/1 7/24/1
f 7/25/2 8/8/2 10/7/2 9/26/2
f 9/27/3 10/12/3 12/11/3 11/28/3
f 7/24/6 9/27/6 11/28/6 5/21/6
f 11/29/5 5/30/5 6/15/5 12/14/5
f 6/17/2 5/31/2 18/32/2 27/18/2
f 14/33/7 20/34/7 22/35/7 15/36/7
f 15/37/2 22/38/2 24/39/2 16/40/2
f 16/41/8 24/42/8 26/43/8 17/44/8
f 15/36/9 16/41/9 17/44/9 14/33/9
f 17/45/10 14/46/10 20/47/10 26/48/10
f 20/49/2 14/50/2 13/19/2 27/18/2
f 19/51/7 21/52/7 22/53/7 20/54/7
f 21/55/2 23/56/2 24/39/2 22/38/2
f 23/57/8 25/58/8 26/43/8 24/42/8
f 21/52/11 19/51/11 25/58/11 23/57/11
f 25/59/10 26/48/10 20/47/10 19/60/10
f 20/49/2 27/18/2 18/32/2 19/61/2
f 28/62/12 29/63/12 12/64/12 4/65/12
f 30/66/13 28/67/13 4/68/13 1/69/13 13/70/13
f 29/63/14 32/71/14 11/72/14 12/64/14
f 32/73/15 31/74/15 18/75/15 5/76/15 11/77/15
f 33/78/16 30/66/16 13/70/16 14/79/16 17/80/16
f 35/81/17 34/82/17 26/83/17 25/84/17
f 31/74/18 35/85/18 25/86/18 19/87/18 18/75/18
f 34/82/19 33/88/19 17/89/19 26/83/19
