# Blender v2.78 (sub 0) OBJ File: ''
# www.blender.org
mtllib taste_2.mtl
o wheel_a
v 0.000000 -13.970978 -44.142246
v 0.000000 26.757992 -44.142239
v 35.748623 26.757990 -29.334667
v 35.748623 -13.970981 -29.334673
v 50.556175 26.757982 6.413951
v 50.556175 -13.970986 6.413945
v 35.748623 26.757977 42.162563
v 35.748623 -13.970992 42.162556
v -0.000004 26.757975 56.970135
v -0.000004 -13.970995 56.970127
v -35.748631 26.757977 42.162560
v -35.748631 -13.970992 42.162552
v -50.556194 26.757982 6.413949
v -50.556194 -13.970986 6.413943
v -35.748631 26.757990 -29.334663
v -35.748631 -13.970981 -29.334669
vt 0.9706 0.9312
vt 0.9706 0.9952
vt 0.9074 0.9952
vt 0.9074 0.9312
vt 0.8442 0.9952
vt 0.8442 0.9312
vt 0.7811 0.9952
vt 0.7811 0.9312
vt 0.7179 0.9952
vt 0.7179 0.9312
vt 0.6547 0.9952
vt 0.6547 0.9312
vt 0.5916 0.9952
vt 0.5916 0.9312
vt 0.5284 0.9952
vt 0.5284 0.9312
vt 0.4652 0.9952
vt 0.4652 0.9312
vn 0.3827 0.0000 -0.9239
vn 0.9239 0.0000 -0.3827
vn 0.9239 -0.0000 0.3827
vn 0.3827 -0.0000 0.9239
vn -0.3827 -0.0000 0.9239
vn -0.9239 -0.0000 0.3827
vn -0.9239 0.0000 -0.3827
vn -0.3827 0.0000 -0.9239
usemtl taste
s 1
f 1/1/1 2/2/1 3/3/1 4/4/1
f 4/4/2 3/3/2 5/5/2 6/6/2
f 6/6/3 5/5/3 7/7/3 8/8/3
f 8/8/4 7/7/4 9/9/4 10/10/4
f 10/10/5 9/9/5 11/11/5 12/12/5
f 12/12/6 11/11/6 13/13/6 14/14/6
f 14/14/7 13/13/7 15/15/7 16/16/7
f 16/16/8 15/15/8 2/17/8 1/18/8
